M48
; DRILL file {KiCad (5.1.6)-1} date 12/12/20 21:33:42
; FORMAT={-:-/ absolute / inch / decimal}
; #@! TF.CreationDate,2020-12-12T21:33:42-06:00
; #@! TF.GenerationSoftware,Kicad,Pcbnew,(5.1.6)-1
; #@! TF.FileFunction,Plated,1,2,PTH
FMAT,2
INCH
T1C0.0394
T2C0.1260
%
G90
G05
T1
X6.15Y-4.1
X6.15Y-4.2
X6.25Y-4.1
X6.25Y-4.2
X6.35Y-4.1
X6.35Y-4.2
X6.45Y-4.1
X6.45Y-4.2
X6.55Y-4.1
X6.55Y-4.2
X6.65Y-4.1
X6.65Y-4.2
X6.75Y-4.1
X6.75Y-4.2
X6.85Y-4.1
X6.85Y-4.2
X6.95Y-4.1
X6.95Y-4.2
X7.05Y-4.1
X7.05Y-4.2
X7.15Y-4.1
X7.15Y-4.2
X7.25Y-4.1
X7.25Y-4.2
X7.35Y-4.1
X7.35Y-4.2
X7.45Y-4.1
X7.45Y-4.2
X7.55Y-4.1
X7.55Y-4.2
X7.65Y-4.1
X7.65Y-4.2
X7.75Y-4.1
X7.75Y-4.2
X7.85Y-4.1
X7.85Y-4.2
X7.95Y-4.1
X7.95Y-4.2
X8.05Y-4.1
X8.05Y-4.2
X8.15Y-4.1
X8.15Y-4.2
X8.25Y-4.1
X8.25Y-4.2
X8.35Y-4.1
X8.35Y-4.2
X8.45Y-4.1
X8.45Y-4.2
X8.55Y-4.1
X8.55Y-4.2
X8.65Y-4.1
X8.65Y-4.2
X8.75Y-4.1
X8.75Y-4.2
X8.85Y-4.1
X8.85Y-4.2
X8.95Y-4.1
X8.95Y-4.2
X9.05Y-4.1
X9.05Y-4.2
X9.15Y-4.1
X9.15Y-4.2
X9.25Y-4.1
X9.25Y-4.2
X9.35Y-4.1
X9.35Y-4.2
X9.45Y-4.1
X9.45Y-4.2
X9.55Y-4.1
X9.55Y-4.2
X9.65Y-4.1
X9.65Y-4.2
X9.75Y-4.1
X9.75Y-4.2
X9.85Y-4.1
X9.85Y-4.2
X9.95Y-4.1
X9.95Y-4.2
X10.05Y-4.1
X10.05Y-4.2
X6.15Y-3.9
X6.15Y-4.0
X6.25Y-3.9
X6.25Y-4.0
X6.35Y-3.9
X6.35Y-4.0
X6.45Y-3.9
X6.45Y-4.0
X6.55Y-3.9
X6.55Y-4.0
X6.65Y-3.9
X6.65Y-4.0
X6.75Y-3.9
X6.75Y-4.0
X6.85Y-3.9
X6.85Y-4.0
X6.95Y-3.9
X6.95Y-4.0
X7.05Y-3.9
X7.05Y-4.0
X7.15Y-3.9
X7.15Y-4.0
X7.25Y-3.9
X7.25Y-4.0
X7.35Y-3.9
X7.35Y-4.0
X7.45Y-3.9
X7.45Y-4.0
X7.55Y-3.9
X7.55Y-4.0
X7.65Y-3.9
X7.65Y-4.0
X7.75Y-3.9
X7.75Y-4.0
X7.85Y-3.9
X7.85Y-4.0
X7.95Y-3.9
X7.95Y-4.0
X8.05Y-3.9
X8.05Y-4.0
X8.15Y-3.9
X8.15Y-4.0
X8.25Y-3.9
X8.25Y-4.0
X8.35Y-3.9
X8.35Y-4.0
X8.45Y-3.9
X8.45Y-4.0
X8.55Y-3.9
X8.55Y-4.0
X8.65Y-3.9
X8.65Y-4.0
X8.75Y-3.9
X8.75Y-4.0
X8.85Y-3.9
X8.85Y-4.0
X8.95Y-3.9
X8.95Y-4.0
X9.05Y-3.9
X9.05Y-4.0
X9.15Y-3.9
X9.15Y-4.0
X9.25Y-3.9
X9.25Y-4.0
X9.35Y-3.9
X9.35Y-4.0
X9.45Y-3.9
X9.45Y-4.0
X9.55Y-3.9
X9.55Y-4.0
X9.65Y-3.9
X9.65Y-4.0
X9.75Y-3.9
X9.75Y-4.0
X9.85Y-3.9
X9.85Y-4.0
X9.95Y-3.9
X9.95Y-4.0
X10.05Y-3.9
X10.05Y-4.0
X2.15Y-4.5
X2.15Y-4.6
X2.25Y-4.5
X2.25Y-4.6
X2.35Y-4.5
X2.35Y-4.6
X2.45Y-4.5
X2.45Y-4.6
X2.55Y-4.5
X2.55Y-4.6
X2.65Y-4.5
X2.65Y-4.6
X2.75Y-4.5
X2.75Y-4.6
X2.85Y-4.5
X2.85Y-4.6
X2.95Y-4.5
X2.95Y-4.6
X3.05Y-4.5
X3.05Y-4.6
X3.15Y-4.5
X3.15Y-4.6
X3.25Y-4.5
X3.25Y-4.6
X3.35Y-4.5
X3.35Y-4.6
X3.45Y-4.5
X3.45Y-4.6
X3.55Y-4.5
X3.55Y-4.6
X3.65Y-4.5
X3.65Y-4.6
X3.75Y-4.5
X3.75Y-4.6
X3.85Y-4.5
X3.85Y-4.6
X3.95Y-4.5
X3.95Y-4.6
X4.05Y-4.5
X4.05Y-4.6
X4.15Y-4.5
X4.15Y-4.6
X4.25Y-4.5
X4.25Y-4.6
X4.35Y-4.5
X4.35Y-4.6
X4.45Y-4.5
X4.45Y-4.6
X4.55Y-4.5
X4.55Y-4.6
X4.65Y-4.5
X4.65Y-4.6
X4.75Y-4.5
X4.75Y-4.6
X4.85Y-4.5
X4.85Y-4.6
X4.95Y-4.5
X4.95Y-4.6
X5.05Y-4.5
X5.05Y-4.6
X5.15Y-4.5
X5.15Y-4.6
X5.25Y-4.5
X5.25Y-4.6
X5.35Y-4.5
X5.35Y-4.6
X5.45Y-4.5
X5.45Y-4.6
X5.55Y-4.5
X5.55Y-4.6
X5.65Y-4.5
X5.65Y-4.6
X5.75Y-4.5
X5.75Y-4.6
X5.85Y-4.5
X5.85Y-4.6
X5.95Y-4.5
X5.95Y-4.6
X6.05Y-4.5
X6.05Y-4.6
X2.15Y-3.3
X2.15Y-3.4
X2.25Y-3.3
X2.25Y-3.4
X2.35Y-3.3
X2.35Y-3.4
X2.45Y-3.3
X2.45Y-3.4
X2.55Y-3.3
X2.55Y-3.4
X2.65Y-3.3
X2.65Y-3.4
X2.75Y-3.3
X2.75Y-3.4
X2.85Y-3.3
X2.85Y-3.4
X2.95Y-3.3
X2.95Y-3.4
X3.05Y-3.3
X3.05Y-3.4
X3.15Y-3.3
X3.15Y-3.4
X3.25Y-3.3
X3.25Y-3.4
X3.35Y-3.3
X3.35Y-3.4
X3.45Y-3.3
X3.45Y-3.4
X3.55Y-3.3
X3.55Y-3.4
X3.65Y-3.3
X3.65Y-3.4
X3.75Y-3.3
X3.75Y-3.4
X3.85Y-3.3
X3.85Y-3.4
X3.95Y-3.3
X3.95Y-3.4
X4.05Y-3.3
X4.05Y-3.4
X4.15Y-3.3
X4.15Y-3.4
X4.25Y-3.3
X4.25Y-3.4
X4.35Y-3.3
X4.35Y-3.4
X4.45Y-3.3
X4.45Y-3.4
X4.55Y-3.3
X4.55Y-3.4
X4.65Y-3.3
X4.65Y-3.4
X4.75Y-3.3
X4.75Y-3.4
X4.85Y-3.3
X4.85Y-3.4
X4.95Y-3.3
X4.95Y-3.4
X5.05Y-3.3
X5.05Y-3.4
X5.15Y-3.3
X5.15Y-3.4
X5.25Y-3.3
X5.25Y-3.4
X5.35Y-3.3
X5.35Y-3.4
X5.45Y-3.3
X5.45Y-3.4
X5.55Y-3.3
X5.55Y-3.4
X5.65Y-3.3
X5.65Y-3.4
X5.75Y-3.3
X5.75Y-3.4
X5.85Y-3.3
X5.85Y-3.4
X5.95Y-3.3
X5.95Y-3.4
X6.05Y-3.3
X6.05Y-3.4
X6.15Y-2.9
X6.15Y-3.0
X6.25Y-2.9
X6.25Y-3.0
X6.35Y-2.9
X6.35Y-3.0
X6.45Y-2.9
X6.45Y-3.0
X6.55Y-2.9
X6.55Y-3.0
X6.65Y-2.9
X6.65Y-3.0
X6.75Y-2.9
X6.75Y-3.0
X6.85Y-2.9
X6.85Y-3.0
X6.95Y-2.9
X6.95Y-3.0
X7.05Y-2.9
X7.05Y-3.0
X7.15Y-2.9
X7.15Y-3.0
X7.25Y-2.9
X7.25Y-3.0
X7.35Y-2.9
X7.35Y-3.0
X7.45Y-2.9
X7.45Y-3.0
X7.55Y-2.9
X7.55Y-3.0
X7.65Y-2.9
X7.65Y-3.0
X7.75Y-2.9
X7.75Y-3.0
X7.85Y-2.9
X7.85Y-3.0
X7.95Y-2.9
X7.95Y-3.0
X8.05Y-2.9
X8.05Y-3.0
X8.15Y-2.9
X8.15Y-3.0
X8.25Y-2.9
X8.25Y-3.0
X8.35Y-2.9
X8.35Y-3.0
X8.45Y-2.9
X8.45Y-3.0
X8.55Y-2.9
X8.55Y-3.0
X8.65Y-2.9
X8.65Y-3.0
X8.75Y-2.9
X8.75Y-3.0
X8.85Y-2.9
X8.85Y-3.0
X8.95Y-2.9
X8.95Y-3.0
X9.05Y-2.9
X9.05Y-3.0
X9.15Y-2.9
X9.15Y-3.0
X9.25Y-2.9
X9.25Y-3.0
X9.35Y-2.9
X9.35Y-3.0
X9.45Y-2.9
X9.45Y-3.0
X9.55Y-2.9
X9.55Y-3.0
X9.65Y-2.9
X9.65Y-3.0
X9.75Y-2.9
X9.75Y-3.0
X9.85Y-2.9
X9.85Y-3.0
X9.95Y-2.9
X9.95Y-3.0
X10.05Y-2.9
X10.05Y-3.0
X10.505Y-2.7238
X10.505Y-2.8328
X10.505Y-2.9419
X10.505Y-3.0509
X10.505Y-3.16
X10.6168Y-2.7783
X10.6168Y-2.8874
X10.6168Y-2.9964
X10.6168Y-3.1055
X0.95Y-2.1
X0.95Y-2.2
X0.95Y-2.3
X0.95Y-2.4
X0.95Y-2.5
X0.95Y-2.6
X0.95Y-2.7
X0.95Y-2.8
X0.95Y-2.9
X0.95Y-3.0
X0.95Y-3.1
X0.95Y-3.2
X0.95Y-3.3
X0.95Y-3.4
X0.95Y-3.5
X0.95Y-3.6
X0.95Y-3.7
X0.95Y-3.8
X0.95Y-3.9
X0.95Y-4.0
X0.95Y-4.1
X0.95Y-4.2
X0.95Y-4.3
X0.95Y-4.4
X0.95Y-4.5
X0.95Y-4.6
X0.95Y-4.7
X0.95Y-4.8
X0.95Y-4.9
X0.95Y-5.0
X0.95Y-5.1
X0.95Y-5.2
X0.95Y-5.3
X0.95Y-5.4
X1.05Y-2.1
X1.05Y-2.2
X1.05Y-2.3
X1.05Y-2.4
X1.05Y-2.5
X1.05Y-2.6
X1.05Y-2.7
X1.05Y-2.8
X1.05Y-2.9
X1.05Y-3.0
X1.05Y-3.1
X1.05Y-3.2
X1.05Y-3.3
X1.05Y-3.4
X1.05Y-3.5
X1.05Y-3.6
X1.05Y-3.7
X1.05Y-3.8
X1.05Y-3.9
X1.05Y-4.0
X1.05Y-4.1
X1.05Y-4.2
X1.05Y-4.3
X1.05Y-4.4
X1.05Y-4.5
X1.05Y-4.6
X1.05Y-4.7
X1.05Y-4.8
X1.05Y-4.9
X1.05Y-5.0
X1.05Y-5.1
X1.05Y-5.2
X1.05Y-5.3
X1.05Y-5.4
X2.15Y-2.3
X2.15Y-2.4
X2.25Y-2.3
X2.25Y-2.4
X2.35Y-2.3
X2.35Y-2.4
X2.45Y-2.3
X2.45Y-2.4
X2.55Y-2.3
X2.55Y-2.4
X2.65Y-2.3
X2.65Y-2.4
X2.75Y-2.3
X2.75Y-2.4
X2.85Y-2.3
X2.85Y-2.4
X2.95Y-2.3
X2.95Y-2.4
X3.05Y-2.3
X3.05Y-2.4
X3.15Y-2.3
X3.15Y-2.4
X3.25Y-2.3
X3.25Y-2.4
X3.35Y-2.3
X3.35Y-2.4
X3.45Y-2.3
X3.45Y-2.4
X3.55Y-2.3
X3.55Y-2.4
X3.65Y-2.3
X3.65Y-2.4
X3.75Y-2.3
X3.75Y-2.4
X3.85Y-2.3
X3.85Y-2.4
X3.95Y-2.3
X3.95Y-2.4
X4.05Y-2.3
X4.05Y-2.4
X4.15Y-2.3
X4.15Y-2.4
X4.25Y-2.3
X4.25Y-2.4
X4.35Y-2.3
X4.35Y-2.4
X4.45Y-2.3
X4.45Y-2.4
X4.55Y-2.3
X4.55Y-2.4
X4.65Y-2.3
X4.65Y-2.4
X4.75Y-2.3
X4.75Y-2.4
X4.85Y-2.3
X4.85Y-2.4
X4.95Y-2.3
X4.95Y-2.4
X5.05Y-2.3
X5.05Y-2.4
X5.15Y-2.3
X5.15Y-2.4
X5.25Y-2.3
X5.25Y-2.4
X5.35Y-2.3
X5.35Y-2.4
X5.45Y-2.3
X5.45Y-2.4
X5.55Y-2.3
X5.55Y-2.4
X5.65Y-2.3
X5.65Y-2.4
X5.75Y-2.3
X5.75Y-2.4
X5.85Y-2.3
X5.85Y-2.4
X5.95Y-2.3
X5.95Y-2.4
X6.05Y-2.3
X6.05Y-2.4
X6.85Y-5.3
X6.95Y-5.3
X7.05Y-5.3
X7.15Y-5.3
X7.25Y-5.3
X7.35Y-5.3
X7.45Y-5.3
X7.55Y-5.3
X7.65Y-5.3
X7.75Y-5.3
X7.85Y-5.3
X7.95Y-5.3
X8.05Y-5.3
X8.15Y-5.3
X8.25Y-5.3
X8.35Y-5.3
X8.45Y-5.3
X8.55Y-5.3
X8.65Y-5.3
X8.75Y-5.3
X8.85Y-5.3
X8.95Y-5.3
X9.05Y-5.3
X9.15Y-5.3
X9.25Y-5.3
X9.35Y-5.3
X9.45Y-5.3
X9.55Y-5.3
X9.65Y-5.3
X9.75Y-5.3
X9.85Y-5.3
X1.75Y-2.1
X1.75Y-2.2
X1.75Y-2.3
X1.75Y-2.4
X1.75Y-2.5
X1.75Y-2.6
X1.75Y-2.7
X1.75Y-2.8
X1.75Y-2.9
X1.75Y-3.0
X1.75Y-3.1
X1.75Y-3.2
X1.75Y-3.3
X1.75Y-3.4
X1.75Y-3.5
X1.75Y-3.6
X1.75Y-3.7
X1.75Y-3.8
X1.75Y-3.9
X1.75Y-4.0
X1.75Y-4.1
X1.75Y-4.2
X1.75Y-4.3
X1.75Y-4.4
X1.75Y-4.5
X1.75Y-4.6
X1.75Y-4.7
X1.75Y-4.8
X1.75Y-4.9
X1.75Y-5.0
X1.75Y-5.1
X1.75Y-5.2
X1.75Y-5.3
X1.75Y-5.4
X1.85Y-2.1
X1.85Y-2.2
X1.85Y-2.3
X1.85Y-2.4
X1.85Y-2.5
X1.85Y-2.6
X1.85Y-2.7
X1.85Y-2.8
X1.85Y-2.9
X1.85Y-3.0
X1.85Y-3.1
X1.85Y-3.2
X1.85Y-3.3
X1.85Y-3.4
X1.85Y-3.5
X1.85Y-3.6
X1.85Y-3.7
X1.85Y-3.8
X1.85Y-3.9
X1.85Y-4.0
X1.85Y-4.1
X1.85Y-4.2
X1.85Y-4.3
X1.85Y-4.4
X1.85Y-4.5
X1.85Y-4.6
X1.85Y-4.7
X1.85Y-4.8
X1.85Y-4.9
X1.85Y-5.0
X1.85Y-5.1
X1.85Y-5.2
X1.85Y-5.3
X1.85Y-5.4
X2.15Y-2.1
X2.15Y-2.2
X2.25Y-2.1
X2.25Y-2.2
X2.35Y-2.1
X2.35Y-2.2
X2.45Y-2.1
X2.45Y-2.2
X2.55Y-2.1
X2.55Y-2.2
X2.65Y-2.1
X2.65Y-2.2
X2.75Y-2.1
X2.75Y-2.2
X2.85Y-2.1
X2.85Y-2.2
X2.95Y-2.1
X2.95Y-2.2
X3.05Y-2.1
X3.05Y-2.2
X3.15Y-2.1
X3.15Y-2.2
X3.25Y-2.1
X3.25Y-2.2
X3.35Y-2.1
X3.35Y-2.2
X3.45Y-2.1
X3.45Y-2.2
X3.55Y-2.1
X3.55Y-2.2
X3.65Y-2.1
X3.65Y-2.2
X3.75Y-2.1
X3.75Y-2.2
X3.85Y-2.1
X3.85Y-2.2
X3.95Y-2.1
X3.95Y-2.2
X4.05Y-2.1
X4.05Y-2.2
X4.15Y-2.1
X4.15Y-2.2
X4.25Y-2.1
X4.25Y-2.2
X4.35Y-2.1
X4.35Y-2.2
X4.45Y-2.1
X4.45Y-2.2
X4.55Y-2.1
X4.55Y-2.2
X4.65Y-2.1
X4.65Y-2.2
X4.75Y-2.1
X4.75Y-2.2
X4.85Y-2.1
X4.85Y-2.2
X4.95Y-2.1
X4.95Y-2.2
X5.05Y-2.1
X5.05Y-2.2
X5.15Y-2.1
X5.15Y-2.2
X5.25Y-2.1
X5.25Y-2.2
X5.35Y-2.1
X5.35Y-2.2
X5.45Y-2.1
X5.45Y-2.2
X5.55Y-2.1
X5.55Y-2.2
X5.65Y-2.1
X5.65Y-2.2
X5.75Y-2.1
X5.75Y-2.2
X5.85Y-2.1
X5.85Y-2.2
X5.95Y-2.1
X5.95Y-2.2
X6.05Y-2.1
X6.05Y-2.2
X6.85Y-5.1
X6.95Y-5.1
X7.05Y-5.1
X7.15Y-5.1
X7.25Y-5.1
X7.35Y-5.1
X7.45Y-5.1
X7.55Y-5.1
X7.65Y-5.1
X7.75Y-5.1
X7.85Y-5.1
X7.95Y-5.1
X8.05Y-5.1
X8.15Y-5.1
X8.25Y-5.1
X8.35Y-5.1
X8.45Y-5.1
X8.55Y-5.1
X8.65Y-5.1
X8.75Y-5.1
X8.85Y-5.1
X8.95Y-5.1
X9.05Y-5.1
X9.15Y-5.1
X9.25Y-5.1
X9.35Y-5.1
X9.45Y-5.1
X9.55Y-5.1
X9.65Y-5.1
X9.75Y-5.1
X9.85Y-5.1
X2.15Y-3.1
X2.15Y-3.2
X2.25Y-3.1
X2.25Y-3.2
X2.35Y-3.1
X2.35Y-3.2
X2.45Y-3.1
X2.45Y-3.2
X2.55Y-3.1
X2.55Y-3.2
X2.65Y-3.1
X2.65Y-3.2
X2.75Y-3.1
X2.75Y-3.2
X2.85Y-3.1
X2.85Y-3.2
X2.95Y-3.1
X2.95Y-3.2
X3.05Y-3.1
X3.05Y-3.2
X3.15Y-3.1
X3.15Y-3.2
X3.25Y-3.1
X3.25Y-3.2
X3.35Y-3.1
X3.35Y-3.2
X3.45Y-3.1
X3.45Y-3.2
X3.55Y-3.1
X3.55Y-3.2
X3.65Y-3.1
X3.65Y-3.2
X3.75Y-3.1
X3.75Y-3.2
X3.85Y-3.1
X3.85Y-3.2
X3.95Y-3.1
X3.95Y-3.2
X4.05Y-3.1
X4.05Y-3.2
X4.15Y-3.1
X4.15Y-3.2
X4.25Y-3.1
X4.25Y-3.2
X4.35Y-3.1
X4.35Y-3.2
X4.45Y-3.1
X4.45Y-3.2
X4.55Y-3.1
X4.55Y-3.2
X4.65Y-3.1
X4.65Y-3.2
X4.75Y-3.1
X4.75Y-3.2
X4.85Y-3.1
X4.85Y-3.2
X4.95Y-3.1
X4.95Y-3.2
X5.05Y-3.1
X5.05Y-3.2
X5.15Y-3.1
X5.15Y-3.2
X5.25Y-3.1
X5.25Y-3.2
X5.35Y-3.1
X5.35Y-3.2
X5.45Y-3.1
X5.45Y-3.2
X5.55Y-3.1
X5.55Y-3.2
X5.65Y-3.1
X5.65Y-3.2
X5.75Y-3.1
X5.75Y-3.2
X5.85Y-3.1
X5.85Y-3.2
X5.95Y-3.1
X5.95Y-3.2
X6.05Y-3.1
X6.05Y-3.2
X6.15Y-4.3
X6.15Y-4.4
X6.25Y-4.3
X6.25Y-4.4
X6.35Y-4.3
X6.35Y-4.4
X6.45Y-4.3
X6.45Y-4.4
X6.55Y-4.3
X6.55Y-4.4
X6.65Y-4.3
X6.65Y-4.4
X6.75Y-4.3
X6.75Y-4.4
X6.85Y-4.3
X6.85Y-4.4
X6.95Y-4.3
X6.95Y-4.4
X7.05Y-4.3
X7.05Y-4.4
X7.15Y-4.3
X7.15Y-4.4
X7.25Y-4.3
X7.25Y-4.4
X7.35Y-4.3
X7.35Y-4.4
X7.45Y-4.3
X7.45Y-4.4
X7.55Y-4.3
X7.55Y-4.4
X7.65Y-4.3
X7.65Y-4.4
X7.75Y-4.3
X7.75Y-4.4
X7.85Y-4.3
X7.85Y-4.4
X7.95Y-4.3
X7.95Y-4.4
X8.05Y-4.3
X8.05Y-4.4
X8.15Y-4.3
X8.15Y-4.4
X8.25Y-4.3
X8.25Y-4.4
X8.35Y-4.3
X8.35Y-4.4
X8.45Y-4.3
X8.45Y-4.4
X8.55Y-4.3
X8.55Y-4.4
X8.65Y-4.3
X8.65Y-4.4
X8.75Y-4.3
X8.75Y-4.4
X8.85Y-4.3
X8.85Y-4.4
X8.95Y-4.3
X8.95Y-4.4
X9.05Y-4.3
X9.05Y-4.4
X9.15Y-4.3
X9.15Y-4.4
X9.25Y-4.3
X9.25Y-4.4
X9.35Y-4.3
X9.35Y-4.4
X9.45Y-4.3
X9.45Y-4.4
X9.55Y-4.3
X9.55Y-4.4
X9.65Y-4.3
X9.65Y-4.4
X9.75Y-4.3
X9.75Y-4.4
X9.85Y-4.3
X9.85Y-4.4
X9.95Y-4.3
X9.95Y-4.4
X10.05Y-4.3
X10.05Y-4.4
X10.2Y-2.7
X10.2Y-2.8
X10.2Y-2.9
X10.2Y-3.0
X10.2Y-3.1
X10.3Y-2.7
X10.3Y-2.8
X10.3Y-2.9
X10.3Y-3.0
X10.3Y-3.1
X6.85Y-5.0
X6.95Y-5.0
X7.05Y-5.0
X7.15Y-5.0
X7.25Y-5.0
X7.35Y-5.0
X7.45Y-5.0
X7.55Y-5.0
X7.65Y-5.0
X7.75Y-5.0
X7.85Y-5.0
X7.95Y-5.0
X8.05Y-5.0
X8.15Y-5.0
X8.25Y-5.0
X8.35Y-5.0
X8.45Y-5.0
X8.55Y-5.0
X8.65Y-5.0
X8.75Y-5.0
X8.85Y-5.0
X8.95Y-5.0
X9.05Y-5.0
X9.15Y-5.0
X9.25Y-5.0
X9.35Y-5.0
X9.45Y-5.0
X9.55Y-5.0
X9.65Y-5.0
X9.75Y-5.0
X9.85Y-5.0
X2.15Y-4.9
X2.15Y-5.0
X2.25Y-4.9
X2.25Y-5.0
X2.35Y-4.9
X2.35Y-5.0
X2.45Y-4.9
X2.45Y-5.0
X2.55Y-4.9
X2.55Y-5.0
X2.65Y-4.9
X2.65Y-5.0
X2.75Y-4.9
X2.75Y-5.0
X2.85Y-4.9
X2.85Y-5.0
X2.95Y-4.9
X2.95Y-5.0
X3.05Y-4.9
X3.05Y-5.0
X3.15Y-4.9
X3.15Y-5.0
X3.25Y-4.9
X3.25Y-5.0
X3.35Y-4.9
X3.35Y-5.0
X3.45Y-4.9
X3.45Y-5.0
X3.55Y-4.9
X3.55Y-5.0
X3.65Y-4.9
X3.65Y-5.0
X3.75Y-4.9
X3.75Y-5.0
X3.85Y-4.9
X3.85Y-5.0
X3.95Y-4.9
X3.95Y-5.0
X4.05Y-4.9
X4.05Y-5.0
X4.15Y-4.9
X4.15Y-5.0
X4.25Y-4.9
X4.25Y-5.0
X4.35Y-4.9
X4.35Y-5.0
X4.45Y-4.9
X4.45Y-5.0
X4.55Y-4.9
X4.55Y-5.0
X4.65Y-4.9
X4.65Y-5.0
X4.75Y-4.9
X4.75Y-5.0
X4.85Y-4.9
X4.85Y-5.0
X4.95Y-4.9
X4.95Y-5.0
X5.05Y-4.9
X5.05Y-5.0
X5.15Y-4.9
X5.15Y-5.0
X5.25Y-4.9
X5.25Y-5.0
X5.35Y-4.9
X5.35Y-5.0
X5.45Y-4.9
X5.45Y-5.0
X5.55Y-4.9
X5.55Y-5.0
X5.65Y-4.9
X5.65Y-5.0
X5.75Y-4.9
X5.75Y-5.0
X5.85Y-4.9
X5.85Y-5.0
X5.95Y-4.9
X5.95Y-5.0
X6.05Y-4.9
X6.05Y-5.0
X6.15Y-3.7
X6.15Y-3.8
X6.25Y-3.7
X6.25Y-3.8
X6.35Y-3.7
X6.35Y-3.8
X6.45Y-3.7
X6.45Y-3.8
X6.55Y-3.7
X6.55Y-3.8
X6.65Y-3.7
X6.65Y-3.8
X6.75Y-3.7
X6.75Y-3.8
X6.85Y-3.7
X6.85Y-3.8
X6.95Y-3.7
X6.95Y-3.8
X7.05Y-3.7
X7.05Y-3.8
X7.15Y-3.7
X7.15Y-3.8
X7.25Y-3.7
X7.25Y-3.8
X7.35Y-3.7
X7.35Y-3.8
X7.45Y-3.7
X7.45Y-3.8
X7.55Y-3.7
X7.55Y-3.8
X7.65Y-3.7
X7.65Y-3.8
X7.75Y-3.7
X7.75Y-3.8
X7.85Y-3.7
X7.85Y-3.8
X7.95Y-3.7
X7.95Y-3.8
X8.05Y-3.7
X8.05Y-3.8
X8.15Y-3.7
X8.15Y-3.8
X8.25Y-3.7
X8.25Y-3.8
X8.35Y-3.7
X8.35Y-3.8
X8.45Y-3.7
X8.45Y-3.8
X8.55Y-3.7
X8.55Y-3.8
X8.65Y-3.7
X8.65Y-3.8
X8.75Y-3.7
X8.75Y-3.8
X8.85Y-3.7
X8.85Y-3.8
X8.95Y-3.7
X8.95Y-3.8
X9.05Y-3.7
X9.05Y-3.8
X9.15Y-3.7
X9.15Y-3.8
X9.25Y-3.7
X9.25Y-3.8
X9.35Y-3.7
X9.35Y-3.8
X9.45Y-3.7
X9.45Y-3.8
X9.55Y-3.7
X9.55Y-3.8
X9.65Y-3.7
X9.65Y-3.8
X9.75Y-3.7
X9.75Y-3.8
X9.85Y-3.7
X9.85Y-3.8
X9.95Y-3.7
X9.95Y-3.8
X10.05Y-3.7
X10.05Y-3.8
X2.15Y-3.5
X2.15Y-3.6
X2.25Y-3.5
X2.25Y-3.6
X2.35Y-3.5
X2.35Y-3.6
X2.45Y-3.5
X2.45Y-3.6
X2.55Y-3.5
X2.55Y-3.6
X2.65Y-3.5
X2.65Y-3.6
X2.75Y-3.5
X2.75Y-3.6
X2.85Y-3.5
X2.85Y-3.6
X2.95Y-3.5
X2.95Y-3.6
X3.05Y-3.5
X3.05Y-3.6
X3.15Y-3.5
X3.15Y-3.6
X3.25Y-3.5
X3.25Y-3.6
X3.35Y-3.5
X3.35Y-3.6
X3.45Y-3.5
X3.45Y-3.6
X3.55Y-3.5
X3.55Y-3.6
X3.65Y-3.5
X3.65Y-3.6
X3.75Y-3.5
X3.75Y-3.6
X3.85Y-3.5
X3.85Y-3.6
X3.95Y-3.5
X3.95Y-3.6
X4.05Y-3.5
X4.05Y-3.6
X4.15Y-3.5
X4.15Y-3.6
X4.25Y-3.5
X4.25Y-3.6
X4.35Y-3.5
X4.35Y-3.6
X4.45Y-3.5
X4.45Y-3.6
X4.55Y-3.5
X4.55Y-3.6
X4.65Y-3.5
X4.65Y-3.6
X4.75Y-3.5
X4.75Y-3.6
X4.85Y-3.5
X4.85Y-3.6
X4.95Y-3.5
X4.95Y-3.6
X5.05Y-3.5
X5.05Y-3.6
X5.15Y-3.5
X5.15Y-3.6
X5.25Y-3.5
X5.25Y-3.6
X5.35Y-3.5
X5.35Y-3.6
X5.45Y-3.5
X5.45Y-3.6
X5.55Y-3.5
X5.55Y-3.6
X5.65Y-3.5
X5.65Y-3.6
X5.75Y-3.5
X5.75Y-3.6
X5.85Y-3.5
X5.85Y-3.6
X5.95Y-3.5
X5.95Y-3.6
X6.05Y-3.5
X6.05Y-3.6
X6.15Y-4.7
X6.15Y-4.8
X6.25Y-4.7
X6.25Y-4.8
X6.35Y-4.7
X6.35Y-4.8
X6.45Y-4.7
X6.45Y-4.8
X6.55Y-4.7
X6.55Y-4.8
X6.65Y-4.7
X6.65Y-4.8
X6.75Y-4.7
X6.75Y-4.8
X6.85Y-4.7
X6.85Y-4.8
X6.95Y-4.7
X6.95Y-4.8
X7.05Y-4.7
X7.05Y-4.8
X7.15Y-4.7
X7.15Y-4.8
X7.25Y-4.7
X7.25Y-4.8
X7.35Y-4.7
X7.35Y-4.8
X7.45Y-4.7
X7.45Y-4.8
X7.55Y-4.7
X7.55Y-4.8
X7.65Y-4.7
X7.65Y-4.8
X7.75Y-4.7
X7.75Y-4.8
X7.85Y-4.7
X7.85Y-4.8
X7.95Y-4.7
X7.95Y-4.8
X8.05Y-4.7
X8.05Y-4.8
X8.15Y-4.7
X8.15Y-4.8
X8.25Y-4.7
X8.25Y-4.8
X8.35Y-4.7
X8.35Y-4.8
X8.45Y-4.7
X8.45Y-4.8
X8.55Y-4.7
X8.55Y-4.8
X8.65Y-4.7
X8.65Y-4.8
X8.75Y-4.7
X8.75Y-4.8
X8.85Y-4.7
X8.85Y-4.8
X8.95Y-4.7
X8.95Y-4.8
X9.05Y-4.7
X9.05Y-4.8
X9.15Y-4.7
X9.15Y-4.8
X9.25Y-4.7
X9.25Y-4.8
X9.35Y-4.7
X9.35Y-4.8
X9.45Y-4.7
X9.45Y-4.8
X9.55Y-4.7
X9.55Y-4.8
X9.65Y-4.7
X9.65Y-4.8
X9.75Y-4.7
X9.75Y-4.8
X9.85Y-4.7
X9.85Y-4.8
X9.95Y-4.7
X9.95Y-4.8
X10.05Y-4.7
X10.05Y-4.8
X2.15Y-3.9
X2.15Y-4.0
X2.25Y-3.9
X2.25Y-4.0
X2.35Y-3.9
X2.35Y-4.0
X2.45Y-3.9
X2.45Y-4.0
X2.55Y-3.9
X2.55Y-4.0
X2.65Y-3.9
X2.65Y-4.0
X2.75Y-3.9
X2.75Y-4.0
X2.85Y-3.9
X2.85Y-4.0
X2.95Y-3.9
X2.95Y-4.0
X3.05Y-3.9
X3.05Y-4.0
X3.15Y-3.9
X3.15Y-4.0
X3.25Y-3.9
X3.25Y-4.0
X3.35Y-3.9
X3.35Y-4.0
X3.45Y-3.9
X3.45Y-4.0
X3.55Y-3.9
X3.55Y-4.0
X3.65Y-3.9
X3.65Y-4.0
X3.75Y-3.9
X3.75Y-4.0
X3.85Y-3.9
X3.85Y-4.0
X3.95Y-3.9
X3.95Y-4.0
X4.05Y-3.9
X4.05Y-4.0
X4.15Y-3.9
X4.15Y-4.0
X4.25Y-3.9
X4.25Y-4.0
X4.35Y-3.9
X4.35Y-4.0
X4.45Y-3.9
X4.45Y-4.0
X4.55Y-3.9
X4.55Y-4.0
X4.65Y-3.9
X4.65Y-4.0
X4.75Y-3.9
X4.75Y-4.0
X4.85Y-3.9
X4.85Y-4.0
X4.95Y-3.9
X4.95Y-4.0
X5.05Y-3.9
X5.05Y-4.0
X5.15Y-3.9
X5.15Y-4.0
X5.25Y-3.9
X5.25Y-4.0
X5.35Y-3.9
X5.35Y-4.0
X5.45Y-3.9
X5.45Y-4.0
X5.55Y-3.9
X5.55Y-4.0
X5.65Y-3.9
X5.65Y-4.0
X5.75Y-3.9
X5.75Y-4.0
X5.85Y-3.9
X5.85Y-4.0
X5.95Y-3.9
X5.95Y-4.0
X6.05Y-3.9
X6.05Y-4.0
X6.85Y-5.4
X6.95Y-5.4
X7.05Y-5.4
X7.15Y-5.4
X7.25Y-5.4
X7.35Y-5.4
X7.45Y-5.4
X7.55Y-5.4
X7.65Y-5.4
X7.75Y-5.4
X7.85Y-5.4
X7.95Y-5.4
X8.05Y-5.4
X8.15Y-5.4
X8.25Y-5.4
X8.35Y-5.4
X8.45Y-5.4
X8.55Y-5.4
X8.65Y-5.4
X8.75Y-5.4
X8.85Y-5.4
X8.95Y-5.4
X9.05Y-5.4
X9.15Y-5.4
X9.25Y-5.4
X9.35Y-5.4
X9.45Y-5.4
X9.55Y-5.4
X9.65Y-5.4
X9.75Y-5.4
X9.85Y-5.4
X2.15Y-2.5
X2.15Y-2.6
X2.25Y-2.5
X2.25Y-2.6
X2.35Y-2.5
X2.35Y-2.6
X2.45Y-2.5
X2.45Y-2.6
X2.55Y-2.5
X2.55Y-2.6
X2.65Y-2.5
X2.65Y-2.6
X2.75Y-2.5
X2.75Y-2.6
X2.85Y-2.5
X2.85Y-2.6
X2.95Y-2.5
X2.95Y-2.6
X3.05Y-2.5
X3.05Y-2.6
X3.15Y-2.5
X3.15Y-2.6
X3.25Y-2.5
X3.25Y-2.6
X3.35Y-2.5
X3.35Y-2.6
X3.45Y-2.5
X3.45Y-2.6
X3.55Y-2.5
X3.55Y-2.6
X3.65Y-2.5
X3.65Y-2.6
X3.75Y-2.5
X3.75Y-2.6
X3.85Y-2.5
X3.85Y-2.6
X3.95Y-2.5
X3.95Y-2.6
X4.05Y-2.5
X4.05Y-2.6
X4.15Y-2.5
X4.15Y-2.6
X4.25Y-2.5
X4.25Y-2.6
X4.35Y-2.5
X4.35Y-2.6
X4.45Y-2.5
X4.45Y-2.6
X4.55Y-2.5
X4.55Y-2.6
X4.65Y-2.5
X4.65Y-2.6
X4.75Y-2.5
X4.75Y-2.6
X4.85Y-2.5
X4.85Y-2.6
X4.95Y-2.5
X4.95Y-2.6
X5.05Y-2.5
X5.05Y-2.6
X5.15Y-2.5
X5.15Y-2.6
X5.25Y-2.5
X5.25Y-2.6
X5.35Y-2.5
X5.35Y-2.6
X5.45Y-2.5
X5.45Y-2.6
X5.55Y-2.5
X5.55Y-2.6
X5.65Y-2.5
X5.65Y-2.6
X5.75Y-2.5
X5.75Y-2.6
X5.85Y-2.5
X5.85Y-2.6
X5.95Y-2.5
X5.95Y-2.6
X6.05Y-2.5
X6.05Y-2.6
X2.15Y-5.1
X2.15Y-5.2
X2.25Y-5.1
X2.25Y-5.2
X2.35Y-5.1
X2.35Y-5.2
X2.45Y-5.1
X2.45Y-5.2
X2.55Y-5.1
X2.55Y-5.2
X2.65Y-5.1
X2.65Y-5.2
X2.75Y-5.1
X2.75Y-5.2
X2.85Y-5.1
X2.85Y-5.2
X2.95Y-5.1
X2.95Y-5.2
X3.05Y-5.1
X3.05Y-5.2
X3.15Y-5.1
X3.15Y-5.2
X3.25Y-5.1
X3.25Y-5.2
X3.35Y-5.1
X3.35Y-5.2
X3.45Y-5.1
X3.45Y-5.2
X3.55Y-5.1
X3.55Y-5.2
X3.65Y-5.1
X3.65Y-5.2
X3.75Y-5.1
X3.75Y-5.2
X3.85Y-5.1
X3.85Y-5.2
X3.95Y-5.1
X3.95Y-5.2
X4.05Y-5.1
X4.05Y-5.2
X4.15Y-5.1
X4.15Y-5.2
X4.25Y-5.1
X4.25Y-5.2
X4.35Y-5.1
X4.35Y-5.2
X4.45Y-5.1
X4.45Y-5.2
X4.55Y-5.1
X4.55Y-5.2
X4.65Y-5.1
X4.65Y-5.2
X4.75Y-5.1
X4.75Y-5.2
X4.85Y-5.1
X4.85Y-5.2
X4.95Y-5.1
X4.95Y-5.2
X5.05Y-5.1
X5.05Y-5.2
X5.15Y-5.1
X5.15Y-5.2
X5.25Y-5.1
X5.25Y-5.2
X5.35Y-5.1
X5.35Y-5.2
X5.45Y-5.1
X5.45Y-5.2
X5.55Y-5.1
X5.55Y-5.2
X5.65Y-5.1
X5.65Y-5.2
X5.75Y-5.1
X5.75Y-5.2
X5.85Y-5.1
X5.85Y-5.2
X5.95Y-5.1
X5.95Y-5.2
X6.05Y-5.1
X6.05Y-5.2
X6.15Y-4.5
X6.15Y-4.6
X6.25Y-4.5
X6.25Y-4.6
X6.35Y-4.5
X6.35Y-4.6
X6.45Y-4.5
X6.45Y-4.6
X6.55Y-4.5
X6.55Y-4.6
X6.65Y-4.5
X6.65Y-4.6
X6.75Y-4.5
X6.75Y-4.6
X6.85Y-4.5
X6.85Y-4.6
X6.95Y-4.5
X6.95Y-4.6
X7.05Y-4.5
X7.05Y-4.6
X7.15Y-4.5
X7.15Y-4.6
X7.25Y-4.5
X7.25Y-4.6
X7.35Y-4.5
X7.35Y-4.6
X7.45Y-4.5
X7.45Y-4.6
X7.55Y-4.5
X7.55Y-4.6
X7.65Y-4.5
X7.65Y-4.6
X7.75Y-4.5
X7.75Y-4.6
X7.85Y-4.5
X7.85Y-4.6
X7.95Y-4.5
X7.95Y-4.6
X8.05Y-4.5
X8.05Y-4.6
X8.15Y-4.5
X8.15Y-4.6
X8.25Y-4.5
X8.25Y-4.6
X8.35Y-4.5
X8.35Y-4.6
X8.45Y-4.5
X8.45Y-4.6
X8.55Y-4.5
X8.55Y-4.6
X8.65Y-4.5
X8.65Y-4.6
X8.75Y-4.5
X8.75Y-4.6
X8.85Y-4.5
X8.85Y-4.6
X8.95Y-4.5
X8.95Y-4.6
X9.05Y-4.5
X9.05Y-4.6
X9.15Y-4.5
X9.15Y-4.6
X9.25Y-4.5
X9.25Y-4.6
X9.35Y-4.5
X9.35Y-4.6
X9.45Y-4.5
X9.45Y-4.6
X9.55Y-4.5
X9.55Y-4.6
X9.65Y-4.5
X9.65Y-4.6
X9.75Y-4.5
X9.75Y-4.6
X9.85Y-4.5
X9.85Y-4.6
X9.95Y-4.5
X9.95Y-4.6
X10.05Y-4.5
X10.05Y-4.6
X6.15Y-2.7
X6.15Y-2.8
X6.25Y-2.7
X6.25Y-2.8
X6.35Y-2.7
X6.35Y-2.8
X6.45Y-2.7
X6.45Y-2.8
X6.55Y-2.7
X6.55Y-2.8
X6.65Y-2.7
X6.65Y-2.8
X6.75Y-2.7
X6.75Y-2.8
X6.85Y-2.7
X6.85Y-2.8
X6.95Y-2.7
X6.95Y-2.8
X7.05Y-2.7
X7.05Y-2.8
X7.15Y-2.7
X7.15Y-2.8
X7.25Y-2.7
X7.25Y-2.8
X7.35Y-2.7
X7.35Y-2.8
X7.45Y-2.7
X7.45Y-2.8
X7.55Y-2.7
X7.55Y-2.8
X7.65Y-2.7
X7.65Y-2.8
X7.75Y-2.7
X7.75Y-2.8
X7.85Y-2.7
X7.85Y-2.8
X7.95Y-2.7
X7.95Y-2.8
X8.05Y-2.7
X8.05Y-2.8
X8.15Y-2.7
X8.15Y-2.8
X8.25Y-2.7
X8.25Y-2.8
X8.35Y-2.7
X8.35Y-2.8
X8.45Y-2.7
X8.45Y-2.8
X8.55Y-2.7
X8.55Y-2.8
X8.65Y-2.7
X8.65Y-2.8
X8.75Y-2.7
X8.75Y-2.8
X8.85Y-2.7
X8.85Y-2.8
X8.95Y-2.7
X8.95Y-2.8
X9.05Y-2.7
X9.05Y-2.8
X9.15Y-2.7
X9.15Y-2.8
X9.25Y-2.7
X9.25Y-2.8
X9.35Y-2.7
X9.35Y-2.8
X9.45Y-2.7
X9.45Y-2.8
X9.55Y-2.7
X9.55Y-2.8
X9.65Y-2.7
X9.65Y-2.8
X9.75Y-2.7
X9.75Y-2.8
X9.85Y-2.7
X9.85Y-2.8
X9.95Y-2.7
X9.95Y-2.8
X10.05Y-2.7
X10.05Y-2.8
X2.15Y-5.3
X2.15Y-5.4
X2.25Y-5.3
X2.25Y-5.4
X2.35Y-5.3
X2.35Y-5.4
X2.45Y-5.3
X2.45Y-5.4
X2.55Y-5.3
X2.55Y-5.4
X2.65Y-5.3
X2.65Y-5.4
X2.75Y-5.3
X2.75Y-5.4
X2.85Y-5.3
X2.85Y-5.4
X2.95Y-5.3
X2.95Y-5.4
X3.05Y-5.3
X3.05Y-5.4
X3.15Y-5.3
X3.15Y-5.4
X3.25Y-5.3
X3.25Y-5.4
X3.35Y-5.3
X3.35Y-5.4
X3.45Y-5.3
X3.45Y-5.4
X3.55Y-5.3
X3.55Y-5.4
X3.65Y-5.3
X3.65Y-5.4
X3.75Y-5.3
X3.75Y-5.4
X3.85Y-5.3
X3.85Y-5.4
X3.95Y-5.3
X3.95Y-5.4
X4.05Y-5.3
X4.05Y-5.4
X4.15Y-5.3
X4.15Y-5.4
X4.25Y-5.3
X4.25Y-5.4
X4.35Y-5.3
X4.35Y-5.4
X4.45Y-5.3
X4.45Y-5.4
X4.55Y-5.3
X4.55Y-5.4
X4.65Y-5.3
X4.65Y-5.4
X4.75Y-5.3
X4.75Y-5.4
X4.85Y-5.3
X4.85Y-5.4
X4.95Y-5.3
X4.95Y-5.4
X5.05Y-5.3
X5.05Y-5.4
X5.15Y-5.3
X5.15Y-5.4
X5.25Y-5.3
X5.25Y-5.4
X5.35Y-5.3
X5.35Y-5.4
X5.45Y-5.3
X5.45Y-5.4
X5.55Y-5.3
X5.55Y-5.4
X5.65Y-5.3
X5.65Y-5.4
X5.75Y-5.3
X5.75Y-5.4
X5.85Y-5.3
X5.85Y-5.4
X5.95Y-5.3
X5.95Y-5.4
X6.05Y-5.3
X6.05Y-5.4
X6.15Y-3.5
X6.15Y-3.6
X6.25Y-3.5
X6.25Y-3.6
X6.35Y-3.5
X6.35Y-3.6
X6.45Y-3.5
X6.45Y-3.6
X6.55Y-3.5
X6.55Y-3.6
X6.65Y-3.5
X6.65Y-3.6
X6.75Y-3.5
X6.75Y-3.6
X6.85Y-3.5
X6.85Y-3.6
X6.95Y-3.5
X6.95Y-3.6
X7.05Y-3.5
X7.05Y-3.6
X7.15Y-3.5
X7.15Y-3.6
X7.25Y-3.5
X7.25Y-3.6
X7.35Y-3.5
X7.35Y-3.6
X7.45Y-3.5
X7.45Y-3.6
X7.55Y-3.5
X7.55Y-3.6
X7.65Y-3.5
X7.65Y-3.6
X7.75Y-3.5
X7.75Y-3.6
X7.85Y-3.5
X7.85Y-3.6
X7.95Y-3.5
X7.95Y-3.6
X8.05Y-3.5
X8.05Y-3.6
X8.15Y-3.5
X8.15Y-3.6
X8.25Y-3.5
X8.25Y-3.6
X8.35Y-3.5
X8.35Y-3.6
X8.45Y-3.5
X8.45Y-3.6
X8.55Y-3.5
X8.55Y-3.6
X8.65Y-3.5
X8.65Y-3.6
X8.75Y-3.5
X8.75Y-3.6
X8.85Y-3.5
X8.85Y-3.6
X8.95Y-3.5
X8.95Y-3.6
X9.05Y-3.5
X9.05Y-3.6
X9.15Y-3.5
X9.15Y-3.6
X9.25Y-3.5
X9.25Y-3.6
X9.35Y-3.5
X9.35Y-3.6
X9.45Y-3.5
X9.45Y-3.6
X9.55Y-3.5
X9.55Y-3.6
X9.65Y-3.5
X9.65Y-3.6
X9.75Y-3.5
X9.75Y-3.6
X9.85Y-3.5
X9.85Y-3.6
X9.95Y-3.5
X9.95Y-3.6
X10.05Y-3.5
X10.05Y-3.6
X10.5057Y-4.0413
X10.5057Y-4.1504
X10.5057Y-4.2594
X10.5057Y-4.3685
X10.5057Y-4.4776
X10.5057Y-4.5866
X10.5057Y-4.6957
X10.5057Y-4.8047
X10.5057Y-4.9138
X10.5057Y-5.0228
X10.5057Y-5.1319
X10.5057Y-5.2409
X10.5057Y-5.35
X10.6175Y-4.0959
X10.6175Y-4.2049
X10.6175Y-4.314
X10.6175Y-4.423
X10.6175Y-4.5321
X10.6175Y-4.6411
X10.6175Y-4.7502
X10.6175Y-4.8593
X10.6175Y-4.9683
X10.6175Y-5.0774
X10.6175Y-5.1864
X10.6175Y-5.2955
X2.15Y-2.9
X2.15Y-3.0
X2.25Y-2.9
X2.25Y-3.0
X2.35Y-2.9
X2.35Y-3.0
X2.45Y-2.9
X2.45Y-3.0
X2.55Y-2.9
X2.55Y-3.0
X2.65Y-2.9
X2.65Y-3.0
X2.75Y-2.9
X2.75Y-3.0
X2.85Y-2.9
X2.85Y-3.0
X2.95Y-2.9
X2.95Y-3.0
X3.05Y-2.9
X3.05Y-3.0
X3.15Y-2.9
X3.15Y-3.0
X3.25Y-2.9
X3.25Y-3.0
X3.35Y-2.9
X3.35Y-3.0
X3.45Y-2.9
X3.45Y-3.0
X3.55Y-2.9
X3.55Y-3.0
X3.65Y-2.9
X3.65Y-3.0
X3.75Y-2.9
X3.75Y-3.0
X3.85Y-2.9
X3.85Y-3.0
X3.95Y-2.9
X3.95Y-3.0
X4.05Y-2.9
X4.05Y-3.0
X4.15Y-2.9
X4.15Y-3.0
X4.25Y-2.9
X4.25Y-3.0
X4.35Y-2.9
X4.35Y-3.0
X4.45Y-2.9
X4.45Y-3.0
X4.55Y-2.9
X4.55Y-3.0
X4.65Y-2.9
X4.65Y-3.0
X4.75Y-2.9
X4.75Y-3.0
X4.85Y-2.9
X4.85Y-3.0
X4.95Y-2.9
X4.95Y-3.0
X5.05Y-2.9
X5.05Y-3.0
X5.15Y-2.9
X5.15Y-3.0
X5.25Y-2.9
X5.25Y-3.0
X5.35Y-2.9
X5.35Y-3.0
X5.45Y-2.9
X5.45Y-3.0
X5.55Y-2.9
X5.55Y-3.0
X5.65Y-2.9
X5.65Y-3.0
X5.75Y-2.9
X5.75Y-3.0
X5.85Y-2.9
X5.85Y-3.0
X5.95Y-2.9
X5.95Y-3.0
X6.05Y-2.9
X6.05Y-3.0
X2.15Y-4.1
X2.15Y-4.2
X2.25Y-4.1
X2.25Y-4.2
X2.35Y-4.1
X2.35Y-4.2
X2.45Y-4.1
X2.45Y-4.2
X2.55Y-4.1
X2.55Y-4.2
X2.65Y-4.1
X2.65Y-4.2
X2.75Y-4.1
X2.75Y-4.2
X2.85Y-4.1
X2.85Y-4.2
X2.95Y-4.1
X2.95Y-4.2
X3.05Y-4.1
X3.05Y-4.2
X3.15Y-4.1
X3.15Y-4.2
X3.25Y-4.1
X3.25Y-4.2
X3.35Y-4.1
X3.35Y-4.2
X3.45Y-4.1
X3.45Y-4.2
X3.55Y-4.1
X3.55Y-4.2
X3.65Y-4.1
X3.65Y-4.2
X3.75Y-4.1
X3.75Y-4.2
X3.85Y-4.1
X3.85Y-4.2
X3.95Y-4.1
X3.95Y-4.2
X4.05Y-4.1
X4.05Y-4.2
X4.15Y-4.1
X4.15Y-4.2
X4.25Y-4.1
X4.25Y-4.2
X4.35Y-4.1
X4.35Y-4.2
X4.45Y-4.1
X4.45Y-4.2
X4.55Y-4.1
X4.55Y-4.2
X4.65Y-4.1
X4.65Y-4.2
X4.75Y-4.1
X4.75Y-4.2
X4.85Y-4.1
X4.85Y-4.2
X4.95Y-4.1
X4.95Y-4.2
X5.05Y-4.1
X5.05Y-4.2
X5.15Y-4.1
X5.15Y-4.2
X5.25Y-4.1
X5.25Y-4.2
X5.35Y-4.1
X5.35Y-4.2
X5.45Y-4.1
X5.45Y-4.2
X5.55Y-4.1
X5.55Y-4.2
X5.65Y-4.1
X5.65Y-4.2
X5.75Y-4.1
X5.75Y-4.2
X5.85Y-4.1
X5.85Y-4.2
X5.95Y-4.1
X5.95Y-4.2
X6.05Y-4.1
X6.05Y-4.2
X2.15Y-4.7
X2.15Y-4.8
X2.25Y-4.7
X2.25Y-4.8
X2.35Y-4.7
X2.35Y-4.8
X2.45Y-4.7
X2.45Y-4.8
X2.55Y-4.7
X2.55Y-4.8
X2.65Y-4.7
X2.65Y-4.8
X2.75Y-4.7
X2.75Y-4.8
X2.85Y-4.7
X2.85Y-4.8
X2.95Y-4.7
X2.95Y-4.8
X3.05Y-4.7
X3.05Y-4.8
X3.15Y-4.7
X3.15Y-4.8
X3.25Y-4.7
X3.25Y-4.8
X3.35Y-4.7
X3.35Y-4.8
X3.45Y-4.7
X3.45Y-4.8
X3.55Y-4.7
X3.55Y-4.8
X3.65Y-4.7
X3.65Y-4.8
X3.75Y-4.7
X3.75Y-4.8
X3.85Y-4.7
X3.85Y-4.8
X3.95Y-4.7
X3.95Y-4.8
X4.05Y-4.7
X4.05Y-4.8
X4.15Y-4.7
X4.15Y-4.8
X4.25Y-4.7
X4.25Y-4.8
X4.35Y-4.7
X4.35Y-4.8
X4.45Y-4.7
X4.45Y-4.8
X4.55Y-4.7
X4.55Y-4.8
X4.65Y-4.7
X4.65Y-4.8
X4.75Y-4.7
X4.75Y-4.8
X4.85Y-4.7
X4.85Y-4.8
X4.95Y-4.7
X4.95Y-4.8
X5.05Y-4.7
X5.05Y-4.8
X5.15Y-4.7
X5.15Y-4.8
X5.25Y-4.7
X5.25Y-4.8
X5.35Y-4.7
X5.35Y-4.8
X5.45Y-4.7
X5.45Y-4.8
X5.55Y-4.7
X5.55Y-4.8
X5.65Y-4.7
X5.65Y-4.8
X5.75Y-4.7
X5.75Y-4.8
X5.85Y-4.7
X5.85Y-4.8
X5.95Y-4.7
X5.95Y-4.8
X6.05Y-4.7
X6.05Y-4.8
X6.15Y-3.1
X6.15Y-3.2
X6.25Y-3.1
X6.25Y-3.2
X6.35Y-3.1
X6.35Y-3.2
X6.45Y-3.1
X6.45Y-3.2
X6.55Y-3.1
X6.55Y-3.2
X6.65Y-3.1
X6.65Y-3.2
X6.75Y-3.1
X6.75Y-3.2
X6.85Y-3.1
X6.85Y-3.2
X6.95Y-3.1
X6.95Y-3.2
X7.05Y-3.1
X7.05Y-3.2
X7.15Y-3.1
X7.15Y-3.2
X7.25Y-3.1
X7.25Y-3.2
X7.35Y-3.1
X7.35Y-3.2
X7.45Y-3.1
X7.45Y-3.2
X7.55Y-3.1
X7.55Y-3.2
X7.65Y-3.1
X7.65Y-3.2
X7.75Y-3.1
X7.75Y-3.2
X7.85Y-3.1
X7.85Y-3.2
X7.95Y-3.1
X7.95Y-3.2
X8.05Y-3.1
X8.05Y-3.2
X8.15Y-3.1
X8.15Y-3.2
X8.25Y-3.1
X8.25Y-3.2
X8.35Y-3.1
X8.35Y-3.2
X8.45Y-3.1
X8.45Y-3.2
X8.55Y-3.1
X8.55Y-3.2
X8.65Y-3.1
X8.65Y-3.2
X8.75Y-3.1
X8.75Y-3.2
X8.85Y-3.1
X8.85Y-3.2
X8.95Y-3.1
X8.95Y-3.2
X9.05Y-3.1
X9.05Y-3.2
X9.15Y-3.1
X9.15Y-3.2
X9.25Y-3.1
X9.25Y-3.2
X9.35Y-3.1
X9.35Y-3.2
X9.45Y-3.1
X9.45Y-3.2
X9.55Y-3.1
X9.55Y-3.2
X9.65Y-3.1
X9.65Y-3.2
X9.75Y-3.1
X9.75Y-3.2
X9.85Y-3.1
X9.85Y-3.2
X9.95Y-3.1
X9.95Y-3.2
X10.05Y-3.1
X10.05Y-3.2
X1.95Y-2.1
X1.95Y-2.2
X1.95Y-2.3
X1.95Y-2.4
X1.95Y-2.5
X1.95Y-2.6
X1.95Y-2.7
X1.95Y-2.8
X1.95Y-2.9
X1.95Y-3.0
X1.95Y-3.1
X1.95Y-3.2
X1.95Y-3.3
X1.95Y-3.4
X1.95Y-3.5
X1.95Y-3.6
X1.95Y-3.7
X1.95Y-3.8
X1.95Y-3.9
X1.95Y-4.0
X1.95Y-4.1
X1.95Y-4.2
X1.95Y-4.3
X1.95Y-4.4
X1.95Y-4.5
X1.95Y-4.6
X1.95Y-4.7
X1.95Y-4.8
X1.95Y-4.9
X1.95Y-5.0
X1.95Y-5.1
X1.95Y-5.2
X1.95Y-5.3
X1.95Y-5.4
X2.05Y-2.1
X2.05Y-2.2
X2.05Y-2.3
X2.05Y-2.4
X2.05Y-2.5
X2.05Y-2.6
X2.05Y-2.7
X2.05Y-2.8
X2.05Y-2.9
X2.05Y-3.0
X2.05Y-3.1
X2.05Y-3.2
X2.05Y-3.3
X2.05Y-3.4
X2.05Y-3.5
X2.05Y-3.6
X2.05Y-3.7
X2.05Y-3.8
X2.05Y-3.9
X2.05Y-4.0
X2.05Y-4.1
X2.05Y-4.2
X2.05Y-4.3
X2.05Y-4.4
X2.05Y-4.5
X2.05Y-4.6
X2.05Y-4.7
X2.05Y-4.8
X2.05Y-4.9
X2.05Y-5.0
X2.05Y-5.1
X2.05Y-5.2
X2.05Y-5.3
X2.05Y-5.4
X1.55Y-2.1
X1.55Y-2.2
X1.55Y-2.3
X1.55Y-2.4
X1.55Y-2.5
X1.55Y-2.6
X1.55Y-2.7
X1.55Y-2.8
X1.55Y-2.9
X1.55Y-3.0
X1.55Y-3.1
X1.55Y-3.2
X1.55Y-3.3
X1.55Y-3.4
X1.55Y-3.5
X1.55Y-3.6
X1.55Y-3.7
X1.55Y-3.8
X1.55Y-3.9
X1.55Y-4.0
X1.55Y-4.1
X1.55Y-4.2
X1.55Y-4.3
X1.55Y-4.4
X1.55Y-4.5
X1.55Y-4.6
X1.55Y-4.7
X1.55Y-4.8
X1.55Y-4.9
X1.55Y-5.0
X1.55Y-5.1
X1.55Y-5.2
X1.55Y-5.3
X1.55Y-5.4
X1.65Y-2.1
X1.65Y-2.2
X1.65Y-2.3
X1.65Y-2.4
X1.65Y-2.5
X1.65Y-2.6
X1.65Y-2.7
X1.65Y-2.8
X1.65Y-2.9
X1.65Y-3.0
X1.65Y-3.1
X1.65Y-3.2
X1.65Y-3.3
X1.65Y-3.4
X1.65Y-3.5
X1.65Y-3.6
X1.65Y-3.7
X1.65Y-3.8
X1.65Y-3.9
X1.65Y-4.0
X1.65Y-4.1
X1.65Y-4.2
X1.65Y-4.3
X1.65Y-4.4
X1.65Y-4.5
X1.65Y-4.6
X1.65Y-4.7
X1.65Y-4.8
X1.65Y-4.9
X1.65Y-5.0
X1.65Y-5.1
X1.65Y-5.2
X1.65Y-5.3
X1.65Y-5.4
X2.15Y-3.7
X2.15Y-3.8
X2.25Y-3.7
X2.25Y-3.8
X2.35Y-3.7
X2.35Y-3.8
X2.45Y-3.7
X2.45Y-3.8
X2.55Y-3.7
X2.55Y-3.8
X2.65Y-3.7
X2.65Y-3.8
X2.75Y-3.7
X2.75Y-3.8
X2.85Y-3.7
X2.85Y-3.8
X2.95Y-3.7
X2.95Y-3.8
X3.05Y-3.7
X3.05Y-3.8
X3.15Y-3.7
X3.15Y-3.8
X3.25Y-3.7
X3.25Y-3.8
X3.35Y-3.7
X3.35Y-3.8
X3.45Y-3.7
X3.45Y-3.8
X3.55Y-3.7
X3.55Y-3.8
X3.65Y-3.7
X3.65Y-3.8
X3.75Y-3.7
X3.75Y-3.8
X3.85Y-3.7
X3.85Y-3.8
X3.95Y-3.7
X3.95Y-3.8
X4.05Y-3.7
X4.05Y-3.8
X4.15Y-3.7
X4.15Y-3.8
X4.25Y-3.7
X4.25Y-3.8
X4.35Y-3.7
X4.35Y-3.8
X4.45Y-3.7
X4.45Y-3.8
X4.55Y-3.7
X4.55Y-3.8
X4.65Y-3.7
X4.65Y-3.8
X4.75Y-3.7
X4.75Y-3.8
X4.85Y-3.7
X4.85Y-3.8
X4.95Y-3.7
X4.95Y-3.8
X5.05Y-3.7
X5.05Y-3.8
X5.15Y-3.7
X5.15Y-3.8
X5.25Y-3.7
X5.25Y-3.8
X5.35Y-3.7
X5.35Y-3.8
X5.45Y-3.7
X5.45Y-3.8
X5.55Y-3.7
X5.55Y-3.8
X5.65Y-3.7
X5.65Y-3.8
X5.75Y-3.7
X5.75Y-3.8
X5.85Y-3.7
X5.85Y-3.8
X5.95Y-3.7
X5.95Y-3.8
X6.05Y-3.7
X6.05Y-3.8
X2.15Y-4.3
X2.15Y-4.4
X2.25Y-4.3
X2.25Y-4.4
X2.35Y-4.3
X2.35Y-4.4
X2.45Y-4.3
X2.45Y-4.4
X2.55Y-4.3
X2.55Y-4.4
X2.65Y-4.3
X2.65Y-4.4
X2.75Y-4.3
X2.75Y-4.4
X2.85Y-4.3
X2.85Y-4.4
X2.95Y-4.3
X2.95Y-4.4
X3.05Y-4.3
X3.05Y-4.4
X3.15Y-4.3
X3.15Y-4.4
X3.25Y-4.3
X3.25Y-4.4
X3.35Y-4.3
X3.35Y-4.4
X3.45Y-4.3
X3.45Y-4.4
X3.55Y-4.3
X3.55Y-4.4
X3.65Y-4.3
X3.65Y-4.4
X3.75Y-4.3
X3.75Y-4.4
X3.85Y-4.3
X3.85Y-4.4
X3.95Y-4.3
X3.95Y-4.4
X4.05Y-4.3
X4.05Y-4.4
X4.15Y-4.3
X4.15Y-4.4
X4.25Y-4.3
X4.25Y-4.4
X4.35Y-4.3
X4.35Y-4.4
X4.45Y-4.3
X4.45Y-4.4
X4.55Y-4.3
X4.55Y-4.4
X4.65Y-4.3
X4.65Y-4.4
X4.75Y-4.3
X4.75Y-4.4
X4.85Y-4.3
X4.85Y-4.4
X4.95Y-4.3
X4.95Y-4.4
X5.05Y-4.3
X5.05Y-4.4
X5.15Y-4.3
X5.15Y-4.4
X5.25Y-4.3
X5.25Y-4.4
X5.35Y-4.3
X5.35Y-4.4
X5.45Y-4.3
X5.45Y-4.4
X5.55Y-4.3
X5.55Y-4.4
X5.65Y-4.3
X5.65Y-4.4
X5.75Y-4.3
X5.75Y-4.4
X5.85Y-4.3
X5.85Y-4.4
X5.95Y-4.3
X5.95Y-4.4
X6.05Y-4.3
X6.05Y-4.4
X6.15Y-2.1
X6.15Y-2.2
X6.25Y-2.1
X6.25Y-2.2
X6.35Y-2.1
X6.35Y-2.2
X6.45Y-2.1
X6.45Y-2.2
X6.55Y-2.1
X6.55Y-2.2
X6.65Y-2.1
X6.65Y-2.2
X6.75Y-2.1
X6.75Y-2.2
X6.85Y-2.1
X6.85Y-2.2
X6.95Y-2.1
X6.95Y-2.2
X7.05Y-2.1
X7.05Y-2.2
X7.15Y-2.1
X7.15Y-2.2
X7.25Y-2.1
X7.25Y-2.2
X7.35Y-2.1
X7.35Y-2.2
X7.45Y-2.1
X7.45Y-2.2
X7.55Y-2.1
X7.55Y-2.2
X7.65Y-2.1
X7.65Y-2.2
X7.75Y-2.1
X7.75Y-2.2
X7.85Y-2.1
X7.85Y-2.2
X7.95Y-2.1
X7.95Y-2.2
X8.05Y-2.1
X8.05Y-2.2
X8.15Y-2.1
X8.15Y-2.2
X8.25Y-2.1
X8.25Y-2.2
X8.35Y-2.1
X8.35Y-2.2
X8.45Y-2.1
X8.45Y-2.2
X8.55Y-2.1
X8.55Y-2.2
X8.65Y-2.1
X8.65Y-2.2
X8.75Y-2.1
X8.75Y-2.2
X8.85Y-2.1
X8.85Y-2.2
X8.95Y-2.1
X8.95Y-2.2
X9.05Y-2.1
X9.05Y-2.2
X9.15Y-2.1
X9.15Y-2.2
X9.25Y-2.1
X9.25Y-2.2
X9.35Y-2.1
X9.35Y-2.2
X9.45Y-2.1
X9.45Y-2.2
X9.55Y-2.1
X9.55Y-2.2
X9.65Y-2.1
X9.65Y-2.2
X9.75Y-2.1
X9.75Y-2.2
X9.85Y-2.1
X9.85Y-2.2
X9.95Y-2.1
X9.95Y-2.2
X10.05Y-2.1
X10.05Y-2.2
X1.15Y-2.1
X1.15Y-2.2
X1.15Y-2.3
X1.15Y-2.4
X1.15Y-2.5
X1.15Y-2.6
X1.15Y-2.7
X1.15Y-2.8
X1.15Y-2.9
X1.15Y-3.0
X1.15Y-3.1
X1.15Y-3.2
X1.15Y-3.3
X1.15Y-3.4
X1.15Y-3.5
X1.15Y-3.6
X1.15Y-3.7
X1.15Y-3.8
X1.15Y-3.9
X1.15Y-4.0
X1.15Y-4.1
X1.15Y-4.2
X1.15Y-4.3
X1.15Y-4.4
X1.15Y-4.5
X1.15Y-4.6
X1.15Y-4.7
X1.15Y-4.8
X1.15Y-4.9
X1.15Y-5.0
X1.15Y-5.1
X1.15Y-5.2
X1.15Y-5.3
X1.15Y-5.4
X1.25Y-2.1
X1.25Y-2.2
X1.25Y-2.3
X1.25Y-2.4
X1.25Y-2.5
X1.25Y-2.6
X1.25Y-2.7
X1.25Y-2.8
X1.25Y-2.9
X1.25Y-3.0
X1.25Y-3.1
X1.25Y-3.2
X1.25Y-3.3
X1.25Y-3.4
X1.25Y-3.5
X1.25Y-3.6
X1.25Y-3.7
X1.25Y-3.8
X1.25Y-3.9
X1.25Y-4.0
X1.25Y-4.1
X1.25Y-4.2
X1.25Y-4.3
X1.25Y-4.4
X1.25Y-4.5
X1.25Y-4.6
X1.25Y-4.7
X1.25Y-4.8
X1.25Y-4.9
X1.25Y-5.0
X1.25Y-5.1
X1.25Y-5.2
X1.25Y-5.3
X1.25Y-5.4
X6.15Y-3.3
X6.15Y-3.4
X6.25Y-3.3
X6.25Y-3.4
X6.35Y-3.3
X6.35Y-3.4
X6.45Y-3.3
X6.45Y-3.4
X6.55Y-3.3
X6.55Y-3.4
X6.65Y-3.3
X6.65Y-3.4
X6.75Y-3.3
X6.75Y-3.4
X6.85Y-3.3
X6.85Y-3.4
X6.95Y-3.3
X6.95Y-3.4
X7.05Y-3.3
X7.05Y-3.4
X7.15Y-3.3
X7.15Y-3.4
X7.25Y-3.3
X7.25Y-3.4
X7.35Y-3.3
X7.35Y-3.4
X7.45Y-3.3
X7.45Y-3.4
X7.55Y-3.3
X7.55Y-3.4
X7.65Y-3.3
X7.65Y-3.4
X7.75Y-3.3
X7.75Y-3.4
X7.85Y-3.3
X7.85Y-3.4
X7.95Y-3.3
X7.95Y-3.4
X8.05Y-3.3
X8.05Y-3.4
X8.15Y-3.3
X8.15Y-3.4
X8.25Y-3.3
X8.25Y-3.4
X8.35Y-3.3
X8.35Y-3.4
X8.45Y-3.3
X8.45Y-3.4
X8.55Y-3.3
X8.55Y-3.4
X8.65Y-3.3
X8.65Y-3.4
X8.75Y-3.3
X8.75Y-3.4
X8.85Y-3.3
X8.85Y-3.4
X8.95Y-3.3
X8.95Y-3.4
X9.05Y-3.3
X9.05Y-3.4
X9.15Y-3.3
X9.15Y-3.4
X9.25Y-3.3
X9.25Y-3.4
X9.35Y-3.3
X9.35Y-3.4
X9.45Y-3.3
X9.45Y-3.4
X9.55Y-3.3
X9.55Y-3.4
X9.65Y-3.3
X9.65Y-3.4
X9.75Y-3.3
X9.75Y-3.4
X9.85Y-3.3
X9.85Y-3.4
X9.95Y-3.3
X9.95Y-3.4
X10.05Y-3.3
X10.05Y-3.4
X10.2Y-4.1
X10.2Y-4.2
X10.2Y-4.3
X10.2Y-4.4
X10.2Y-4.5
X10.2Y-4.6
X10.2Y-4.7
X10.2Y-4.8
X10.2Y-4.9
X10.2Y-5.0
X10.2Y-5.1
X10.2Y-5.2
X10.2Y-5.3
X10.3Y-4.1
X10.3Y-4.2
X10.3Y-4.3
X10.3Y-4.4
X10.3Y-4.5
X10.3Y-4.6
X10.3Y-4.7
X10.3Y-4.8
X10.3Y-4.9
X10.3Y-5.0
X10.3Y-5.1
X10.3Y-5.2
X10.3Y-5.3
X1.35Y-2.1
X1.35Y-2.2
X1.35Y-2.3
X1.35Y-2.4
X1.35Y-2.5
X1.35Y-2.6
X1.35Y-2.7
X1.35Y-2.8
X1.35Y-2.9
X1.35Y-3.0
X1.35Y-3.1
X1.35Y-3.2
X1.35Y-3.3
X1.35Y-3.4
X1.35Y-3.5
X1.35Y-3.6
X1.35Y-3.7
X1.35Y-3.8
X1.35Y-3.9
X1.35Y-4.0
X1.35Y-4.1
X1.35Y-4.2
X1.35Y-4.3
X1.35Y-4.4
X1.35Y-4.5
X1.35Y-4.6
X1.35Y-4.7
X1.35Y-4.8
X1.35Y-4.9
X1.35Y-5.0
X1.35Y-5.1
X1.35Y-5.2
X1.35Y-5.3
X1.35Y-5.4
X1.45Y-2.1
X1.45Y-2.2
X1.45Y-2.3
X1.45Y-2.4
X1.45Y-2.5
X1.45Y-2.6
X1.45Y-2.7
X1.45Y-2.8
X1.45Y-2.9
X1.45Y-3.0
X1.45Y-3.1
X1.45Y-3.2
X1.45Y-3.3
X1.45Y-3.4
X1.45Y-3.5
X1.45Y-3.6
X1.45Y-3.7
X1.45Y-3.8
X1.45Y-3.9
X1.45Y-4.0
X1.45Y-4.1
X1.45Y-4.2
X1.45Y-4.3
X1.45Y-4.4
X1.45Y-4.5
X1.45Y-4.6
X1.45Y-4.7
X1.45Y-4.8
X1.45Y-4.9
X1.45Y-5.0
X1.45Y-5.1
X1.45Y-5.2
X1.45Y-5.3
X1.45Y-5.4
X2.15Y-2.7
X2.15Y-2.8
X2.25Y-2.7
X2.25Y-2.8
X2.35Y-2.7
X2.35Y-2.8
X2.45Y-2.7
X2.45Y-2.8
X2.55Y-2.7
X2.55Y-2.8
X2.65Y-2.7
X2.65Y-2.8
X2.75Y-2.7
X2.75Y-2.8
X2.85Y-2.7
X2.85Y-2.8
X2.95Y-2.7
X2.95Y-2.8
X3.05Y-2.7
X3.05Y-2.8
X3.15Y-2.7
X3.15Y-2.8
X3.25Y-2.7
X3.25Y-2.8
X3.35Y-2.7
X3.35Y-2.8
X3.45Y-2.7
X3.45Y-2.8
X3.55Y-2.7
X3.55Y-2.8
X3.65Y-2.7
X3.65Y-2.8
X3.75Y-2.7
X3.75Y-2.8
X3.85Y-2.7
X3.85Y-2.8
X3.95Y-2.7
X3.95Y-2.8
X4.05Y-2.7
X4.05Y-2.8
X4.15Y-2.7
X4.15Y-2.8
X4.25Y-2.7
X4.25Y-2.8
X4.35Y-2.7
X4.35Y-2.8
X4.45Y-2.7
X4.45Y-2.8
X4.55Y-2.7
X4.55Y-2.8
X4.65Y-2.7
X4.65Y-2.8
X4.75Y-2.7
X4.75Y-2.8
X4.85Y-2.7
X4.85Y-2.8
X4.95Y-2.7
X4.95Y-2.8
X5.05Y-2.7
X5.05Y-2.8
X5.15Y-2.7
X5.15Y-2.8
X5.25Y-2.7
X5.25Y-2.8
X5.35Y-2.7
X5.35Y-2.8
X5.45Y-2.7
X5.45Y-2.8
X5.55Y-2.7
X5.55Y-2.8
X5.65Y-2.7
X5.65Y-2.8
X5.75Y-2.7
X5.75Y-2.8
X5.85Y-2.7
X5.85Y-2.8
X5.95Y-2.7
X5.95Y-2.8
X6.05Y-2.7
X6.05Y-2.8
X6.15Y-2.3
X6.15Y-2.4
X6.25Y-2.3
X6.25Y-2.4
X6.35Y-2.3
X6.35Y-2.4
X6.45Y-2.3
X6.45Y-2.4
X6.55Y-2.3
X6.55Y-2.4
X6.65Y-2.3
X6.65Y-2.4
X6.75Y-2.3
X6.75Y-2.4
X6.85Y-2.3
X6.85Y-2.4
X6.95Y-2.3
X6.95Y-2.4
X7.05Y-2.3
X7.05Y-2.4
X7.15Y-2.3
X7.15Y-2.4
X7.25Y-2.3
X7.25Y-2.4
X7.35Y-2.3
X7.35Y-2.4
X7.45Y-2.3
X7.45Y-2.4
X7.55Y-2.3
X7.55Y-2.4
X7.65Y-2.3
X7.65Y-2.4
X7.75Y-2.3
X7.75Y-2.4
X7.85Y-2.3
X7.85Y-2.4
X7.95Y-2.3
X7.95Y-2.4
X8.05Y-2.3
X8.05Y-2.4
X8.15Y-2.3
X8.15Y-2.4
X8.25Y-2.3
X8.25Y-2.4
X8.35Y-2.3
X8.35Y-2.4
X8.45Y-2.3
X8.45Y-2.4
X8.55Y-2.3
X8.55Y-2.4
X8.65Y-2.3
X8.65Y-2.4
X8.75Y-2.3
X8.75Y-2.4
X8.85Y-2.3
X8.85Y-2.4
X8.95Y-2.3
X8.95Y-2.4
X9.05Y-2.3
X9.05Y-2.4
X9.15Y-2.3
X9.15Y-2.4
X9.25Y-2.3
X9.25Y-2.4
X9.35Y-2.3
X9.35Y-2.4
X9.45Y-2.3
X9.45Y-2.4
X9.55Y-2.3
X9.55Y-2.4
X9.65Y-2.3
X9.65Y-2.4
X9.75Y-2.3
X9.75Y-2.4
X9.85Y-2.3
X9.85Y-2.4
X9.95Y-2.3
X9.95Y-2.4
X10.05Y-2.3
X10.05Y-2.4
X6.15Y-2.5
X6.15Y-2.6
X6.25Y-2.5
X6.25Y-2.6
X6.35Y-2.5
X6.35Y-2.6
X6.45Y-2.5
X6.45Y-2.6
X6.55Y-2.5
X6.55Y-2.6
X6.65Y-2.5
X6.65Y-2.6
X6.75Y-2.5
X6.75Y-2.6
X6.85Y-2.5
X6.85Y-2.6
X6.95Y-2.5
X6.95Y-2.6
X7.05Y-2.5
X7.05Y-2.6
X7.15Y-2.5
X7.15Y-2.6
X7.25Y-2.5
X7.25Y-2.6
X7.35Y-2.5
X7.35Y-2.6
X7.45Y-2.5
X7.45Y-2.6
X7.55Y-2.5
X7.55Y-2.6
X7.65Y-2.5
X7.65Y-2.6
X7.75Y-2.5
X7.75Y-2.6
X7.85Y-2.5
X7.85Y-2.6
X7.95Y-2.5
X7.95Y-2.6
X8.05Y-2.5
X8.05Y-2.6
X8.15Y-2.5
X8.15Y-2.6
X8.25Y-2.5
X8.25Y-2.6
X8.35Y-2.5
X8.35Y-2.6
X8.45Y-2.5
X8.45Y-2.6
X8.55Y-2.5
X8.55Y-2.6
X8.65Y-2.5
X8.65Y-2.6
X8.75Y-2.5
X8.75Y-2.6
X8.85Y-2.5
X8.85Y-2.6
X8.95Y-2.5
X8.95Y-2.6
X9.05Y-2.5
X9.05Y-2.6
X9.15Y-2.5
X9.15Y-2.6
X9.25Y-2.5
X9.25Y-2.6
X9.35Y-2.5
X9.35Y-2.6
X9.45Y-2.5
X9.45Y-2.6
X9.55Y-2.5
X9.55Y-2.6
X9.65Y-2.5
X9.65Y-2.6
X9.75Y-2.5
X9.75Y-2.6
X9.85Y-2.5
X9.85Y-2.6
X9.95Y-2.5
X9.95Y-2.6
X10.05Y-2.5
X10.05Y-2.6
T2
X10.5168Y-2.4498
X10.5168Y-3.434
X10.5175Y-3.7685
X10.5175Y-5.6228
T0
M30
