%TF.GenerationSoftware,KiCad,Pcbnew,(5.1.6)-1*%
%TF.CreationDate,2020-12-12T21:33:40-06:00*%
%TF.ProjectId,ISA-Proto_20201212,4953412d-5072-46f7-946f-5f3230323031,rev?*%
%TF.SameCoordinates,Original*%
%TF.FileFunction,Copper,L1,Top*%
%TF.FilePolarity,Positive*%
%FSLAX46Y46*%
G04 Gerber Fmt 4.6, Leading zero omitted, Abs format (unit mm)*
G04 Created by KiCad (PCBNEW (5.1.6)-1) date 2020-12-12 21:33:40*
%MOMM*%
%LPD*%
G01*
G04 APERTURE LIST*
%TA.AperFunction,NonConductor*%
%ADD10C,0.254000*%
%TD*%
%TA.AperFunction,EtchedComponent*%
%ADD11C,0.381000*%
%TD*%
%TA.AperFunction,ComponentPad*%
%ADD12O,1.700000X1.700000*%
%TD*%
%TA.AperFunction,ComponentPad*%
%ADD13R,1.700000X1.700000*%
%TD*%
%TA.AperFunction,ComponentPad*%
%ADD14C,1.700000*%
%TD*%
%TA.AperFunction,ComponentPad*%
%ADD15C,4.000000*%
%TD*%
%TA.AperFunction,ComponentPad*%
%ADD16C,1.600000*%
%TD*%
%TA.AperFunction,ComponentPad*%
%ADD17R,1.600000X1.600000*%
%TD*%
%TA.AperFunction,ConnectorPad*%
%ADD18R,1.780000X7.620000*%
%TD*%
%TA.AperFunction,Conductor*%
%ADD19C,0.406400*%
%TD*%
G04 APERTURE END LIST*
D10*
X159977666Y-136806214D02*
X160606619Y-136806214D01*
X160213523Y-136255880D02*
X160213523Y-137671023D01*
X160292142Y-137828261D01*
X160449380Y-137906880D01*
X160606619Y-137906880D01*
X161785904Y-137828261D02*
X161628666Y-137906880D01*
X161314190Y-137906880D01*
X161156952Y-137828261D01*
X161078333Y-137671023D01*
X161078333Y-137042071D01*
X161156952Y-136884833D01*
X161314190Y-136806214D01*
X161628666Y-136806214D01*
X161785904Y-136884833D01*
X161864523Y-137042071D01*
X161864523Y-137199309D01*
X161078333Y-137356547D01*
X163279666Y-137828261D02*
X163122428Y-137906880D01*
X162807952Y-137906880D01*
X162650714Y-137828261D01*
X162572095Y-137749642D01*
X162493476Y-137592404D01*
X162493476Y-137120690D01*
X162572095Y-136963452D01*
X162650714Y-136884833D01*
X162807952Y-136806214D01*
X163122428Y-136806214D01*
X163279666Y-136884833D01*
X163987238Y-137906880D02*
X163987238Y-136255880D01*
X164694809Y-137906880D02*
X164694809Y-137042071D01*
X164616190Y-136884833D01*
X164458952Y-136806214D01*
X164223095Y-136806214D01*
X164065857Y-136884833D01*
X163987238Y-136963452D01*
X166188571Y-137906880D02*
X166188571Y-137042071D01*
X166109952Y-136884833D01*
X165952714Y-136806214D01*
X165638238Y-136806214D01*
X165481000Y-136884833D01*
X166188571Y-137828261D02*
X166031333Y-137906880D01*
X165638238Y-137906880D01*
X165481000Y-137828261D01*
X165402380Y-137671023D01*
X165402380Y-137513785D01*
X165481000Y-137356547D01*
X165638238Y-137277928D01*
X166031333Y-137277928D01*
X166188571Y-137199309D01*
X166817523Y-136806214D02*
X167210619Y-137906880D01*
X167603714Y-136806214D01*
D11*
%TO.C,REF\u002A\u002A*%
X159865200Y-131814900D02*
X159766140Y-131715840D01*
X159766140Y-131715840D02*
X159565480Y-131614240D01*
X159565480Y-131614240D02*
X159265760Y-131614240D01*
X159265760Y-131614240D02*
X158966040Y-131715840D01*
X158966040Y-131715840D02*
X158765380Y-132114620D01*
X158765380Y-132114620D02*
X158663780Y-132615000D01*
X158663780Y-132615000D02*
X158663780Y-133013780D01*
X158663780Y-133013780D02*
X158864440Y-133415100D01*
X158864440Y-133415100D02*
X159265760Y-133615760D01*
X159265760Y-133615760D02*
X159463880Y-133615760D01*
X159463880Y-133615760D02*
X159766140Y-133615760D01*
X159766140Y-133615760D02*
X159865200Y-133415100D01*
X157866220Y-131814900D02*
X157764620Y-131715840D01*
X157764620Y-131715840D02*
X157464900Y-131614240D01*
X157464900Y-131614240D02*
X157066120Y-131715840D01*
X157066120Y-131715840D02*
X156763860Y-131913960D01*
X156763860Y-131913960D02*
X156664800Y-132315280D01*
X156664800Y-132315280D02*
X156664800Y-132714060D01*
X156664800Y-132714060D02*
X156763860Y-133214440D01*
X156763860Y-133214440D02*
X156964520Y-133514160D01*
X156964520Y-133514160D02*
X157264240Y-133615760D01*
X157264240Y-133615760D02*
X157665560Y-133615760D01*
X157665560Y-133615760D02*
X157866220Y-133415100D01*
X158265000Y-130115640D02*
X158165940Y-130115640D01*
X158165940Y-130115640D02*
X157563960Y-130214700D01*
X157563960Y-130214700D02*
X157066120Y-130415360D01*
X157066120Y-130415360D02*
X156565740Y-130814140D01*
X156565740Y-130814140D02*
X156065360Y-131416120D01*
X156065360Y-131416120D02*
X155864700Y-131814900D01*
X155864700Y-131814900D02*
X155765640Y-132315280D01*
X155765640Y-132315280D02*
X155765640Y-132914720D01*
X155765640Y-132914720D02*
X155963760Y-133714820D01*
X155963760Y-133714820D02*
X156565740Y-134415860D01*
X156565740Y-134415860D02*
X157066120Y-134814640D01*
X157066120Y-134814640D02*
X157764620Y-135114360D01*
X157764620Y-135114360D02*
X158564720Y-135114360D01*
X158564720Y-135114360D02*
X159164160Y-134916240D01*
X159164160Y-134916240D02*
X159766140Y-134613980D01*
X159766140Y-134613980D02*
X160263980Y-134116140D01*
X160263980Y-134116140D02*
X160665300Y-133415100D01*
X160665300Y-133415100D02*
X160764360Y-132815660D01*
X160764360Y-132815660D02*
X160764360Y-132216220D01*
X160764360Y-132216220D02*
X160566240Y-131614240D01*
X160566240Y-131614240D02*
X160263980Y-131113860D01*
X160263980Y-131113860D02*
X159766140Y-130616020D01*
X159766140Y-130616020D02*
X159265760Y-130313760D01*
X159265760Y-130313760D02*
X158864440Y-130214700D01*
X158864440Y-130214700D02*
X158265000Y-130115640D01*
X168445180Y-133913880D02*
X168945560Y-134216140D01*
X168945560Y-134216140D02*
X169445940Y-134315200D01*
X169445940Y-134315200D02*
X169943780Y-134216140D01*
X169943780Y-134216140D02*
X170444160Y-134015480D01*
X170444160Y-134015480D02*
X170845480Y-133614160D01*
X170845480Y-133614160D02*
X171145200Y-133113780D01*
X171145200Y-133113780D02*
X171145200Y-132715000D01*
X171145200Y-132715000D02*
X171046140Y-132214620D01*
X171046140Y-132214620D02*
X170743880Y-131714240D01*
X170743880Y-131714240D02*
X170444160Y-131414520D01*
X170444160Y-131414520D02*
X169844720Y-131114800D01*
X169844720Y-131114800D02*
X169445940Y-131114800D01*
X169445940Y-131114800D02*
X169044620Y-131213860D01*
X169044620Y-131213860D02*
X168544240Y-131414520D01*
X169545000Y-130215640D02*
X169445940Y-130215640D01*
X169445940Y-130215640D02*
X168843960Y-130314700D01*
X168843960Y-130314700D02*
X168346120Y-130515360D01*
X168346120Y-130515360D02*
X167845740Y-130914140D01*
X167845740Y-130914140D02*
X167345360Y-131516120D01*
X167345360Y-131516120D02*
X167144700Y-131914900D01*
X167144700Y-131914900D02*
X167045640Y-132415280D01*
X167045640Y-132415280D02*
X167045640Y-133014720D01*
X167045640Y-133014720D02*
X167243760Y-133814820D01*
X167243760Y-133814820D02*
X167845740Y-134515860D01*
X167845740Y-134515860D02*
X168346120Y-134914640D01*
X168346120Y-134914640D02*
X169044620Y-135214360D01*
X169044620Y-135214360D02*
X169844720Y-135214360D01*
X169844720Y-135214360D02*
X170444160Y-135016240D01*
X170444160Y-135016240D02*
X171046140Y-134713980D01*
X171046140Y-134713980D02*
X171543980Y-134216140D01*
X171543980Y-134216140D02*
X171945300Y-133515100D01*
X171945300Y-133515100D02*
X172044360Y-132915660D01*
X172044360Y-132915660D02*
X172044360Y-132316220D01*
X172044360Y-132316220D02*
X171846240Y-131714240D01*
X171846240Y-131714240D02*
X171543980Y-131213860D01*
X171543980Y-131213860D02*
X171046140Y-130716020D01*
X171046140Y-130716020D02*
X170545760Y-130413760D01*
X170545760Y-130413760D02*
X170144440Y-130314700D01*
X170144440Y-130314700D02*
X169545000Y-130215640D01*
X163830000Y-130815080D02*
X163830000Y-131213860D01*
X163128960Y-132013960D02*
X164429440Y-132013960D01*
X164330380Y-132316220D02*
X163128960Y-132316220D01*
X163029900Y-132615940D02*
X164330380Y-132615940D01*
X163830000Y-133014720D02*
X163830000Y-134315200D01*
X163929060Y-134515860D02*
X164129720Y-134515860D01*
X164129720Y-134515860D02*
X164129720Y-132915660D01*
X163530280Y-133014720D02*
X163530280Y-134515860D01*
X163530280Y-134515860D02*
X164030660Y-134515860D01*
X163029900Y-131714240D02*
X164531040Y-131714240D01*
X164531040Y-131714240D02*
X164531040Y-132915660D01*
X164531040Y-132915660D02*
X163029900Y-132915660D01*
X163029900Y-132915660D02*
X163029900Y-131714240D01*
X164145666Y-131015740D02*
G75*
G03*
X164145666Y-131015740I-315666J0D01*
G01*
X163830000Y-130215640D02*
X163730940Y-130215640D01*
X163730940Y-130215640D02*
X163128960Y-130314700D01*
X163128960Y-130314700D02*
X162631120Y-130515360D01*
X162631120Y-130515360D02*
X162130740Y-130914140D01*
X162130740Y-130914140D02*
X161630360Y-131516120D01*
X161630360Y-131516120D02*
X161429700Y-131914900D01*
X161429700Y-131914900D02*
X161330640Y-132415280D01*
X161330640Y-132415280D02*
X161330640Y-133014720D01*
X161330640Y-133014720D02*
X161528760Y-133814820D01*
X161528760Y-133814820D02*
X162130740Y-134515860D01*
X162130740Y-134515860D02*
X162631120Y-134914640D01*
X162631120Y-134914640D02*
X163329620Y-135214360D01*
X163329620Y-135214360D02*
X164129720Y-135214360D01*
X164129720Y-135214360D02*
X164729160Y-135016240D01*
X164729160Y-135016240D02*
X165331140Y-134713980D01*
X165331140Y-134713980D02*
X165828980Y-134216140D01*
X165828980Y-134216140D02*
X166230300Y-133515100D01*
X166230300Y-133515100D02*
X166329360Y-132915660D01*
X166329360Y-132915660D02*
X166329360Y-132316220D01*
X166329360Y-132316220D02*
X166131240Y-131714240D01*
X166131240Y-131714240D02*
X165828980Y-131213860D01*
X165828980Y-131213860D02*
X165331140Y-130716020D01*
X165331140Y-130716020D02*
X164830760Y-130413760D01*
X164830760Y-130413760D02*
X164429440Y-130314700D01*
X164429440Y-130314700D02*
X163830000Y-130215640D01*
%TD*%
D12*
%TO.P,REF\u002A\u002A,10*%
%TO.N,N/C*%
X261620000Y-78740000D03*
%TO.P,REF\u002A\u002A,9*%
X259080000Y-78740000D03*
%TO.P,REF\u002A\u002A,8*%
X261620000Y-76200000D03*
%TO.P,REF\u002A\u002A,7*%
X259080000Y-76200000D03*
%TO.P,REF\u002A\u002A,6*%
X261620000Y-73660000D03*
%TO.P,REF\u002A\u002A,5*%
X259080000Y-73660000D03*
%TO.P,REF\u002A\u002A,4*%
X261620000Y-71120000D03*
%TO.P,REF\u002A\u002A,3*%
X259080000Y-71120000D03*
%TO.P,REF\u002A\u002A,2*%
X261620000Y-68580000D03*
D13*
%TO.P,REF\u002A\u002A,1*%
X259080000Y-68580000D03*
%TD*%
D12*
%TO.P,REF\u002A\u002A,26*%
%TO.N,N/C*%
X259080000Y-104140000D03*
%TO.P,REF\u002A\u002A,25*%
X261620000Y-104140000D03*
%TO.P,REF\u002A\u002A,24*%
X259080000Y-106680000D03*
%TO.P,REF\u002A\u002A,23*%
X261620000Y-106680000D03*
%TO.P,REF\u002A\u002A,22*%
X259080000Y-109220000D03*
%TO.P,REF\u002A\u002A,21*%
X261620000Y-109220000D03*
%TO.P,REF\u002A\u002A,20*%
X259080000Y-111760000D03*
%TO.P,REF\u002A\u002A,19*%
X261620000Y-111760000D03*
%TO.P,REF\u002A\u002A,18*%
X259080000Y-114300000D03*
%TO.P,REF\u002A\u002A,17*%
X261620000Y-114300000D03*
%TO.P,REF\u002A\u002A,16*%
X259080000Y-116840000D03*
%TO.P,REF\u002A\u002A,15*%
X261620000Y-116840000D03*
%TO.P,REF\u002A\u002A,14*%
X259080000Y-119380000D03*
%TO.P,REF\u002A\u002A,13*%
X261620000Y-119380000D03*
%TO.P,REF\u002A\u002A,12*%
X259080000Y-121920000D03*
%TO.P,REF\u002A\u002A,11*%
X261620000Y-121920000D03*
%TO.P,REF\u002A\u002A,10*%
X259080000Y-124460000D03*
%TO.P,REF\u002A\u002A,9*%
X261620000Y-124460000D03*
%TO.P,REF\u002A\u002A,8*%
X259080000Y-127000000D03*
%TO.P,REF\u002A\u002A,7*%
X261620000Y-127000000D03*
%TO.P,REF\u002A\u002A,6*%
X259080000Y-129540000D03*
%TO.P,REF\u002A\u002A,5*%
X261620000Y-129540000D03*
%TO.P,REF\u002A\u002A,4*%
X259080000Y-132080000D03*
%TO.P,REF\u002A\u002A,3*%
X261620000Y-132080000D03*
%TO.P,REF\u002A\u002A,2*%
X259080000Y-134620000D03*
D13*
%TO.P,REF\u002A\u002A,1*%
X261620000Y-134620000D03*
%TD*%
D12*
%TO.P,REF\u002A\u002A,80*%
%TO.N,N/C*%
X54610000Y-101600000D03*
%TO.P,REF\u002A\u002A,79*%
X54610000Y-99060000D03*
%TO.P,REF\u002A\u002A,78*%
X57150000Y-101600000D03*
%TO.P,REF\u002A\u002A,77*%
X57150000Y-99060000D03*
%TO.P,REF\u002A\u002A,76*%
X59690000Y-101600000D03*
%TO.P,REF\u002A\u002A,75*%
X59690000Y-99060000D03*
%TO.P,REF\u002A\u002A,74*%
X62230000Y-101600000D03*
%TO.P,REF\u002A\u002A,73*%
X62230000Y-99060000D03*
%TO.P,REF\u002A\u002A,72*%
X64770000Y-101600000D03*
%TO.P,REF\u002A\u002A,71*%
X64770000Y-99060000D03*
%TO.P,REF\u002A\u002A,70*%
X67310000Y-101600000D03*
%TO.P,REF\u002A\u002A,69*%
X67310000Y-99060000D03*
%TO.P,REF\u002A\u002A,68*%
X69850000Y-101600000D03*
%TO.P,REF\u002A\u002A,67*%
X69850000Y-99060000D03*
%TO.P,REF\u002A\u002A,66*%
X72390000Y-101600000D03*
%TO.P,REF\u002A\u002A,65*%
X72390000Y-99060000D03*
%TO.P,REF\u002A\u002A,64*%
X74930000Y-101600000D03*
%TO.P,REF\u002A\u002A,63*%
X74930000Y-99060000D03*
%TO.P,REF\u002A\u002A,62*%
X77470000Y-101600000D03*
%TO.P,REF\u002A\u002A,61*%
X77470000Y-99060000D03*
%TO.P,REF\u002A\u002A,60*%
X80010000Y-101600000D03*
%TO.P,REF\u002A\u002A,59*%
X80010000Y-99060000D03*
%TO.P,REF\u002A\u002A,58*%
X82550000Y-101600000D03*
%TO.P,REF\u002A\u002A,57*%
X82550000Y-99060000D03*
%TO.P,REF\u002A\u002A,56*%
X85090000Y-101600000D03*
%TO.P,REF\u002A\u002A,55*%
X85090000Y-99060000D03*
%TO.P,REF\u002A\u002A,54*%
X87630000Y-101600000D03*
%TO.P,REF\u002A\u002A,53*%
X87630000Y-99060000D03*
%TO.P,REF\u002A\u002A,52*%
X90170000Y-101600000D03*
%TO.P,REF\u002A\u002A,51*%
X90170000Y-99060000D03*
%TO.P,REF\u002A\u002A,50*%
X92710000Y-101600000D03*
%TO.P,REF\u002A\u002A,49*%
X92710000Y-99060000D03*
%TO.P,REF\u002A\u002A,48*%
X95250000Y-101600000D03*
%TO.P,REF\u002A\u002A,47*%
X95250000Y-99060000D03*
%TO.P,REF\u002A\u002A,46*%
X97790000Y-101600000D03*
%TO.P,REF\u002A\u002A,45*%
X97790000Y-99060000D03*
%TO.P,REF\u002A\u002A,44*%
X100330000Y-101600000D03*
%TO.P,REF\u002A\u002A,43*%
X100330000Y-99060000D03*
%TO.P,REF\u002A\u002A,42*%
X102870000Y-101600000D03*
%TO.P,REF\u002A\u002A,41*%
X102870000Y-99060000D03*
%TO.P,REF\u002A\u002A,40*%
X105410000Y-101600000D03*
%TO.P,REF\u002A\u002A,39*%
X105410000Y-99060000D03*
%TO.P,REF\u002A\u002A,38*%
X107950000Y-101600000D03*
%TO.P,REF\u002A\u002A,37*%
X107950000Y-99060000D03*
%TO.P,REF\u002A\u002A,36*%
X110490000Y-101600000D03*
%TO.P,REF\u002A\u002A,35*%
X110490000Y-99060000D03*
%TO.P,REF\u002A\u002A,34*%
X113030000Y-101600000D03*
%TO.P,REF\u002A\u002A,33*%
X113030000Y-99060000D03*
%TO.P,REF\u002A\u002A,32*%
X115570000Y-101600000D03*
%TO.P,REF\u002A\u002A,31*%
X115570000Y-99060000D03*
%TO.P,REF\u002A\u002A,30*%
X118110000Y-101600000D03*
%TO.P,REF\u002A\u002A,29*%
X118110000Y-99060000D03*
%TO.P,REF\u002A\u002A,28*%
X120650000Y-101600000D03*
%TO.P,REF\u002A\u002A,27*%
X120650000Y-99060000D03*
%TO.P,REF\u002A\u002A,26*%
X123190000Y-101600000D03*
%TO.P,REF\u002A\u002A,25*%
X123190000Y-99060000D03*
%TO.P,REF\u002A\u002A,24*%
X125730000Y-101600000D03*
%TO.P,REF\u002A\u002A,23*%
X125730000Y-99060000D03*
%TO.P,REF\u002A\u002A,22*%
X128270000Y-101600000D03*
%TO.P,REF\u002A\u002A,21*%
X128270000Y-99060000D03*
%TO.P,REF\u002A\u002A,20*%
X130810000Y-101600000D03*
%TO.P,REF\u002A\u002A,19*%
X130810000Y-99060000D03*
%TO.P,REF\u002A\u002A,18*%
X133350000Y-101600000D03*
%TO.P,REF\u002A\u002A,17*%
X133350000Y-99060000D03*
%TO.P,REF\u002A\u002A,16*%
X135890000Y-101600000D03*
%TO.P,REF\u002A\u002A,15*%
X135890000Y-99060000D03*
%TO.P,REF\u002A\u002A,14*%
X138430000Y-101600000D03*
%TO.P,REF\u002A\u002A,13*%
X138430000Y-99060000D03*
%TO.P,REF\u002A\u002A,12*%
X140970000Y-101600000D03*
%TO.P,REF\u002A\u002A,11*%
X140970000Y-99060000D03*
%TO.P,REF\u002A\u002A,10*%
X143510000Y-101600000D03*
%TO.P,REF\u002A\u002A,9*%
X143510000Y-99060000D03*
%TO.P,REF\u002A\u002A,8*%
X146050000Y-101600000D03*
%TO.P,REF\u002A\u002A,7*%
X146050000Y-99060000D03*
%TO.P,REF\u002A\u002A,6*%
X148590000Y-101600000D03*
%TO.P,REF\u002A\u002A,5*%
X148590000Y-99060000D03*
%TO.P,REF\u002A\u002A,4*%
X151130000Y-101600000D03*
%TO.P,REF\u002A\u002A,3*%
X151130000Y-99060000D03*
%TO.P,REF\u002A\u002A,2*%
X153670000Y-101600000D03*
D14*
%TO.P,REF\u002A\u002A,1*%
X153670000Y-99060000D03*
%TD*%
D12*
%TO.P,REF\u002A\u002A,80*%
%TO.N,N/C*%
X54610000Y-96520000D03*
%TO.P,REF\u002A\u002A,79*%
X54610000Y-93980000D03*
%TO.P,REF\u002A\u002A,78*%
X57150000Y-96520000D03*
%TO.P,REF\u002A\u002A,77*%
X57150000Y-93980000D03*
%TO.P,REF\u002A\u002A,76*%
X59690000Y-96520000D03*
%TO.P,REF\u002A\u002A,75*%
X59690000Y-93980000D03*
%TO.P,REF\u002A\u002A,74*%
X62230000Y-96520000D03*
%TO.P,REF\u002A\u002A,73*%
X62230000Y-93980000D03*
%TO.P,REF\u002A\u002A,72*%
X64770000Y-96520000D03*
%TO.P,REF\u002A\u002A,71*%
X64770000Y-93980000D03*
%TO.P,REF\u002A\u002A,70*%
X67310000Y-96520000D03*
%TO.P,REF\u002A\u002A,69*%
X67310000Y-93980000D03*
%TO.P,REF\u002A\u002A,68*%
X69850000Y-96520000D03*
%TO.P,REF\u002A\u002A,67*%
X69850000Y-93980000D03*
%TO.P,REF\u002A\u002A,66*%
X72390000Y-96520000D03*
%TO.P,REF\u002A\u002A,65*%
X72390000Y-93980000D03*
%TO.P,REF\u002A\u002A,64*%
X74930000Y-96520000D03*
%TO.P,REF\u002A\u002A,63*%
X74930000Y-93980000D03*
%TO.P,REF\u002A\u002A,62*%
X77470000Y-96520000D03*
%TO.P,REF\u002A\u002A,61*%
X77470000Y-93980000D03*
%TO.P,REF\u002A\u002A,60*%
X80010000Y-96520000D03*
%TO.P,REF\u002A\u002A,59*%
X80010000Y-93980000D03*
%TO.P,REF\u002A\u002A,58*%
X82550000Y-96520000D03*
%TO.P,REF\u002A\u002A,57*%
X82550000Y-93980000D03*
%TO.P,REF\u002A\u002A,56*%
X85090000Y-96520000D03*
%TO.P,REF\u002A\u002A,55*%
X85090000Y-93980000D03*
%TO.P,REF\u002A\u002A,54*%
X87630000Y-96520000D03*
%TO.P,REF\u002A\u002A,53*%
X87630000Y-93980000D03*
%TO.P,REF\u002A\u002A,52*%
X90170000Y-96520000D03*
%TO.P,REF\u002A\u002A,51*%
X90170000Y-93980000D03*
%TO.P,REF\u002A\u002A,50*%
X92710000Y-96520000D03*
%TO.P,REF\u002A\u002A,49*%
X92710000Y-93980000D03*
%TO.P,REF\u002A\u002A,48*%
X95250000Y-96520000D03*
%TO.P,REF\u002A\u002A,47*%
X95250000Y-93980000D03*
%TO.P,REF\u002A\u002A,46*%
X97790000Y-96520000D03*
%TO.P,REF\u002A\u002A,45*%
X97790000Y-93980000D03*
%TO.P,REF\u002A\u002A,44*%
X100330000Y-96520000D03*
%TO.P,REF\u002A\u002A,43*%
X100330000Y-93980000D03*
%TO.P,REF\u002A\u002A,42*%
X102870000Y-96520000D03*
%TO.P,REF\u002A\u002A,41*%
X102870000Y-93980000D03*
%TO.P,REF\u002A\u002A,40*%
X105410000Y-96520000D03*
%TO.P,REF\u002A\u002A,39*%
X105410000Y-93980000D03*
%TO.P,REF\u002A\u002A,38*%
X107950000Y-96520000D03*
%TO.P,REF\u002A\u002A,37*%
X107950000Y-93980000D03*
%TO.P,REF\u002A\u002A,36*%
X110490000Y-96520000D03*
%TO.P,REF\u002A\u002A,35*%
X110490000Y-93980000D03*
%TO.P,REF\u002A\u002A,34*%
X113030000Y-96520000D03*
%TO.P,REF\u002A\u002A,33*%
X113030000Y-93980000D03*
%TO.P,REF\u002A\u002A,32*%
X115570000Y-96520000D03*
%TO.P,REF\u002A\u002A,31*%
X115570000Y-93980000D03*
%TO.P,REF\u002A\u002A,30*%
X118110000Y-96520000D03*
%TO.P,REF\u002A\u002A,29*%
X118110000Y-93980000D03*
%TO.P,REF\u002A\u002A,28*%
X120650000Y-96520000D03*
%TO.P,REF\u002A\u002A,27*%
X120650000Y-93980000D03*
%TO.P,REF\u002A\u002A,26*%
X123190000Y-96520000D03*
%TO.P,REF\u002A\u002A,25*%
X123190000Y-93980000D03*
%TO.P,REF\u002A\u002A,24*%
X125730000Y-96520000D03*
%TO.P,REF\u002A\u002A,23*%
X125730000Y-93980000D03*
%TO.P,REF\u002A\u002A,22*%
X128270000Y-96520000D03*
%TO.P,REF\u002A\u002A,21*%
X128270000Y-93980000D03*
%TO.P,REF\u002A\u002A,20*%
X130810000Y-96520000D03*
%TO.P,REF\u002A\u002A,19*%
X130810000Y-93980000D03*
%TO.P,REF\u002A\u002A,18*%
X133350000Y-96520000D03*
%TO.P,REF\u002A\u002A,17*%
X133350000Y-93980000D03*
%TO.P,REF\u002A\u002A,16*%
X135890000Y-96520000D03*
%TO.P,REF\u002A\u002A,15*%
X135890000Y-93980000D03*
%TO.P,REF\u002A\u002A,14*%
X138430000Y-96520000D03*
%TO.P,REF\u002A\u002A,13*%
X138430000Y-93980000D03*
%TO.P,REF\u002A\u002A,12*%
X140970000Y-96520000D03*
%TO.P,REF\u002A\u002A,11*%
X140970000Y-93980000D03*
%TO.P,REF\u002A\u002A,10*%
X143510000Y-96520000D03*
%TO.P,REF\u002A\u002A,9*%
X143510000Y-93980000D03*
%TO.P,REF\u002A\u002A,8*%
X146050000Y-96520000D03*
%TO.P,REF\u002A\u002A,7*%
X146050000Y-93980000D03*
%TO.P,REF\u002A\u002A,6*%
X148590000Y-96520000D03*
%TO.P,REF\u002A\u002A,5*%
X148590000Y-93980000D03*
%TO.P,REF\u002A\u002A,4*%
X151130000Y-96520000D03*
%TO.P,REF\u002A\u002A,3*%
X151130000Y-93980000D03*
%TO.P,REF\u002A\u002A,2*%
X153670000Y-96520000D03*
D14*
%TO.P,REF\u002A\u002A,1*%
X153670000Y-93980000D03*
%TD*%
D12*
%TO.P,REF\u002A\u002A,80*%
%TO.N,N/C*%
X54610000Y-116840000D03*
%TO.P,REF\u002A\u002A,79*%
X54610000Y-114300000D03*
%TO.P,REF\u002A\u002A,78*%
X57150000Y-116840000D03*
%TO.P,REF\u002A\u002A,77*%
X57150000Y-114300000D03*
%TO.P,REF\u002A\u002A,76*%
X59690000Y-116840000D03*
%TO.P,REF\u002A\u002A,75*%
X59690000Y-114300000D03*
%TO.P,REF\u002A\u002A,74*%
X62230000Y-116840000D03*
%TO.P,REF\u002A\u002A,73*%
X62230000Y-114300000D03*
%TO.P,REF\u002A\u002A,72*%
X64770000Y-116840000D03*
%TO.P,REF\u002A\u002A,71*%
X64770000Y-114300000D03*
%TO.P,REF\u002A\u002A,70*%
X67310000Y-116840000D03*
%TO.P,REF\u002A\u002A,69*%
X67310000Y-114300000D03*
%TO.P,REF\u002A\u002A,68*%
X69850000Y-116840000D03*
%TO.P,REF\u002A\u002A,67*%
X69850000Y-114300000D03*
%TO.P,REF\u002A\u002A,66*%
X72390000Y-116840000D03*
%TO.P,REF\u002A\u002A,65*%
X72390000Y-114300000D03*
%TO.P,REF\u002A\u002A,64*%
X74930000Y-116840000D03*
%TO.P,REF\u002A\u002A,63*%
X74930000Y-114300000D03*
%TO.P,REF\u002A\u002A,62*%
X77470000Y-116840000D03*
%TO.P,REF\u002A\u002A,61*%
X77470000Y-114300000D03*
%TO.P,REF\u002A\u002A,60*%
X80010000Y-116840000D03*
%TO.P,REF\u002A\u002A,59*%
X80010000Y-114300000D03*
%TO.P,REF\u002A\u002A,58*%
X82550000Y-116840000D03*
%TO.P,REF\u002A\u002A,57*%
X82550000Y-114300000D03*
%TO.P,REF\u002A\u002A,56*%
X85090000Y-116840000D03*
%TO.P,REF\u002A\u002A,55*%
X85090000Y-114300000D03*
%TO.P,REF\u002A\u002A,54*%
X87630000Y-116840000D03*
%TO.P,REF\u002A\u002A,53*%
X87630000Y-114300000D03*
%TO.P,REF\u002A\u002A,52*%
X90170000Y-116840000D03*
%TO.P,REF\u002A\u002A,51*%
X90170000Y-114300000D03*
%TO.P,REF\u002A\u002A,50*%
X92710000Y-116840000D03*
%TO.P,REF\u002A\u002A,49*%
X92710000Y-114300000D03*
%TO.P,REF\u002A\u002A,48*%
X95250000Y-116840000D03*
%TO.P,REF\u002A\u002A,47*%
X95250000Y-114300000D03*
%TO.P,REF\u002A\u002A,46*%
X97790000Y-116840000D03*
%TO.P,REF\u002A\u002A,45*%
X97790000Y-114300000D03*
%TO.P,REF\u002A\u002A,44*%
X100330000Y-116840000D03*
%TO.P,REF\u002A\u002A,43*%
X100330000Y-114300000D03*
%TO.P,REF\u002A\u002A,42*%
X102870000Y-116840000D03*
%TO.P,REF\u002A\u002A,41*%
X102870000Y-114300000D03*
%TO.P,REF\u002A\u002A,40*%
X105410000Y-116840000D03*
%TO.P,REF\u002A\u002A,39*%
X105410000Y-114300000D03*
%TO.P,REF\u002A\u002A,38*%
X107950000Y-116840000D03*
%TO.P,REF\u002A\u002A,37*%
X107950000Y-114300000D03*
%TO.P,REF\u002A\u002A,36*%
X110490000Y-116840000D03*
%TO.P,REF\u002A\u002A,35*%
X110490000Y-114300000D03*
%TO.P,REF\u002A\u002A,34*%
X113030000Y-116840000D03*
%TO.P,REF\u002A\u002A,33*%
X113030000Y-114300000D03*
%TO.P,REF\u002A\u002A,32*%
X115570000Y-116840000D03*
%TO.P,REF\u002A\u002A,31*%
X115570000Y-114300000D03*
%TO.P,REF\u002A\u002A,30*%
X118110000Y-116840000D03*
%TO.P,REF\u002A\u002A,29*%
X118110000Y-114300000D03*
%TO.P,REF\u002A\u002A,28*%
X120650000Y-116840000D03*
%TO.P,REF\u002A\u002A,27*%
X120650000Y-114300000D03*
%TO.P,REF\u002A\u002A,26*%
X123190000Y-116840000D03*
%TO.P,REF\u002A\u002A,25*%
X123190000Y-114300000D03*
%TO.P,REF\u002A\u002A,24*%
X125730000Y-116840000D03*
%TO.P,REF\u002A\u002A,23*%
X125730000Y-114300000D03*
%TO.P,REF\u002A\u002A,22*%
X128270000Y-116840000D03*
%TO.P,REF\u002A\u002A,21*%
X128270000Y-114300000D03*
%TO.P,REF\u002A\u002A,20*%
X130810000Y-116840000D03*
%TO.P,REF\u002A\u002A,19*%
X130810000Y-114300000D03*
%TO.P,REF\u002A\u002A,18*%
X133350000Y-116840000D03*
%TO.P,REF\u002A\u002A,17*%
X133350000Y-114300000D03*
%TO.P,REF\u002A\u002A,16*%
X135890000Y-116840000D03*
%TO.P,REF\u002A\u002A,15*%
X135890000Y-114300000D03*
%TO.P,REF\u002A\u002A,14*%
X138430000Y-116840000D03*
%TO.P,REF\u002A\u002A,13*%
X138430000Y-114300000D03*
%TO.P,REF\u002A\u002A,12*%
X140970000Y-116840000D03*
%TO.P,REF\u002A\u002A,11*%
X140970000Y-114300000D03*
%TO.P,REF\u002A\u002A,10*%
X143510000Y-116840000D03*
%TO.P,REF\u002A\u002A,9*%
X143510000Y-114300000D03*
%TO.P,REF\u002A\u002A,8*%
X146050000Y-116840000D03*
%TO.P,REF\u002A\u002A,7*%
X146050000Y-114300000D03*
%TO.P,REF\u002A\u002A,6*%
X148590000Y-116840000D03*
%TO.P,REF\u002A\u002A,5*%
X148590000Y-114300000D03*
%TO.P,REF\u002A\u002A,4*%
X151130000Y-116840000D03*
%TO.P,REF\u002A\u002A,3*%
X151130000Y-114300000D03*
%TO.P,REF\u002A\u002A,2*%
X153670000Y-116840000D03*
D14*
%TO.P,REF\u002A\u002A,1*%
X153670000Y-114300000D03*
%TD*%
D12*
%TO.P,REF\u002A\u002A,80*%
%TO.N,N/C*%
X54610000Y-55880000D03*
%TO.P,REF\u002A\u002A,79*%
X54610000Y-53340000D03*
%TO.P,REF\u002A\u002A,78*%
X57150000Y-55880000D03*
%TO.P,REF\u002A\u002A,77*%
X57150000Y-53340000D03*
%TO.P,REF\u002A\u002A,76*%
X59690000Y-55880000D03*
%TO.P,REF\u002A\u002A,75*%
X59690000Y-53340000D03*
%TO.P,REF\u002A\u002A,74*%
X62230000Y-55880000D03*
%TO.P,REF\u002A\u002A,73*%
X62230000Y-53340000D03*
%TO.P,REF\u002A\u002A,72*%
X64770000Y-55880000D03*
%TO.P,REF\u002A\u002A,71*%
X64770000Y-53340000D03*
%TO.P,REF\u002A\u002A,70*%
X67310000Y-55880000D03*
%TO.P,REF\u002A\u002A,69*%
X67310000Y-53340000D03*
%TO.P,REF\u002A\u002A,68*%
X69850000Y-55880000D03*
%TO.P,REF\u002A\u002A,67*%
X69850000Y-53340000D03*
%TO.P,REF\u002A\u002A,66*%
X72390000Y-55880000D03*
%TO.P,REF\u002A\u002A,65*%
X72390000Y-53340000D03*
%TO.P,REF\u002A\u002A,64*%
X74930000Y-55880000D03*
%TO.P,REF\u002A\u002A,63*%
X74930000Y-53340000D03*
%TO.P,REF\u002A\u002A,62*%
X77470000Y-55880000D03*
%TO.P,REF\u002A\u002A,61*%
X77470000Y-53340000D03*
%TO.P,REF\u002A\u002A,60*%
X80010000Y-55880000D03*
%TO.P,REF\u002A\u002A,59*%
X80010000Y-53340000D03*
%TO.P,REF\u002A\u002A,58*%
X82550000Y-55880000D03*
%TO.P,REF\u002A\u002A,57*%
X82550000Y-53340000D03*
%TO.P,REF\u002A\u002A,56*%
X85090000Y-55880000D03*
%TO.P,REF\u002A\u002A,55*%
X85090000Y-53340000D03*
%TO.P,REF\u002A\u002A,54*%
X87630000Y-55880000D03*
%TO.P,REF\u002A\u002A,53*%
X87630000Y-53340000D03*
%TO.P,REF\u002A\u002A,52*%
X90170000Y-55880000D03*
%TO.P,REF\u002A\u002A,51*%
X90170000Y-53340000D03*
%TO.P,REF\u002A\u002A,50*%
X92710000Y-55880000D03*
%TO.P,REF\u002A\u002A,49*%
X92710000Y-53340000D03*
%TO.P,REF\u002A\u002A,48*%
X95250000Y-55880000D03*
%TO.P,REF\u002A\u002A,47*%
X95250000Y-53340000D03*
%TO.P,REF\u002A\u002A,46*%
X97790000Y-55880000D03*
%TO.P,REF\u002A\u002A,45*%
X97790000Y-53340000D03*
%TO.P,REF\u002A\u002A,44*%
X100330000Y-55880000D03*
%TO.P,REF\u002A\u002A,43*%
X100330000Y-53340000D03*
%TO.P,REF\u002A\u002A,42*%
X102870000Y-55880000D03*
%TO.P,REF\u002A\u002A,41*%
X102870000Y-53340000D03*
%TO.P,REF\u002A\u002A,40*%
X105410000Y-55880000D03*
%TO.P,REF\u002A\u002A,39*%
X105410000Y-53340000D03*
%TO.P,REF\u002A\u002A,38*%
X107950000Y-55880000D03*
%TO.P,REF\u002A\u002A,37*%
X107950000Y-53340000D03*
%TO.P,REF\u002A\u002A,36*%
X110490000Y-55880000D03*
%TO.P,REF\u002A\u002A,35*%
X110490000Y-53340000D03*
%TO.P,REF\u002A\u002A,34*%
X113030000Y-55880000D03*
%TO.P,REF\u002A\u002A,33*%
X113030000Y-53340000D03*
%TO.P,REF\u002A\u002A,32*%
X115570000Y-55880000D03*
%TO.P,REF\u002A\u002A,31*%
X115570000Y-53340000D03*
%TO.P,REF\u002A\u002A,30*%
X118110000Y-55880000D03*
%TO.P,REF\u002A\u002A,29*%
X118110000Y-53340000D03*
%TO.P,REF\u002A\u002A,28*%
X120650000Y-55880000D03*
%TO.P,REF\u002A\u002A,27*%
X120650000Y-53340000D03*
%TO.P,REF\u002A\u002A,26*%
X123190000Y-55880000D03*
%TO.P,REF\u002A\u002A,25*%
X123190000Y-53340000D03*
%TO.P,REF\u002A\u002A,24*%
X125730000Y-55880000D03*
%TO.P,REF\u002A\u002A,23*%
X125730000Y-53340000D03*
%TO.P,REF\u002A\u002A,22*%
X128270000Y-55880000D03*
%TO.P,REF\u002A\u002A,21*%
X128270000Y-53340000D03*
%TO.P,REF\u002A\u002A,20*%
X130810000Y-55880000D03*
%TO.P,REF\u002A\u002A,19*%
X130810000Y-53340000D03*
%TO.P,REF\u002A\u002A,18*%
X133350000Y-55880000D03*
%TO.P,REF\u002A\u002A,17*%
X133350000Y-53340000D03*
%TO.P,REF\u002A\u002A,16*%
X135890000Y-55880000D03*
%TO.P,REF\u002A\u002A,15*%
X135890000Y-53340000D03*
%TO.P,REF\u002A\u002A,14*%
X138430000Y-55880000D03*
%TO.P,REF\u002A\u002A,13*%
X138430000Y-53340000D03*
%TO.P,REF\u002A\u002A,12*%
X140970000Y-55880000D03*
%TO.P,REF\u002A\u002A,11*%
X140970000Y-53340000D03*
%TO.P,REF\u002A\u002A,10*%
X143510000Y-55880000D03*
%TO.P,REF\u002A\u002A,9*%
X143510000Y-53340000D03*
%TO.P,REF\u002A\u002A,8*%
X146050000Y-55880000D03*
%TO.P,REF\u002A\u002A,7*%
X146050000Y-53340000D03*
%TO.P,REF\u002A\u002A,6*%
X148590000Y-55880000D03*
%TO.P,REF\u002A\u002A,5*%
X148590000Y-53340000D03*
%TO.P,REF\u002A\u002A,4*%
X151130000Y-55880000D03*
%TO.P,REF\u002A\u002A,3*%
X151130000Y-53340000D03*
%TO.P,REF\u002A\u002A,2*%
X153670000Y-55880000D03*
D14*
%TO.P,REF\u002A\u002A,1*%
X153670000Y-53340000D03*
%TD*%
D12*
%TO.P,REF\u002A\u002A,80*%
%TO.N,N/C*%
X54610000Y-60960000D03*
%TO.P,REF\u002A\u002A,79*%
X54610000Y-58420000D03*
%TO.P,REF\u002A\u002A,78*%
X57150000Y-60960000D03*
%TO.P,REF\u002A\u002A,77*%
X57150000Y-58420000D03*
%TO.P,REF\u002A\u002A,76*%
X59690000Y-60960000D03*
%TO.P,REF\u002A\u002A,75*%
X59690000Y-58420000D03*
%TO.P,REF\u002A\u002A,74*%
X62230000Y-60960000D03*
%TO.P,REF\u002A\u002A,73*%
X62230000Y-58420000D03*
%TO.P,REF\u002A\u002A,72*%
X64770000Y-60960000D03*
%TO.P,REF\u002A\u002A,71*%
X64770000Y-58420000D03*
%TO.P,REF\u002A\u002A,70*%
X67310000Y-60960000D03*
%TO.P,REF\u002A\u002A,69*%
X67310000Y-58420000D03*
%TO.P,REF\u002A\u002A,68*%
X69850000Y-60960000D03*
%TO.P,REF\u002A\u002A,67*%
X69850000Y-58420000D03*
%TO.P,REF\u002A\u002A,66*%
X72390000Y-60960000D03*
%TO.P,REF\u002A\u002A,65*%
X72390000Y-58420000D03*
%TO.P,REF\u002A\u002A,64*%
X74930000Y-60960000D03*
%TO.P,REF\u002A\u002A,63*%
X74930000Y-58420000D03*
%TO.P,REF\u002A\u002A,62*%
X77470000Y-60960000D03*
%TO.P,REF\u002A\u002A,61*%
X77470000Y-58420000D03*
%TO.P,REF\u002A\u002A,60*%
X80010000Y-60960000D03*
%TO.P,REF\u002A\u002A,59*%
X80010000Y-58420000D03*
%TO.P,REF\u002A\u002A,58*%
X82550000Y-60960000D03*
%TO.P,REF\u002A\u002A,57*%
X82550000Y-58420000D03*
%TO.P,REF\u002A\u002A,56*%
X85090000Y-60960000D03*
%TO.P,REF\u002A\u002A,55*%
X85090000Y-58420000D03*
%TO.P,REF\u002A\u002A,54*%
X87630000Y-60960000D03*
%TO.P,REF\u002A\u002A,53*%
X87630000Y-58420000D03*
%TO.P,REF\u002A\u002A,52*%
X90170000Y-60960000D03*
%TO.P,REF\u002A\u002A,51*%
X90170000Y-58420000D03*
%TO.P,REF\u002A\u002A,50*%
X92710000Y-60960000D03*
%TO.P,REF\u002A\u002A,49*%
X92710000Y-58420000D03*
%TO.P,REF\u002A\u002A,48*%
X95250000Y-60960000D03*
%TO.P,REF\u002A\u002A,47*%
X95250000Y-58420000D03*
%TO.P,REF\u002A\u002A,46*%
X97790000Y-60960000D03*
%TO.P,REF\u002A\u002A,45*%
X97790000Y-58420000D03*
%TO.P,REF\u002A\u002A,44*%
X100330000Y-60960000D03*
%TO.P,REF\u002A\u002A,43*%
X100330000Y-58420000D03*
%TO.P,REF\u002A\u002A,42*%
X102870000Y-60960000D03*
%TO.P,REF\u002A\u002A,41*%
X102870000Y-58420000D03*
%TO.P,REF\u002A\u002A,40*%
X105410000Y-60960000D03*
%TO.P,REF\u002A\u002A,39*%
X105410000Y-58420000D03*
%TO.P,REF\u002A\u002A,38*%
X107950000Y-60960000D03*
%TO.P,REF\u002A\u002A,37*%
X107950000Y-58420000D03*
%TO.P,REF\u002A\u002A,36*%
X110490000Y-60960000D03*
%TO.P,REF\u002A\u002A,35*%
X110490000Y-58420000D03*
%TO.P,REF\u002A\u002A,34*%
X113030000Y-60960000D03*
%TO.P,REF\u002A\u002A,33*%
X113030000Y-58420000D03*
%TO.P,REF\u002A\u002A,32*%
X115570000Y-60960000D03*
%TO.P,REF\u002A\u002A,31*%
X115570000Y-58420000D03*
%TO.P,REF\u002A\u002A,30*%
X118110000Y-60960000D03*
%TO.P,REF\u002A\u002A,29*%
X118110000Y-58420000D03*
%TO.P,REF\u002A\u002A,28*%
X120650000Y-60960000D03*
%TO.P,REF\u002A\u002A,27*%
X120650000Y-58420000D03*
%TO.P,REF\u002A\u002A,26*%
X123190000Y-60960000D03*
%TO.P,REF\u002A\u002A,25*%
X123190000Y-58420000D03*
%TO.P,REF\u002A\u002A,24*%
X125730000Y-60960000D03*
%TO.P,REF\u002A\u002A,23*%
X125730000Y-58420000D03*
%TO.P,REF\u002A\u002A,22*%
X128270000Y-60960000D03*
%TO.P,REF\u002A\u002A,21*%
X128270000Y-58420000D03*
%TO.P,REF\u002A\u002A,20*%
X130810000Y-60960000D03*
%TO.P,REF\u002A\u002A,19*%
X130810000Y-58420000D03*
%TO.P,REF\u002A\u002A,18*%
X133350000Y-60960000D03*
%TO.P,REF\u002A\u002A,17*%
X133350000Y-58420000D03*
%TO.P,REF\u002A\u002A,16*%
X135890000Y-60960000D03*
%TO.P,REF\u002A\u002A,15*%
X135890000Y-58420000D03*
%TO.P,REF\u002A\u002A,14*%
X138430000Y-60960000D03*
%TO.P,REF\u002A\u002A,13*%
X138430000Y-58420000D03*
%TO.P,REF\u002A\u002A,12*%
X140970000Y-60960000D03*
%TO.P,REF\u002A\u002A,11*%
X140970000Y-58420000D03*
%TO.P,REF\u002A\u002A,10*%
X143510000Y-60960000D03*
%TO.P,REF\u002A\u002A,9*%
X143510000Y-58420000D03*
%TO.P,REF\u002A\u002A,8*%
X146050000Y-60960000D03*
%TO.P,REF\u002A\u002A,7*%
X146050000Y-58420000D03*
%TO.P,REF\u002A\u002A,6*%
X148590000Y-60960000D03*
%TO.P,REF\u002A\u002A,5*%
X148590000Y-58420000D03*
%TO.P,REF\u002A\u002A,4*%
X151130000Y-60960000D03*
%TO.P,REF\u002A\u002A,3*%
X151130000Y-58420000D03*
%TO.P,REF\u002A\u002A,2*%
X153670000Y-60960000D03*
D14*
%TO.P,REF\u002A\u002A,1*%
X153670000Y-58420000D03*
%TD*%
%TO.P,REF\u002A\u002A,1*%
%TO.N,N/C*%
X153670000Y-73660000D03*
D12*
%TO.P,REF\u002A\u002A,2*%
X153670000Y-76200000D03*
%TO.P,REF\u002A\u002A,3*%
X151130000Y-73660000D03*
%TO.P,REF\u002A\u002A,4*%
X151130000Y-76200000D03*
%TO.P,REF\u002A\u002A,5*%
X148590000Y-73660000D03*
%TO.P,REF\u002A\u002A,6*%
X148590000Y-76200000D03*
%TO.P,REF\u002A\u002A,7*%
X146050000Y-73660000D03*
%TO.P,REF\u002A\u002A,8*%
X146050000Y-76200000D03*
%TO.P,REF\u002A\u002A,9*%
X143510000Y-73660000D03*
%TO.P,REF\u002A\u002A,10*%
X143510000Y-76200000D03*
%TO.P,REF\u002A\u002A,11*%
X140970000Y-73660000D03*
%TO.P,REF\u002A\u002A,12*%
X140970000Y-76200000D03*
%TO.P,REF\u002A\u002A,13*%
X138430000Y-73660000D03*
%TO.P,REF\u002A\u002A,14*%
X138430000Y-76200000D03*
%TO.P,REF\u002A\u002A,15*%
X135890000Y-73660000D03*
%TO.P,REF\u002A\u002A,16*%
X135890000Y-76200000D03*
%TO.P,REF\u002A\u002A,17*%
X133350000Y-73660000D03*
%TO.P,REF\u002A\u002A,18*%
X133350000Y-76200000D03*
%TO.P,REF\u002A\u002A,19*%
X130810000Y-73660000D03*
%TO.P,REF\u002A\u002A,20*%
X130810000Y-76200000D03*
%TO.P,REF\u002A\u002A,21*%
X128270000Y-73660000D03*
%TO.P,REF\u002A\u002A,22*%
X128270000Y-76200000D03*
%TO.P,REF\u002A\u002A,23*%
X125730000Y-73660000D03*
%TO.P,REF\u002A\u002A,24*%
X125730000Y-76200000D03*
%TO.P,REF\u002A\u002A,25*%
X123190000Y-73660000D03*
%TO.P,REF\u002A\u002A,26*%
X123190000Y-76200000D03*
%TO.P,REF\u002A\u002A,27*%
X120650000Y-73660000D03*
%TO.P,REF\u002A\u002A,28*%
X120650000Y-76200000D03*
%TO.P,REF\u002A\u002A,29*%
X118110000Y-73660000D03*
%TO.P,REF\u002A\u002A,30*%
X118110000Y-76200000D03*
%TO.P,REF\u002A\u002A,31*%
X115570000Y-73660000D03*
%TO.P,REF\u002A\u002A,32*%
X115570000Y-76200000D03*
%TO.P,REF\u002A\u002A,33*%
X113030000Y-73660000D03*
%TO.P,REF\u002A\u002A,34*%
X113030000Y-76200000D03*
%TO.P,REF\u002A\u002A,35*%
X110490000Y-73660000D03*
%TO.P,REF\u002A\u002A,36*%
X110490000Y-76200000D03*
%TO.P,REF\u002A\u002A,37*%
X107950000Y-73660000D03*
%TO.P,REF\u002A\u002A,38*%
X107950000Y-76200000D03*
%TO.P,REF\u002A\u002A,39*%
X105410000Y-73660000D03*
%TO.P,REF\u002A\u002A,40*%
X105410000Y-76200000D03*
%TO.P,REF\u002A\u002A,41*%
X102870000Y-73660000D03*
%TO.P,REF\u002A\u002A,42*%
X102870000Y-76200000D03*
%TO.P,REF\u002A\u002A,43*%
X100330000Y-73660000D03*
%TO.P,REF\u002A\u002A,44*%
X100330000Y-76200000D03*
%TO.P,REF\u002A\u002A,45*%
X97790000Y-73660000D03*
%TO.P,REF\u002A\u002A,46*%
X97790000Y-76200000D03*
%TO.P,REF\u002A\u002A,47*%
X95250000Y-73660000D03*
%TO.P,REF\u002A\u002A,48*%
X95250000Y-76200000D03*
%TO.P,REF\u002A\u002A,49*%
X92710000Y-73660000D03*
%TO.P,REF\u002A\u002A,50*%
X92710000Y-76200000D03*
%TO.P,REF\u002A\u002A,51*%
X90170000Y-73660000D03*
%TO.P,REF\u002A\u002A,52*%
X90170000Y-76200000D03*
%TO.P,REF\u002A\u002A,53*%
X87630000Y-73660000D03*
%TO.P,REF\u002A\u002A,54*%
X87630000Y-76200000D03*
%TO.P,REF\u002A\u002A,55*%
X85090000Y-73660000D03*
%TO.P,REF\u002A\u002A,56*%
X85090000Y-76200000D03*
%TO.P,REF\u002A\u002A,57*%
X82550000Y-73660000D03*
%TO.P,REF\u002A\u002A,58*%
X82550000Y-76200000D03*
%TO.P,REF\u002A\u002A,59*%
X80010000Y-73660000D03*
%TO.P,REF\u002A\u002A,60*%
X80010000Y-76200000D03*
%TO.P,REF\u002A\u002A,61*%
X77470000Y-73660000D03*
%TO.P,REF\u002A\u002A,62*%
X77470000Y-76200000D03*
%TO.P,REF\u002A\u002A,63*%
X74930000Y-73660000D03*
%TO.P,REF\u002A\u002A,64*%
X74930000Y-76200000D03*
%TO.P,REF\u002A\u002A,65*%
X72390000Y-73660000D03*
%TO.P,REF\u002A\u002A,66*%
X72390000Y-76200000D03*
%TO.P,REF\u002A\u002A,67*%
X69850000Y-73660000D03*
%TO.P,REF\u002A\u002A,68*%
X69850000Y-76200000D03*
%TO.P,REF\u002A\u002A,69*%
X67310000Y-73660000D03*
%TO.P,REF\u002A\u002A,70*%
X67310000Y-76200000D03*
%TO.P,REF\u002A\u002A,71*%
X64770000Y-73660000D03*
%TO.P,REF\u002A\u002A,72*%
X64770000Y-76200000D03*
%TO.P,REF\u002A\u002A,73*%
X62230000Y-73660000D03*
%TO.P,REF\u002A\u002A,74*%
X62230000Y-76200000D03*
%TO.P,REF\u002A\u002A,75*%
X59690000Y-73660000D03*
%TO.P,REF\u002A\u002A,76*%
X59690000Y-76200000D03*
%TO.P,REF\u002A\u002A,77*%
X57150000Y-73660000D03*
%TO.P,REF\u002A\u002A,78*%
X57150000Y-76200000D03*
%TO.P,REF\u002A\u002A,79*%
X54610000Y-73660000D03*
%TO.P,REF\u002A\u002A,80*%
X54610000Y-76200000D03*
%TD*%
D14*
%TO.P,REF\u002A\u002A,1*%
%TO.N,N/C*%
X153670000Y-63500000D03*
D12*
%TO.P,REF\u002A\u002A,2*%
X153670000Y-66040000D03*
%TO.P,REF\u002A\u002A,3*%
X151130000Y-63500000D03*
%TO.P,REF\u002A\u002A,4*%
X151130000Y-66040000D03*
%TO.P,REF\u002A\u002A,5*%
X148590000Y-63500000D03*
%TO.P,REF\u002A\u002A,6*%
X148590000Y-66040000D03*
%TO.P,REF\u002A\u002A,7*%
X146050000Y-63500000D03*
%TO.P,REF\u002A\u002A,8*%
X146050000Y-66040000D03*
%TO.P,REF\u002A\u002A,9*%
X143510000Y-63500000D03*
%TO.P,REF\u002A\u002A,10*%
X143510000Y-66040000D03*
%TO.P,REF\u002A\u002A,11*%
X140970000Y-63500000D03*
%TO.P,REF\u002A\u002A,12*%
X140970000Y-66040000D03*
%TO.P,REF\u002A\u002A,13*%
X138430000Y-63500000D03*
%TO.P,REF\u002A\u002A,14*%
X138430000Y-66040000D03*
%TO.P,REF\u002A\u002A,15*%
X135890000Y-63500000D03*
%TO.P,REF\u002A\u002A,16*%
X135890000Y-66040000D03*
%TO.P,REF\u002A\u002A,17*%
X133350000Y-63500000D03*
%TO.P,REF\u002A\u002A,18*%
X133350000Y-66040000D03*
%TO.P,REF\u002A\u002A,19*%
X130810000Y-63500000D03*
%TO.P,REF\u002A\u002A,20*%
X130810000Y-66040000D03*
%TO.P,REF\u002A\u002A,21*%
X128270000Y-63500000D03*
%TO.P,REF\u002A\u002A,22*%
X128270000Y-66040000D03*
%TO.P,REF\u002A\u002A,23*%
X125730000Y-63500000D03*
%TO.P,REF\u002A\u002A,24*%
X125730000Y-66040000D03*
%TO.P,REF\u002A\u002A,25*%
X123190000Y-63500000D03*
%TO.P,REF\u002A\u002A,26*%
X123190000Y-66040000D03*
%TO.P,REF\u002A\u002A,27*%
X120650000Y-63500000D03*
%TO.P,REF\u002A\u002A,28*%
X120650000Y-66040000D03*
%TO.P,REF\u002A\u002A,29*%
X118110000Y-63500000D03*
%TO.P,REF\u002A\u002A,30*%
X118110000Y-66040000D03*
%TO.P,REF\u002A\u002A,31*%
X115570000Y-63500000D03*
%TO.P,REF\u002A\u002A,32*%
X115570000Y-66040000D03*
%TO.P,REF\u002A\u002A,33*%
X113030000Y-63500000D03*
%TO.P,REF\u002A\u002A,34*%
X113030000Y-66040000D03*
%TO.P,REF\u002A\u002A,35*%
X110490000Y-63500000D03*
%TO.P,REF\u002A\u002A,36*%
X110490000Y-66040000D03*
%TO.P,REF\u002A\u002A,37*%
X107950000Y-63500000D03*
%TO.P,REF\u002A\u002A,38*%
X107950000Y-66040000D03*
%TO.P,REF\u002A\u002A,39*%
X105410000Y-63500000D03*
%TO.P,REF\u002A\u002A,40*%
X105410000Y-66040000D03*
%TO.P,REF\u002A\u002A,41*%
X102870000Y-63500000D03*
%TO.P,REF\u002A\u002A,42*%
X102870000Y-66040000D03*
%TO.P,REF\u002A\u002A,43*%
X100330000Y-63500000D03*
%TO.P,REF\u002A\u002A,44*%
X100330000Y-66040000D03*
%TO.P,REF\u002A\u002A,45*%
X97790000Y-63500000D03*
%TO.P,REF\u002A\u002A,46*%
X97790000Y-66040000D03*
%TO.P,REF\u002A\u002A,47*%
X95250000Y-63500000D03*
%TO.P,REF\u002A\u002A,48*%
X95250000Y-66040000D03*
%TO.P,REF\u002A\u002A,49*%
X92710000Y-63500000D03*
%TO.P,REF\u002A\u002A,50*%
X92710000Y-66040000D03*
%TO.P,REF\u002A\u002A,51*%
X90170000Y-63500000D03*
%TO.P,REF\u002A\u002A,52*%
X90170000Y-66040000D03*
%TO.P,REF\u002A\u002A,53*%
X87630000Y-63500000D03*
%TO.P,REF\u002A\u002A,54*%
X87630000Y-66040000D03*
%TO.P,REF\u002A\u002A,55*%
X85090000Y-63500000D03*
%TO.P,REF\u002A\u002A,56*%
X85090000Y-66040000D03*
%TO.P,REF\u002A\u002A,57*%
X82550000Y-63500000D03*
%TO.P,REF\u002A\u002A,58*%
X82550000Y-66040000D03*
%TO.P,REF\u002A\u002A,59*%
X80010000Y-63500000D03*
%TO.P,REF\u002A\u002A,60*%
X80010000Y-66040000D03*
%TO.P,REF\u002A\u002A,61*%
X77470000Y-63500000D03*
%TO.P,REF\u002A\u002A,62*%
X77470000Y-66040000D03*
%TO.P,REF\u002A\u002A,63*%
X74930000Y-63500000D03*
%TO.P,REF\u002A\u002A,64*%
X74930000Y-66040000D03*
%TO.P,REF\u002A\u002A,65*%
X72390000Y-63500000D03*
%TO.P,REF\u002A\u002A,66*%
X72390000Y-66040000D03*
%TO.P,REF\u002A\u002A,67*%
X69850000Y-63500000D03*
%TO.P,REF\u002A\u002A,68*%
X69850000Y-66040000D03*
%TO.P,REF\u002A\u002A,69*%
X67310000Y-63500000D03*
%TO.P,REF\u002A\u002A,70*%
X67310000Y-66040000D03*
%TO.P,REF\u002A\u002A,71*%
X64770000Y-63500000D03*
%TO.P,REF\u002A\u002A,72*%
X64770000Y-66040000D03*
%TO.P,REF\u002A\u002A,73*%
X62230000Y-63500000D03*
%TO.P,REF\u002A\u002A,74*%
X62230000Y-66040000D03*
%TO.P,REF\u002A\u002A,75*%
X59690000Y-63500000D03*
%TO.P,REF\u002A\u002A,76*%
X59690000Y-66040000D03*
%TO.P,REF\u002A\u002A,77*%
X57150000Y-63500000D03*
%TO.P,REF\u002A\u002A,78*%
X57150000Y-66040000D03*
%TO.P,REF\u002A\u002A,79*%
X54610000Y-63500000D03*
%TO.P,REF\u002A\u002A,80*%
X54610000Y-66040000D03*
%TD*%
%TO.P,REF\u002A\u002A,80*%
%TO.N,N/C*%
X54610000Y-111760000D03*
%TO.P,REF\u002A\u002A,79*%
X54610000Y-109220000D03*
%TO.P,REF\u002A\u002A,78*%
X57150000Y-111760000D03*
%TO.P,REF\u002A\u002A,77*%
X57150000Y-109220000D03*
%TO.P,REF\u002A\u002A,76*%
X59690000Y-111760000D03*
%TO.P,REF\u002A\u002A,75*%
X59690000Y-109220000D03*
%TO.P,REF\u002A\u002A,74*%
X62230000Y-111760000D03*
%TO.P,REF\u002A\u002A,73*%
X62230000Y-109220000D03*
%TO.P,REF\u002A\u002A,72*%
X64770000Y-111760000D03*
%TO.P,REF\u002A\u002A,71*%
X64770000Y-109220000D03*
%TO.P,REF\u002A\u002A,70*%
X67310000Y-111760000D03*
%TO.P,REF\u002A\u002A,69*%
X67310000Y-109220000D03*
%TO.P,REF\u002A\u002A,68*%
X69850000Y-111760000D03*
%TO.P,REF\u002A\u002A,67*%
X69850000Y-109220000D03*
%TO.P,REF\u002A\u002A,66*%
X72390000Y-111760000D03*
%TO.P,REF\u002A\u002A,65*%
X72390000Y-109220000D03*
%TO.P,REF\u002A\u002A,64*%
X74930000Y-111760000D03*
%TO.P,REF\u002A\u002A,63*%
X74930000Y-109220000D03*
%TO.P,REF\u002A\u002A,62*%
X77470000Y-111760000D03*
%TO.P,REF\u002A\u002A,61*%
X77470000Y-109220000D03*
%TO.P,REF\u002A\u002A,60*%
X80010000Y-111760000D03*
%TO.P,REF\u002A\u002A,59*%
X80010000Y-109220000D03*
%TO.P,REF\u002A\u002A,58*%
X82550000Y-111760000D03*
%TO.P,REF\u002A\u002A,57*%
X82550000Y-109220000D03*
%TO.P,REF\u002A\u002A,56*%
X85090000Y-111760000D03*
%TO.P,REF\u002A\u002A,55*%
X85090000Y-109220000D03*
%TO.P,REF\u002A\u002A,54*%
X87630000Y-111760000D03*
%TO.P,REF\u002A\u002A,53*%
X87630000Y-109220000D03*
%TO.P,REF\u002A\u002A,52*%
X90170000Y-111760000D03*
%TO.P,REF\u002A\u002A,51*%
X90170000Y-109220000D03*
%TO.P,REF\u002A\u002A,50*%
X92710000Y-111760000D03*
%TO.P,REF\u002A\u002A,49*%
X92710000Y-109220000D03*
%TO.P,REF\u002A\u002A,48*%
X95250000Y-111760000D03*
%TO.P,REF\u002A\u002A,47*%
X95250000Y-109220000D03*
%TO.P,REF\u002A\u002A,46*%
X97790000Y-111760000D03*
%TO.P,REF\u002A\u002A,45*%
X97790000Y-109220000D03*
%TO.P,REF\u002A\u002A,44*%
X100330000Y-111760000D03*
%TO.P,REF\u002A\u002A,43*%
X100330000Y-109220000D03*
%TO.P,REF\u002A\u002A,42*%
X102870000Y-111760000D03*
%TO.P,REF\u002A\u002A,41*%
X102870000Y-109220000D03*
%TO.P,REF\u002A\u002A,40*%
X105410000Y-111760000D03*
%TO.P,REF\u002A\u002A,39*%
X105410000Y-109220000D03*
%TO.P,REF\u002A\u002A,38*%
X107950000Y-111760000D03*
%TO.P,REF\u002A\u002A,37*%
X107950000Y-109220000D03*
%TO.P,REF\u002A\u002A,36*%
X110490000Y-111760000D03*
%TO.P,REF\u002A\u002A,35*%
X110490000Y-109220000D03*
%TO.P,REF\u002A\u002A,34*%
X113030000Y-111760000D03*
%TO.P,REF\u002A\u002A,33*%
X113030000Y-109220000D03*
%TO.P,REF\u002A\u002A,32*%
X115570000Y-111760000D03*
%TO.P,REF\u002A\u002A,31*%
X115570000Y-109220000D03*
%TO.P,REF\u002A\u002A,30*%
X118110000Y-111760000D03*
%TO.P,REF\u002A\u002A,29*%
X118110000Y-109220000D03*
%TO.P,REF\u002A\u002A,28*%
X120650000Y-111760000D03*
%TO.P,REF\u002A\u002A,27*%
X120650000Y-109220000D03*
%TO.P,REF\u002A\u002A,26*%
X123190000Y-111760000D03*
%TO.P,REF\u002A\u002A,25*%
X123190000Y-109220000D03*
%TO.P,REF\u002A\u002A,24*%
X125730000Y-111760000D03*
%TO.P,REF\u002A\u002A,23*%
X125730000Y-109220000D03*
%TO.P,REF\u002A\u002A,22*%
X128270000Y-111760000D03*
%TO.P,REF\u002A\u002A,21*%
X128270000Y-109220000D03*
%TO.P,REF\u002A\u002A,20*%
X130810000Y-111760000D03*
%TO.P,REF\u002A\u002A,19*%
X130810000Y-109220000D03*
%TO.P,REF\u002A\u002A,18*%
X133350000Y-111760000D03*
%TO.P,REF\u002A\u002A,17*%
X133350000Y-109220000D03*
%TO.P,REF\u002A\u002A,16*%
X135890000Y-111760000D03*
%TO.P,REF\u002A\u002A,15*%
X135890000Y-109220000D03*
%TO.P,REF\u002A\u002A,14*%
X138430000Y-111760000D03*
%TO.P,REF\u002A\u002A,13*%
X138430000Y-109220000D03*
%TO.P,REF\u002A\u002A,12*%
X140970000Y-111760000D03*
%TO.P,REF\u002A\u002A,11*%
X140970000Y-109220000D03*
%TO.P,REF\u002A\u002A,10*%
X143510000Y-111760000D03*
%TO.P,REF\u002A\u002A,9*%
X143510000Y-109220000D03*
%TO.P,REF\u002A\u002A,8*%
X146050000Y-111760000D03*
%TO.P,REF\u002A\u002A,7*%
X146050000Y-109220000D03*
%TO.P,REF\u002A\u002A,6*%
X148590000Y-111760000D03*
%TO.P,REF\u002A\u002A,5*%
X148590000Y-109220000D03*
%TO.P,REF\u002A\u002A,4*%
X151130000Y-111760000D03*
%TO.P,REF\u002A\u002A,3*%
X151130000Y-109220000D03*
%TO.P,REF\u002A\u002A,2*%
X153670000Y-111760000D03*
D14*
%TO.P,REF\u002A\u002A,1*%
X153670000Y-109220000D03*
%TD*%
%TO.P,REF\u002A\u002A,1*%
%TO.N,N/C*%
X153670000Y-68580000D03*
D12*
%TO.P,REF\u002A\u002A,2*%
X153670000Y-71120000D03*
%TO.P,REF\u002A\u002A,3*%
X151130000Y-68580000D03*
%TO.P,REF\u002A\u002A,4*%
X151130000Y-71120000D03*
%TO.P,REF\u002A\u002A,5*%
X148590000Y-68580000D03*
%TO.P,REF\u002A\u002A,6*%
X148590000Y-71120000D03*
%TO.P,REF\u002A\u002A,7*%
X146050000Y-68580000D03*
%TO.P,REF\u002A\u002A,8*%
X146050000Y-71120000D03*
%TO.P,REF\u002A\u002A,9*%
X143510000Y-68580000D03*
%TO.P,REF\u002A\u002A,10*%
X143510000Y-71120000D03*
%TO.P,REF\u002A\u002A,11*%
X140970000Y-68580000D03*
%TO.P,REF\u002A\u002A,12*%
X140970000Y-71120000D03*
%TO.P,REF\u002A\u002A,13*%
X138430000Y-68580000D03*
%TO.P,REF\u002A\u002A,14*%
X138430000Y-71120000D03*
%TO.P,REF\u002A\u002A,15*%
X135890000Y-68580000D03*
%TO.P,REF\u002A\u002A,16*%
X135890000Y-71120000D03*
%TO.P,REF\u002A\u002A,17*%
X133350000Y-68580000D03*
%TO.P,REF\u002A\u002A,18*%
X133350000Y-71120000D03*
%TO.P,REF\u002A\u002A,19*%
X130810000Y-68580000D03*
%TO.P,REF\u002A\u002A,20*%
X130810000Y-71120000D03*
%TO.P,REF\u002A\u002A,21*%
X128270000Y-68580000D03*
%TO.P,REF\u002A\u002A,22*%
X128270000Y-71120000D03*
%TO.P,REF\u002A\u002A,23*%
X125730000Y-68580000D03*
%TO.P,REF\u002A\u002A,24*%
X125730000Y-71120000D03*
%TO.P,REF\u002A\u002A,25*%
X123190000Y-68580000D03*
%TO.P,REF\u002A\u002A,26*%
X123190000Y-71120000D03*
%TO.P,REF\u002A\u002A,27*%
X120650000Y-68580000D03*
%TO.P,REF\u002A\u002A,28*%
X120650000Y-71120000D03*
%TO.P,REF\u002A\u002A,29*%
X118110000Y-68580000D03*
%TO.P,REF\u002A\u002A,30*%
X118110000Y-71120000D03*
%TO.P,REF\u002A\u002A,31*%
X115570000Y-68580000D03*
%TO.P,REF\u002A\u002A,32*%
X115570000Y-71120000D03*
%TO.P,REF\u002A\u002A,33*%
X113030000Y-68580000D03*
%TO.P,REF\u002A\u002A,34*%
X113030000Y-71120000D03*
%TO.P,REF\u002A\u002A,35*%
X110490000Y-68580000D03*
%TO.P,REF\u002A\u002A,36*%
X110490000Y-71120000D03*
%TO.P,REF\u002A\u002A,37*%
X107950000Y-68580000D03*
%TO.P,REF\u002A\u002A,38*%
X107950000Y-71120000D03*
%TO.P,REF\u002A\u002A,39*%
X105410000Y-68580000D03*
%TO.P,REF\u002A\u002A,40*%
X105410000Y-71120000D03*
%TO.P,REF\u002A\u002A,41*%
X102870000Y-68580000D03*
%TO.P,REF\u002A\u002A,42*%
X102870000Y-71120000D03*
%TO.P,REF\u002A\u002A,43*%
X100330000Y-68580000D03*
%TO.P,REF\u002A\u002A,44*%
X100330000Y-71120000D03*
%TO.P,REF\u002A\u002A,45*%
X97790000Y-68580000D03*
%TO.P,REF\u002A\u002A,46*%
X97790000Y-71120000D03*
%TO.P,REF\u002A\u002A,47*%
X95250000Y-68580000D03*
%TO.P,REF\u002A\u002A,48*%
X95250000Y-71120000D03*
%TO.P,REF\u002A\u002A,49*%
X92710000Y-68580000D03*
%TO.P,REF\u002A\u002A,50*%
X92710000Y-71120000D03*
%TO.P,REF\u002A\u002A,51*%
X90170000Y-68580000D03*
%TO.P,REF\u002A\u002A,52*%
X90170000Y-71120000D03*
%TO.P,REF\u002A\u002A,53*%
X87630000Y-68580000D03*
%TO.P,REF\u002A\u002A,54*%
X87630000Y-71120000D03*
%TO.P,REF\u002A\u002A,55*%
X85090000Y-68580000D03*
%TO.P,REF\u002A\u002A,56*%
X85090000Y-71120000D03*
%TO.P,REF\u002A\u002A,57*%
X82550000Y-68580000D03*
%TO.P,REF\u002A\u002A,58*%
X82550000Y-71120000D03*
%TO.P,REF\u002A\u002A,59*%
X80010000Y-68580000D03*
%TO.P,REF\u002A\u002A,60*%
X80010000Y-71120000D03*
%TO.P,REF\u002A\u002A,61*%
X77470000Y-68580000D03*
%TO.P,REF\u002A\u002A,62*%
X77470000Y-71120000D03*
%TO.P,REF\u002A\u002A,63*%
X74930000Y-68580000D03*
%TO.P,REF\u002A\u002A,64*%
X74930000Y-71120000D03*
%TO.P,REF\u002A\u002A,65*%
X72390000Y-68580000D03*
%TO.P,REF\u002A\u002A,66*%
X72390000Y-71120000D03*
%TO.P,REF\u002A\u002A,67*%
X69850000Y-68580000D03*
%TO.P,REF\u002A\u002A,68*%
X69850000Y-71120000D03*
%TO.P,REF\u002A\u002A,69*%
X67310000Y-68580000D03*
%TO.P,REF\u002A\u002A,70*%
X67310000Y-71120000D03*
%TO.P,REF\u002A\u002A,71*%
X64770000Y-68580000D03*
%TO.P,REF\u002A\u002A,72*%
X64770000Y-71120000D03*
%TO.P,REF\u002A\u002A,73*%
X62230000Y-68580000D03*
%TO.P,REF\u002A\u002A,74*%
X62230000Y-71120000D03*
%TO.P,REF\u002A\u002A,75*%
X59690000Y-68580000D03*
%TO.P,REF\u002A\u002A,76*%
X59690000Y-71120000D03*
%TO.P,REF\u002A\u002A,77*%
X57150000Y-68580000D03*
%TO.P,REF\u002A\u002A,78*%
X57150000Y-71120000D03*
%TO.P,REF\u002A\u002A,79*%
X54610000Y-68580000D03*
%TO.P,REF\u002A\u002A,80*%
X54610000Y-71120000D03*
%TD*%
D14*
%TO.P,REF\u002A\u002A,1*%
%TO.N,N/C*%
X153670000Y-83820000D03*
D12*
%TO.P,REF\u002A\u002A,2*%
X153670000Y-86360000D03*
%TO.P,REF\u002A\u002A,3*%
X151130000Y-83820000D03*
%TO.P,REF\u002A\u002A,4*%
X151130000Y-86360000D03*
%TO.P,REF\u002A\u002A,5*%
X148590000Y-83820000D03*
%TO.P,REF\u002A\u002A,6*%
X148590000Y-86360000D03*
%TO.P,REF\u002A\u002A,7*%
X146050000Y-83820000D03*
%TO.P,REF\u002A\u002A,8*%
X146050000Y-86360000D03*
%TO.P,REF\u002A\u002A,9*%
X143510000Y-83820000D03*
%TO.P,REF\u002A\u002A,10*%
X143510000Y-86360000D03*
%TO.P,REF\u002A\u002A,11*%
X140970000Y-83820000D03*
%TO.P,REF\u002A\u002A,12*%
X140970000Y-86360000D03*
%TO.P,REF\u002A\u002A,13*%
X138430000Y-83820000D03*
%TO.P,REF\u002A\u002A,14*%
X138430000Y-86360000D03*
%TO.P,REF\u002A\u002A,15*%
X135890000Y-83820000D03*
%TO.P,REF\u002A\u002A,16*%
X135890000Y-86360000D03*
%TO.P,REF\u002A\u002A,17*%
X133350000Y-83820000D03*
%TO.P,REF\u002A\u002A,18*%
X133350000Y-86360000D03*
%TO.P,REF\u002A\u002A,19*%
X130810000Y-83820000D03*
%TO.P,REF\u002A\u002A,20*%
X130810000Y-86360000D03*
%TO.P,REF\u002A\u002A,21*%
X128270000Y-83820000D03*
%TO.P,REF\u002A\u002A,22*%
X128270000Y-86360000D03*
%TO.P,REF\u002A\u002A,23*%
X125730000Y-83820000D03*
%TO.P,REF\u002A\u002A,24*%
X125730000Y-86360000D03*
%TO.P,REF\u002A\u002A,25*%
X123190000Y-83820000D03*
%TO.P,REF\u002A\u002A,26*%
X123190000Y-86360000D03*
%TO.P,REF\u002A\u002A,27*%
X120650000Y-83820000D03*
%TO.P,REF\u002A\u002A,28*%
X120650000Y-86360000D03*
%TO.P,REF\u002A\u002A,29*%
X118110000Y-83820000D03*
%TO.P,REF\u002A\u002A,30*%
X118110000Y-86360000D03*
%TO.P,REF\u002A\u002A,31*%
X115570000Y-83820000D03*
%TO.P,REF\u002A\u002A,32*%
X115570000Y-86360000D03*
%TO.P,REF\u002A\u002A,33*%
X113030000Y-83820000D03*
%TO.P,REF\u002A\u002A,34*%
X113030000Y-86360000D03*
%TO.P,REF\u002A\u002A,35*%
X110490000Y-83820000D03*
%TO.P,REF\u002A\u002A,36*%
X110490000Y-86360000D03*
%TO.P,REF\u002A\u002A,37*%
X107950000Y-83820000D03*
%TO.P,REF\u002A\u002A,38*%
X107950000Y-86360000D03*
%TO.P,REF\u002A\u002A,39*%
X105410000Y-83820000D03*
%TO.P,REF\u002A\u002A,40*%
X105410000Y-86360000D03*
%TO.P,REF\u002A\u002A,41*%
X102870000Y-83820000D03*
%TO.P,REF\u002A\u002A,42*%
X102870000Y-86360000D03*
%TO.P,REF\u002A\u002A,43*%
X100330000Y-83820000D03*
%TO.P,REF\u002A\u002A,44*%
X100330000Y-86360000D03*
%TO.P,REF\u002A\u002A,45*%
X97790000Y-83820000D03*
%TO.P,REF\u002A\u002A,46*%
X97790000Y-86360000D03*
%TO.P,REF\u002A\u002A,47*%
X95250000Y-83820000D03*
%TO.P,REF\u002A\u002A,48*%
X95250000Y-86360000D03*
%TO.P,REF\u002A\u002A,49*%
X92710000Y-83820000D03*
%TO.P,REF\u002A\u002A,50*%
X92710000Y-86360000D03*
%TO.P,REF\u002A\u002A,51*%
X90170000Y-83820000D03*
%TO.P,REF\u002A\u002A,52*%
X90170000Y-86360000D03*
%TO.P,REF\u002A\u002A,53*%
X87630000Y-83820000D03*
%TO.P,REF\u002A\u002A,54*%
X87630000Y-86360000D03*
%TO.P,REF\u002A\u002A,55*%
X85090000Y-83820000D03*
%TO.P,REF\u002A\u002A,56*%
X85090000Y-86360000D03*
%TO.P,REF\u002A\u002A,57*%
X82550000Y-83820000D03*
%TO.P,REF\u002A\u002A,58*%
X82550000Y-86360000D03*
%TO.P,REF\u002A\u002A,59*%
X80010000Y-83820000D03*
%TO.P,REF\u002A\u002A,60*%
X80010000Y-86360000D03*
%TO.P,REF\u002A\u002A,61*%
X77470000Y-83820000D03*
%TO.P,REF\u002A\u002A,62*%
X77470000Y-86360000D03*
%TO.P,REF\u002A\u002A,63*%
X74930000Y-83820000D03*
%TO.P,REF\u002A\u002A,64*%
X74930000Y-86360000D03*
%TO.P,REF\u002A\u002A,65*%
X72390000Y-83820000D03*
%TO.P,REF\u002A\u002A,66*%
X72390000Y-86360000D03*
%TO.P,REF\u002A\u002A,67*%
X69850000Y-83820000D03*
%TO.P,REF\u002A\u002A,68*%
X69850000Y-86360000D03*
%TO.P,REF\u002A\u002A,69*%
X67310000Y-83820000D03*
%TO.P,REF\u002A\u002A,70*%
X67310000Y-86360000D03*
%TO.P,REF\u002A\u002A,71*%
X64770000Y-83820000D03*
%TO.P,REF\u002A\u002A,72*%
X64770000Y-86360000D03*
%TO.P,REF\u002A\u002A,73*%
X62230000Y-83820000D03*
%TO.P,REF\u002A\u002A,74*%
X62230000Y-86360000D03*
%TO.P,REF\u002A\u002A,75*%
X59690000Y-83820000D03*
%TO.P,REF\u002A\u002A,76*%
X59690000Y-86360000D03*
%TO.P,REF\u002A\u002A,77*%
X57150000Y-83820000D03*
%TO.P,REF\u002A\u002A,78*%
X57150000Y-86360000D03*
%TO.P,REF\u002A\u002A,79*%
X54610000Y-83820000D03*
%TO.P,REF\u002A\u002A,80*%
X54610000Y-86360000D03*
%TD*%
D14*
%TO.P,REF\u002A\u002A,1*%
%TO.N,N/C*%
X153670000Y-78740000D03*
D12*
%TO.P,REF\u002A\u002A,2*%
X153670000Y-81280000D03*
%TO.P,REF\u002A\u002A,3*%
X151130000Y-78740000D03*
%TO.P,REF\u002A\u002A,4*%
X151130000Y-81280000D03*
%TO.P,REF\u002A\u002A,5*%
X148590000Y-78740000D03*
%TO.P,REF\u002A\u002A,6*%
X148590000Y-81280000D03*
%TO.P,REF\u002A\u002A,7*%
X146050000Y-78740000D03*
%TO.P,REF\u002A\u002A,8*%
X146050000Y-81280000D03*
%TO.P,REF\u002A\u002A,9*%
X143510000Y-78740000D03*
%TO.P,REF\u002A\u002A,10*%
X143510000Y-81280000D03*
%TO.P,REF\u002A\u002A,11*%
X140970000Y-78740000D03*
%TO.P,REF\u002A\u002A,12*%
X140970000Y-81280000D03*
%TO.P,REF\u002A\u002A,13*%
X138430000Y-78740000D03*
%TO.P,REF\u002A\u002A,14*%
X138430000Y-81280000D03*
%TO.P,REF\u002A\u002A,15*%
X135890000Y-78740000D03*
%TO.P,REF\u002A\u002A,16*%
X135890000Y-81280000D03*
%TO.P,REF\u002A\u002A,17*%
X133350000Y-78740000D03*
%TO.P,REF\u002A\u002A,18*%
X133350000Y-81280000D03*
%TO.P,REF\u002A\u002A,19*%
X130810000Y-78740000D03*
%TO.P,REF\u002A\u002A,20*%
X130810000Y-81280000D03*
%TO.P,REF\u002A\u002A,21*%
X128270000Y-78740000D03*
%TO.P,REF\u002A\u002A,22*%
X128270000Y-81280000D03*
%TO.P,REF\u002A\u002A,23*%
X125730000Y-78740000D03*
%TO.P,REF\u002A\u002A,24*%
X125730000Y-81280000D03*
%TO.P,REF\u002A\u002A,25*%
X123190000Y-78740000D03*
%TO.P,REF\u002A\u002A,26*%
X123190000Y-81280000D03*
%TO.P,REF\u002A\u002A,27*%
X120650000Y-78740000D03*
%TO.P,REF\u002A\u002A,28*%
X120650000Y-81280000D03*
%TO.P,REF\u002A\u002A,29*%
X118110000Y-78740000D03*
%TO.P,REF\u002A\u002A,30*%
X118110000Y-81280000D03*
%TO.P,REF\u002A\u002A,31*%
X115570000Y-78740000D03*
%TO.P,REF\u002A\u002A,32*%
X115570000Y-81280000D03*
%TO.P,REF\u002A\u002A,33*%
X113030000Y-78740000D03*
%TO.P,REF\u002A\u002A,34*%
X113030000Y-81280000D03*
%TO.P,REF\u002A\u002A,35*%
X110490000Y-78740000D03*
%TO.P,REF\u002A\u002A,36*%
X110490000Y-81280000D03*
%TO.P,REF\u002A\u002A,37*%
X107950000Y-78740000D03*
%TO.P,REF\u002A\u002A,38*%
X107950000Y-81280000D03*
%TO.P,REF\u002A\u002A,39*%
X105410000Y-78740000D03*
%TO.P,REF\u002A\u002A,40*%
X105410000Y-81280000D03*
%TO.P,REF\u002A\u002A,41*%
X102870000Y-78740000D03*
%TO.P,REF\u002A\u002A,42*%
X102870000Y-81280000D03*
%TO.P,REF\u002A\u002A,43*%
X100330000Y-78740000D03*
%TO.P,REF\u002A\u002A,44*%
X100330000Y-81280000D03*
%TO.P,REF\u002A\u002A,45*%
X97790000Y-78740000D03*
%TO.P,REF\u002A\u002A,46*%
X97790000Y-81280000D03*
%TO.P,REF\u002A\u002A,47*%
X95250000Y-78740000D03*
%TO.P,REF\u002A\u002A,48*%
X95250000Y-81280000D03*
%TO.P,REF\u002A\u002A,49*%
X92710000Y-78740000D03*
%TO.P,REF\u002A\u002A,50*%
X92710000Y-81280000D03*
%TO.P,REF\u002A\u002A,51*%
X90170000Y-78740000D03*
%TO.P,REF\u002A\u002A,52*%
X90170000Y-81280000D03*
%TO.P,REF\u002A\u002A,53*%
X87630000Y-78740000D03*
%TO.P,REF\u002A\u002A,54*%
X87630000Y-81280000D03*
%TO.P,REF\u002A\u002A,55*%
X85090000Y-78740000D03*
%TO.P,REF\u002A\u002A,56*%
X85090000Y-81280000D03*
%TO.P,REF\u002A\u002A,57*%
X82550000Y-78740000D03*
%TO.P,REF\u002A\u002A,58*%
X82550000Y-81280000D03*
%TO.P,REF\u002A\u002A,59*%
X80010000Y-78740000D03*
%TO.P,REF\u002A\u002A,60*%
X80010000Y-81280000D03*
%TO.P,REF\u002A\u002A,61*%
X77470000Y-78740000D03*
%TO.P,REF\u002A\u002A,62*%
X77470000Y-81280000D03*
%TO.P,REF\u002A\u002A,63*%
X74930000Y-78740000D03*
%TO.P,REF\u002A\u002A,64*%
X74930000Y-81280000D03*
%TO.P,REF\u002A\u002A,65*%
X72390000Y-78740000D03*
%TO.P,REF\u002A\u002A,66*%
X72390000Y-81280000D03*
%TO.P,REF\u002A\u002A,67*%
X69850000Y-78740000D03*
%TO.P,REF\u002A\u002A,68*%
X69850000Y-81280000D03*
%TO.P,REF\u002A\u002A,69*%
X67310000Y-78740000D03*
%TO.P,REF\u002A\u002A,70*%
X67310000Y-81280000D03*
%TO.P,REF\u002A\u002A,71*%
X64770000Y-78740000D03*
%TO.P,REF\u002A\u002A,72*%
X64770000Y-81280000D03*
%TO.P,REF\u002A\u002A,73*%
X62230000Y-78740000D03*
%TO.P,REF\u002A\u002A,74*%
X62230000Y-81280000D03*
%TO.P,REF\u002A\u002A,75*%
X59690000Y-78740000D03*
%TO.P,REF\u002A\u002A,76*%
X59690000Y-81280000D03*
%TO.P,REF\u002A\u002A,77*%
X57150000Y-78740000D03*
%TO.P,REF\u002A\u002A,78*%
X57150000Y-81280000D03*
%TO.P,REF\u002A\u002A,79*%
X54610000Y-78740000D03*
%TO.P,REF\u002A\u002A,80*%
X54610000Y-81280000D03*
%TD*%
%TO.P,REF\u002A\u002A,80*%
%TO.N,N/C*%
X54610000Y-106680000D03*
%TO.P,REF\u002A\u002A,79*%
X54610000Y-104140000D03*
%TO.P,REF\u002A\u002A,78*%
X57150000Y-106680000D03*
%TO.P,REF\u002A\u002A,77*%
X57150000Y-104140000D03*
%TO.P,REF\u002A\u002A,76*%
X59690000Y-106680000D03*
%TO.P,REF\u002A\u002A,75*%
X59690000Y-104140000D03*
%TO.P,REF\u002A\u002A,74*%
X62230000Y-106680000D03*
%TO.P,REF\u002A\u002A,73*%
X62230000Y-104140000D03*
%TO.P,REF\u002A\u002A,72*%
X64770000Y-106680000D03*
%TO.P,REF\u002A\u002A,71*%
X64770000Y-104140000D03*
%TO.P,REF\u002A\u002A,70*%
X67310000Y-106680000D03*
%TO.P,REF\u002A\u002A,69*%
X67310000Y-104140000D03*
%TO.P,REF\u002A\u002A,68*%
X69850000Y-106680000D03*
%TO.P,REF\u002A\u002A,67*%
X69850000Y-104140000D03*
%TO.P,REF\u002A\u002A,66*%
X72390000Y-106680000D03*
%TO.P,REF\u002A\u002A,65*%
X72390000Y-104140000D03*
%TO.P,REF\u002A\u002A,64*%
X74930000Y-106680000D03*
%TO.P,REF\u002A\u002A,63*%
X74930000Y-104140000D03*
%TO.P,REF\u002A\u002A,62*%
X77470000Y-106680000D03*
%TO.P,REF\u002A\u002A,61*%
X77470000Y-104140000D03*
%TO.P,REF\u002A\u002A,60*%
X80010000Y-106680000D03*
%TO.P,REF\u002A\u002A,59*%
X80010000Y-104140000D03*
%TO.P,REF\u002A\u002A,58*%
X82550000Y-106680000D03*
%TO.P,REF\u002A\u002A,57*%
X82550000Y-104140000D03*
%TO.P,REF\u002A\u002A,56*%
X85090000Y-106680000D03*
%TO.P,REF\u002A\u002A,55*%
X85090000Y-104140000D03*
%TO.P,REF\u002A\u002A,54*%
X87630000Y-106680000D03*
%TO.P,REF\u002A\u002A,53*%
X87630000Y-104140000D03*
%TO.P,REF\u002A\u002A,52*%
X90170000Y-106680000D03*
%TO.P,REF\u002A\u002A,51*%
X90170000Y-104140000D03*
%TO.P,REF\u002A\u002A,50*%
X92710000Y-106680000D03*
%TO.P,REF\u002A\u002A,49*%
X92710000Y-104140000D03*
%TO.P,REF\u002A\u002A,48*%
X95250000Y-106680000D03*
%TO.P,REF\u002A\u002A,47*%
X95250000Y-104140000D03*
%TO.P,REF\u002A\u002A,46*%
X97790000Y-106680000D03*
%TO.P,REF\u002A\u002A,45*%
X97790000Y-104140000D03*
%TO.P,REF\u002A\u002A,44*%
X100330000Y-106680000D03*
%TO.P,REF\u002A\u002A,43*%
X100330000Y-104140000D03*
%TO.P,REF\u002A\u002A,42*%
X102870000Y-106680000D03*
%TO.P,REF\u002A\u002A,41*%
X102870000Y-104140000D03*
%TO.P,REF\u002A\u002A,40*%
X105410000Y-106680000D03*
%TO.P,REF\u002A\u002A,39*%
X105410000Y-104140000D03*
%TO.P,REF\u002A\u002A,38*%
X107950000Y-106680000D03*
%TO.P,REF\u002A\u002A,37*%
X107950000Y-104140000D03*
%TO.P,REF\u002A\u002A,36*%
X110490000Y-106680000D03*
%TO.P,REF\u002A\u002A,35*%
X110490000Y-104140000D03*
%TO.P,REF\u002A\u002A,34*%
X113030000Y-106680000D03*
%TO.P,REF\u002A\u002A,33*%
X113030000Y-104140000D03*
%TO.P,REF\u002A\u002A,32*%
X115570000Y-106680000D03*
%TO.P,REF\u002A\u002A,31*%
X115570000Y-104140000D03*
%TO.P,REF\u002A\u002A,30*%
X118110000Y-106680000D03*
%TO.P,REF\u002A\u002A,29*%
X118110000Y-104140000D03*
%TO.P,REF\u002A\u002A,28*%
X120650000Y-106680000D03*
%TO.P,REF\u002A\u002A,27*%
X120650000Y-104140000D03*
%TO.P,REF\u002A\u002A,26*%
X123190000Y-106680000D03*
%TO.P,REF\u002A\u002A,25*%
X123190000Y-104140000D03*
%TO.P,REF\u002A\u002A,24*%
X125730000Y-106680000D03*
%TO.P,REF\u002A\u002A,23*%
X125730000Y-104140000D03*
%TO.P,REF\u002A\u002A,22*%
X128270000Y-106680000D03*
%TO.P,REF\u002A\u002A,21*%
X128270000Y-104140000D03*
%TO.P,REF\u002A\u002A,20*%
X130810000Y-106680000D03*
%TO.P,REF\u002A\u002A,19*%
X130810000Y-104140000D03*
%TO.P,REF\u002A\u002A,18*%
X133350000Y-106680000D03*
%TO.P,REF\u002A\u002A,17*%
X133350000Y-104140000D03*
%TO.P,REF\u002A\u002A,16*%
X135890000Y-106680000D03*
%TO.P,REF\u002A\u002A,15*%
X135890000Y-104140000D03*
%TO.P,REF\u002A\u002A,14*%
X138430000Y-106680000D03*
%TO.P,REF\u002A\u002A,13*%
X138430000Y-104140000D03*
%TO.P,REF\u002A\u002A,12*%
X140970000Y-106680000D03*
%TO.P,REF\u002A\u002A,11*%
X140970000Y-104140000D03*
%TO.P,REF\u002A\u002A,10*%
X143510000Y-106680000D03*
%TO.P,REF\u002A\u002A,9*%
X143510000Y-104140000D03*
%TO.P,REF\u002A\u002A,8*%
X146050000Y-106680000D03*
%TO.P,REF\u002A\u002A,7*%
X146050000Y-104140000D03*
%TO.P,REF\u002A\u002A,6*%
X148590000Y-106680000D03*
%TO.P,REF\u002A\u002A,5*%
X148590000Y-104140000D03*
%TO.P,REF\u002A\u002A,4*%
X151130000Y-106680000D03*
%TO.P,REF\u002A\u002A,3*%
X151130000Y-104140000D03*
%TO.P,REF\u002A\u002A,2*%
X153670000Y-106680000D03*
D14*
%TO.P,REF\u002A\u002A,1*%
X153670000Y-104140000D03*
%TD*%
D12*
%TO.P,REF\u002A\u002A,80*%
%TO.N,N/C*%
X54610000Y-121920000D03*
%TO.P,REF\u002A\u002A,79*%
X54610000Y-119380000D03*
%TO.P,REF\u002A\u002A,78*%
X57150000Y-121920000D03*
%TO.P,REF\u002A\u002A,77*%
X57150000Y-119380000D03*
%TO.P,REF\u002A\u002A,76*%
X59690000Y-121920000D03*
%TO.P,REF\u002A\u002A,75*%
X59690000Y-119380000D03*
%TO.P,REF\u002A\u002A,74*%
X62230000Y-121920000D03*
%TO.P,REF\u002A\u002A,73*%
X62230000Y-119380000D03*
%TO.P,REF\u002A\u002A,72*%
X64770000Y-121920000D03*
%TO.P,REF\u002A\u002A,71*%
X64770000Y-119380000D03*
%TO.P,REF\u002A\u002A,70*%
X67310000Y-121920000D03*
%TO.P,REF\u002A\u002A,69*%
X67310000Y-119380000D03*
%TO.P,REF\u002A\u002A,68*%
X69850000Y-121920000D03*
%TO.P,REF\u002A\u002A,67*%
X69850000Y-119380000D03*
%TO.P,REF\u002A\u002A,66*%
X72390000Y-121920000D03*
%TO.P,REF\u002A\u002A,65*%
X72390000Y-119380000D03*
%TO.P,REF\u002A\u002A,64*%
X74930000Y-121920000D03*
%TO.P,REF\u002A\u002A,63*%
X74930000Y-119380000D03*
%TO.P,REF\u002A\u002A,62*%
X77470000Y-121920000D03*
%TO.P,REF\u002A\u002A,61*%
X77470000Y-119380000D03*
%TO.P,REF\u002A\u002A,60*%
X80010000Y-121920000D03*
%TO.P,REF\u002A\u002A,59*%
X80010000Y-119380000D03*
%TO.P,REF\u002A\u002A,58*%
X82550000Y-121920000D03*
%TO.P,REF\u002A\u002A,57*%
X82550000Y-119380000D03*
%TO.P,REF\u002A\u002A,56*%
X85090000Y-121920000D03*
%TO.P,REF\u002A\u002A,55*%
X85090000Y-119380000D03*
%TO.P,REF\u002A\u002A,54*%
X87630000Y-121920000D03*
%TO.P,REF\u002A\u002A,53*%
X87630000Y-119380000D03*
%TO.P,REF\u002A\u002A,52*%
X90170000Y-121920000D03*
%TO.P,REF\u002A\u002A,51*%
X90170000Y-119380000D03*
%TO.P,REF\u002A\u002A,50*%
X92710000Y-121920000D03*
%TO.P,REF\u002A\u002A,49*%
X92710000Y-119380000D03*
%TO.P,REF\u002A\u002A,48*%
X95250000Y-121920000D03*
%TO.P,REF\u002A\u002A,47*%
X95250000Y-119380000D03*
%TO.P,REF\u002A\u002A,46*%
X97790000Y-121920000D03*
%TO.P,REF\u002A\u002A,45*%
X97790000Y-119380000D03*
%TO.P,REF\u002A\u002A,44*%
X100330000Y-121920000D03*
%TO.P,REF\u002A\u002A,43*%
X100330000Y-119380000D03*
%TO.P,REF\u002A\u002A,42*%
X102870000Y-121920000D03*
%TO.P,REF\u002A\u002A,41*%
X102870000Y-119380000D03*
%TO.P,REF\u002A\u002A,40*%
X105410000Y-121920000D03*
%TO.P,REF\u002A\u002A,39*%
X105410000Y-119380000D03*
%TO.P,REF\u002A\u002A,38*%
X107950000Y-121920000D03*
%TO.P,REF\u002A\u002A,37*%
X107950000Y-119380000D03*
%TO.P,REF\u002A\u002A,36*%
X110490000Y-121920000D03*
%TO.P,REF\u002A\u002A,35*%
X110490000Y-119380000D03*
%TO.P,REF\u002A\u002A,34*%
X113030000Y-121920000D03*
%TO.P,REF\u002A\u002A,33*%
X113030000Y-119380000D03*
%TO.P,REF\u002A\u002A,32*%
X115570000Y-121920000D03*
%TO.P,REF\u002A\u002A,31*%
X115570000Y-119380000D03*
%TO.P,REF\u002A\u002A,30*%
X118110000Y-121920000D03*
%TO.P,REF\u002A\u002A,29*%
X118110000Y-119380000D03*
%TO.P,REF\u002A\u002A,28*%
X120650000Y-121920000D03*
%TO.P,REF\u002A\u002A,27*%
X120650000Y-119380000D03*
%TO.P,REF\u002A\u002A,26*%
X123190000Y-121920000D03*
%TO.P,REF\u002A\u002A,25*%
X123190000Y-119380000D03*
%TO.P,REF\u002A\u002A,24*%
X125730000Y-121920000D03*
%TO.P,REF\u002A\u002A,23*%
X125730000Y-119380000D03*
%TO.P,REF\u002A\u002A,22*%
X128270000Y-121920000D03*
%TO.P,REF\u002A\u002A,21*%
X128270000Y-119380000D03*
%TO.P,REF\u002A\u002A,20*%
X130810000Y-121920000D03*
%TO.P,REF\u002A\u002A,19*%
X130810000Y-119380000D03*
%TO.P,REF\u002A\u002A,18*%
X133350000Y-121920000D03*
%TO.P,REF\u002A\u002A,17*%
X133350000Y-119380000D03*
%TO.P,REF\u002A\u002A,16*%
X135890000Y-121920000D03*
%TO.P,REF\u002A\u002A,15*%
X135890000Y-119380000D03*
%TO.P,REF\u002A\u002A,14*%
X138430000Y-121920000D03*
%TO.P,REF\u002A\u002A,13*%
X138430000Y-119380000D03*
%TO.P,REF\u002A\u002A,12*%
X140970000Y-121920000D03*
%TO.P,REF\u002A\u002A,11*%
X140970000Y-119380000D03*
%TO.P,REF\u002A\u002A,10*%
X143510000Y-121920000D03*
%TO.P,REF\u002A\u002A,9*%
X143510000Y-119380000D03*
%TO.P,REF\u002A\u002A,8*%
X146050000Y-121920000D03*
%TO.P,REF\u002A\u002A,7*%
X146050000Y-119380000D03*
%TO.P,REF\u002A\u002A,6*%
X148590000Y-121920000D03*
%TO.P,REF\u002A\u002A,5*%
X148590000Y-119380000D03*
%TO.P,REF\u002A\u002A,4*%
X151130000Y-121920000D03*
%TO.P,REF\u002A\u002A,3*%
X151130000Y-119380000D03*
%TO.P,REF\u002A\u002A,2*%
X153670000Y-121920000D03*
D14*
%TO.P,REF\u002A\u002A,1*%
X153670000Y-119380000D03*
%TD*%
%TO.P,REF\u002A\u002A,1*%
%TO.N,N/C*%
X153670000Y-88900000D03*
D12*
%TO.P,REF\u002A\u002A,2*%
X153670000Y-91440000D03*
%TO.P,REF\u002A\u002A,3*%
X151130000Y-88900000D03*
%TO.P,REF\u002A\u002A,4*%
X151130000Y-91440000D03*
%TO.P,REF\u002A\u002A,5*%
X148590000Y-88900000D03*
%TO.P,REF\u002A\u002A,6*%
X148590000Y-91440000D03*
%TO.P,REF\u002A\u002A,7*%
X146050000Y-88900000D03*
%TO.P,REF\u002A\u002A,8*%
X146050000Y-91440000D03*
%TO.P,REF\u002A\u002A,9*%
X143510000Y-88900000D03*
%TO.P,REF\u002A\u002A,10*%
X143510000Y-91440000D03*
%TO.P,REF\u002A\u002A,11*%
X140970000Y-88900000D03*
%TO.P,REF\u002A\u002A,12*%
X140970000Y-91440000D03*
%TO.P,REF\u002A\u002A,13*%
X138430000Y-88900000D03*
%TO.P,REF\u002A\u002A,14*%
X138430000Y-91440000D03*
%TO.P,REF\u002A\u002A,15*%
X135890000Y-88900000D03*
%TO.P,REF\u002A\u002A,16*%
X135890000Y-91440000D03*
%TO.P,REF\u002A\u002A,17*%
X133350000Y-88900000D03*
%TO.P,REF\u002A\u002A,18*%
X133350000Y-91440000D03*
%TO.P,REF\u002A\u002A,19*%
X130810000Y-88900000D03*
%TO.P,REF\u002A\u002A,20*%
X130810000Y-91440000D03*
%TO.P,REF\u002A\u002A,21*%
X128270000Y-88900000D03*
%TO.P,REF\u002A\u002A,22*%
X128270000Y-91440000D03*
%TO.P,REF\u002A\u002A,23*%
X125730000Y-88900000D03*
%TO.P,REF\u002A\u002A,24*%
X125730000Y-91440000D03*
%TO.P,REF\u002A\u002A,25*%
X123190000Y-88900000D03*
%TO.P,REF\u002A\u002A,26*%
X123190000Y-91440000D03*
%TO.P,REF\u002A\u002A,27*%
X120650000Y-88900000D03*
%TO.P,REF\u002A\u002A,28*%
X120650000Y-91440000D03*
%TO.P,REF\u002A\u002A,29*%
X118110000Y-88900000D03*
%TO.P,REF\u002A\u002A,30*%
X118110000Y-91440000D03*
%TO.P,REF\u002A\u002A,31*%
X115570000Y-88900000D03*
%TO.P,REF\u002A\u002A,32*%
X115570000Y-91440000D03*
%TO.P,REF\u002A\u002A,33*%
X113030000Y-88900000D03*
%TO.P,REF\u002A\u002A,34*%
X113030000Y-91440000D03*
%TO.P,REF\u002A\u002A,35*%
X110490000Y-88900000D03*
%TO.P,REF\u002A\u002A,36*%
X110490000Y-91440000D03*
%TO.P,REF\u002A\u002A,37*%
X107950000Y-88900000D03*
%TO.P,REF\u002A\u002A,38*%
X107950000Y-91440000D03*
%TO.P,REF\u002A\u002A,39*%
X105410000Y-88900000D03*
%TO.P,REF\u002A\u002A,40*%
X105410000Y-91440000D03*
%TO.P,REF\u002A\u002A,41*%
X102870000Y-88900000D03*
%TO.P,REF\u002A\u002A,42*%
X102870000Y-91440000D03*
%TO.P,REF\u002A\u002A,43*%
X100330000Y-88900000D03*
%TO.P,REF\u002A\u002A,44*%
X100330000Y-91440000D03*
%TO.P,REF\u002A\u002A,45*%
X97790000Y-88900000D03*
%TO.P,REF\u002A\u002A,46*%
X97790000Y-91440000D03*
%TO.P,REF\u002A\u002A,47*%
X95250000Y-88900000D03*
%TO.P,REF\u002A\u002A,48*%
X95250000Y-91440000D03*
%TO.P,REF\u002A\u002A,49*%
X92710000Y-88900000D03*
%TO.P,REF\u002A\u002A,50*%
X92710000Y-91440000D03*
%TO.P,REF\u002A\u002A,51*%
X90170000Y-88900000D03*
%TO.P,REF\u002A\u002A,52*%
X90170000Y-91440000D03*
%TO.P,REF\u002A\u002A,53*%
X87630000Y-88900000D03*
%TO.P,REF\u002A\u002A,54*%
X87630000Y-91440000D03*
%TO.P,REF\u002A\u002A,55*%
X85090000Y-88900000D03*
%TO.P,REF\u002A\u002A,56*%
X85090000Y-91440000D03*
%TO.P,REF\u002A\u002A,57*%
X82550000Y-88900000D03*
%TO.P,REF\u002A\u002A,58*%
X82550000Y-91440000D03*
%TO.P,REF\u002A\u002A,59*%
X80010000Y-88900000D03*
%TO.P,REF\u002A\u002A,60*%
X80010000Y-91440000D03*
%TO.P,REF\u002A\u002A,61*%
X77470000Y-88900000D03*
%TO.P,REF\u002A\u002A,62*%
X77470000Y-91440000D03*
%TO.P,REF\u002A\u002A,63*%
X74930000Y-88900000D03*
%TO.P,REF\u002A\u002A,64*%
X74930000Y-91440000D03*
%TO.P,REF\u002A\u002A,65*%
X72390000Y-88900000D03*
%TO.P,REF\u002A\u002A,66*%
X72390000Y-91440000D03*
%TO.P,REF\u002A\u002A,67*%
X69850000Y-88900000D03*
%TO.P,REF\u002A\u002A,68*%
X69850000Y-91440000D03*
%TO.P,REF\u002A\u002A,69*%
X67310000Y-88900000D03*
%TO.P,REF\u002A\u002A,70*%
X67310000Y-91440000D03*
%TO.P,REF\u002A\u002A,71*%
X64770000Y-88900000D03*
%TO.P,REF\u002A\u002A,72*%
X64770000Y-91440000D03*
%TO.P,REF\u002A\u002A,73*%
X62230000Y-88900000D03*
%TO.P,REF\u002A\u002A,74*%
X62230000Y-91440000D03*
%TO.P,REF\u002A\u002A,75*%
X59690000Y-88900000D03*
%TO.P,REF\u002A\u002A,76*%
X59690000Y-91440000D03*
%TO.P,REF\u002A\u002A,77*%
X57150000Y-88900000D03*
%TO.P,REF\u002A\u002A,78*%
X57150000Y-91440000D03*
%TO.P,REF\u002A\u002A,79*%
X54610000Y-88900000D03*
%TO.P,REF\u002A\u002A,80*%
X54610000Y-91440000D03*
%TD*%
D15*
%TO.P,REF\u002A\u002A,0*%
%TO.N,N/C*%
X267127000Y-62224000D03*
X267127000Y-87224000D03*
D16*
%TO.P,REF\u002A\u002A,9*%
X269667000Y-78879000D03*
%TO.P,REF\u002A\u002A,8*%
X269667000Y-76109000D03*
%TO.P,REF\u002A\u002A,7*%
X269667000Y-73339000D03*
%TO.P,REF\u002A\u002A,6*%
X269667000Y-70569000D03*
%TO.P,REF\u002A\u002A,5*%
X266827000Y-80264000D03*
%TO.P,REF\u002A\u002A,4*%
X266827000Y-77494000D03*
%TO.P,REF\u002A\u002A,3*%
X266827000Y-74724000D03*
%TO.P,REF\u002A\u002A,2*%
X266827000Y-71954000D03*
D17*
%TO.P,REF\u002A\u002A,1*%
X266827000Y-69184000D03*
%TD*%
D15*
%TO.P,REF\u002A\u002A,0*%
%TO.N,N/C*%
X267144500Y-95720000D03*
X267144500Y-142820000D03*
D16*
%TO.P,REF\u002A\u002A,25*%
X269684500Y-104035000D03*
%TO.P,REF\u002A\u002A,24*%
X269684500Y-106805000D03*
%TO.P,REF\u002A\u002A,23*%
X269684500Y-109575000D03*
%TO.P,REF\u002A\u002A,22*%
X269684500Y-112345000D03*
%TO.P,REF\u002A\u002A,21*%
X269684500Y-115115000D03*
%TO.P,REF\u002A\u002A,20*%
X269684500Y-117885000D03*
%TO.P,REF\u002A\u002A,19*%
X269684500Y-120655000D03*
%TO.P,REF\u002A\u002A,18*%
X269684500Y-123425000D03*
%TO.P,REF\u002A\u002A,17*%
X269684500Y-126195000D03*
%TO.P,REF\u002A\u002A,16*%
X269684500Y-128965000D03*
%TO.P,REF\u002A\u002A,15*%
X269684500Y-131735000D03*
%TO.P,REF\u002A\u002A,14*%
X269684500Y-134505000D03*
%TO.P,REF\u002A\u002A,13*%
X266844500Y-102650000D03*
%TO.P,REF\u002A\u002A,12*%
X266844500Y-105420000D03*
%TO.P,REF\u002A\u002A,11*%
X266844500Y-108190000D03*
%TO.P,REF\u002A\u002A,10*%
X266844500Y-110960000D03*
%TO.P,REF\u002A\u002A,9*%
X266844500Y-113730000D03*
%TO.P,REF\u002A\u002A,8*%
X266844500Y-116500000D03*
%TO.P,REF\u002A\u002A,7*%
X266844500Y-119270000D03*
%TO.P,REF\u002A\u002A,6*%
X266844500Y-122040000D03*
%TO.P,REF\u002A\u002A,5*%
X266844500Y-124810000D03*
%TO.P,REF\u002A\u002A,4*%
X266844500Y-127580000D03*
%TO.P,REF\u002A\u002A,3*%
X266844500Y-130350000D03*
%TO.P,REF\u002A\u002A,2*%
X266844500Y-133120000D03*
D17*
%TO.P,REF\u002A\u002A,1*%
X266844500Y-135890000D03*
%TD*%
D14*
%TO.P,REF\u002A\u002A,1*%
%TO.N,N/C*%
X24130000Y-53340000D03*
D12*
%TO.P,REF\u002A\u002A,2*%
X26670000Y-53340000D03*
%TO.P,REF\u002A\u002A,3*%
X24130000Y-55880000D03*
%TO.P,REF\u002A\u002A,4*%
X26670000Y-55880000D03*
%TO.P,REF\u002A\u002A,5*%
X24130000Y-58420000D03*
%TO.P,REF\u002A\u002A,6*%
X26670000Y-58420000D03*
%TO.P,REF\u002A\u002A,7*%
X24130000Y-60960000D03*
%TO.P,REF\u002A\u002A,8*%
X26670000Y-60960000D03*
%TO.P,REF\u002A\u002A,9*%
X24130000Y-63500000D03*
%TO.P,REF\u002A\u002A,10*%
X26670000Y-63500000D03*
%TO.P,REF\u002A\u002A,11*%
X24130000Y-66040000D03*
%TO.P,REF\u002A\u002A,12*%
X26670000Y-66040000D03*
%TO.P,REF\u002A\u002A,13*%
X24130000Y-68580000D03*
%TO.P,REF\u002A\u002A,14*%
X26670000Y-68580000D03*
%TO.P,REF\u002A\u002A,15*%
X24130000Y-71120000D03*
%TO.P,REF\u002A\u002A,16*%
X26670000Y-71120000D03*
%TO.P,REF\u002A\u002A,17*%
X24130000Y-73660000D03*
%TO.P,REF\u002A\u002A,18*%
X26670000Y-73660000D03*
%TO.P,REF\u002A\u002A,19*%
X24130000Y-76200000D03*
%TO.P,REF\u002A\u002A,20*%
X26670000Y-76200000D03*
%TO.P,REF\u002A\u002A,21*%
X24130000Y-78740000D03*
%TO.P,REF\u002A\u002A,22*%
X26670000Y-78740000D03*
%TO.P,REF\u002A\u002A,23*%
X24130000Y-81280000D03*
%TO.P,REF\u002A\u002A,24*%
X26670000Y-81280000D03*
%TO.P,REF\u002A\u002A,25*%
X24130000Y-83820000D03*
%TO.P,REF\u002A\u002A,26*%
X26670000Y-83820000D03*
%TO.P,REF\u002A\u002A,27*%
X24130000Y-86360000D03*
%TO.P,REF\u002A\u002A,28*%
X26670000Y-86360000D03*
%TO.P,REF\u002A\u002A,29*%
X24130000Y-88900000D03*
%TO.P,REF\u002A\u002A,30*%
X26670000Y-88900000D03*
%TO.P,REF\u002A\u002A,31*%
X24130000Y-91440000D03*
%TO.P,REF\u002A\u002A,32*%
X26670000Y-91440000D03*
%TO.P,REF\u002A\u002A,33*%
X24130000Y-93980000D03*
%TO.P,REF\u002A\u002A,34*%
X26670000Y-93980000D03*
%TO.P,REF\u002A\u002A,35*%
X24130000Y-96520000D03*
%TO.P,REF\u002A\u002A,36*%
X26670000Y-96520000D03*
%TO.P,REF\u002A\u002A,37*%
X24130000Y-99060000D03*
%TO.P,REF\u002A\u002A,38*%
X26670000Y-99060000D03*
%TO.P,REF\u002A\u002A,39*%
X24130000Y-101600000D03*
%TO.P,REF\u002A\u002A,40*%
X26670000Y-101600000D03*
%TO.P,REF\u002A\u002A,41*%
X24130000Y-104140000D03*
%TO.P,REF\u002A\u002A,42*%
X26670000Y-104140000D03*
%TO.P,REF\u002A\u002A,43*%
X24130000Y-106680000D03*
%TO.P,REF\u002A\u002A,44*%
X26670000Y-106680000D03*
%TO.P,REF\u002A\u002A,45*%
X24130000Y-109220000D03*
%TO.P,REF\u002A\u002A,46*%
X26670000Y-109220000D03*
%TO.P,REF\u002A\u002A,47*%
X24130000Y-111760000D03*
%TO.P,REF\u002A\u002A,48*%
X26670000Y-111760000D03*
%TO.P,REF\u002A\u002A,49*%
X24130000Y-114300000D03*
%TO.P,REF\u002A\u002A,50*%
X26670000Y-114300000D03*
%TO.P,REF\u002A\u002A,51*%
X24130000Y-116840000D03*
%TO.P,REF\u002A\u002A,52*%
X26670000Y-116840000D03*
%TO.P,REF\u002A\u002A,53*%
X24130000Y-119380000D03*
%TO.P,REF\u002A\u002A,54*%
X26670000Y-119380000D03*
%TO.P,REF\u002A\u002A,55*%
X24130000Y-121920000D03*
%TO.P,REF\u002A\u002A,56*%
X26670000Y-121920000D03*
%TO.P,REF\u002A\u002A,57*%
X24130000Y-124460000D03*
%TO.P,REF\u002A\u002A,58*%
X26670000Y-124460000D03*
%TO.P,REF\u002A\u002A,59*%
X24130000Y-127000000D03*
%TO.P,REF\u002A\u002A,60*%
X26670000Y-127000000D03*
%TO.P,REF\u002A\u002A,61*%
X24130000Y-129540000D03*
%TO.P,REF\u002A\u002A,62*%
X26670000Y-129540000D03*
%TO.P,REF\u002A\u002A,63*%
X24130000Y-132080000D03*
%TO.P,REF\u002A\u002A,64*%
X26670000Y-132080000D03*
%TO.P,REF\u002A\u002A,65*%
X24130000Y-134620000D03*
%TO.P,REF\u002A\u002A,66*%
X26670000Y-134620000D03*
%TO.P,REF\u002A\u002A,67*%
X24130000Y-137160000D03*
%TO.P,REF\u002A\u002A,68*%
X26670000Y-137160000D03*
%TD*%
D14*
%TO.P,REF\u002A\u002A,1*%
%TO.N,N/C*%
X29210000Y-53340000D03*
D12*
%TO.P,REF\u002A\u002A,2*%
X31750000Y-53340000D03*
%TO.P,REF\u002A\u002A,3*%
X29210000Y-55880000D03*
%TO.P,REF\u002A\u002A,4*%
X31750000Y-55880000D03*
%TO.P,REF\u002A\u002A,5*%
X29210000Y-58420000D03*
%TO.P,REF\u002A\u002A,6*%
X31750000Y-58420000D03*
%TO.P,REF\u002A\u002A,7*%
X29210000Y-60960000D03*
%TO.P,REF\u002A\u002A,8*%
X31750000Y-60960000D03*
%TO.P,REF\u002A\u002A,9*%
X29210000Y-63500000D03*
%TO.P,REF\u002A\u002A,10*%
X31750000Y-63500000D03*
%TO.P,REF\u002A\u002A,11*%
X29210000Y-66040000D03*
%TO.P,REF\u002A\u002A,12*%
X31750000Y-66040000D03*
%TO.P,REF\u002A\u002A,13*%
X29210000Y-68580000D03*
%TO.P,REF\u002A\u002A,14*%
X31750000Y-68580000D03*
%TO.P,REF\u002A\u002A,15*%
X29210000Y-71120000D03*
%TO.P,REF\u002A\u002A,16*%
X31750000Y-71120000D03*
%TO.P,REF\u002A\u002A,17*%
X29210000Y-73660000D03*
%TO.P,REF\u002A\u002A,18*%
X31750000Y-73660000D03*
%TO.P,REF\u002A\u002A,19*%
X29210000Y-76200000D03*
%TO.P,REF\u002A\u002A,20*%
X31750000Y-76200000D03*
%TO.P,REF\u002A\u002A,21*%
X29210000Y-78740000D03*
%TO.P,REF\u002A\u002A,22*%
X31750000Y-78740000D03*
%TO.P,REF\u002A\u002A,23*%
X29210000Y-81280000D03*
%TO.P,REF\u002A\u002A,24*%
X31750000Y-81280000D03*
%TO.P,REF\u002A\u002A,25*%
X29210000Y-83820000D03*
%TO.P,REF\u002A\u002A,26*%
X31750000Y-83820000D03*
%TO.P,REF\u002A\u002A,27*%
X29210000Y-86360000D03*
%TO.P,REF\u002A\u002A,28*%
X31750000Y-86360000D03*
%TO.P,REF\u002A\u002A,29*%
X29210000Y-88900000D03*
%TO.P,REF\u002A\u002A,30*%
X31750000Y-88900000D03*
%TO.P,REF\u002A\u002A,31*%
X29210000Y-91440000D03*
%TO.P,REF\u002A\u002A,32*%
X31750000Y-91440000D03*
%TO.P,REF\u002A\u002A,33*%
X29210000Y-93980000D03*
%TO.P,REF\u002A\u002A,34*%
X31750000Y-93980000D03*
%TO.P,REF\u002A\u002A,35*%
X29210000Y-96520000D03*
%TO.P,REF\u002A\u002A,36*%
X31750000Y-96520000D03*
%TO.P,REF\u002A\u002A,37*%
X29210000Y-99060000D03*
%TO.P,REF\u002A\u002A,38*%
X31750000Y-99060000D03*
%TO.P,REF\u002A\u002A,39*%
X29210000Y-101600000D03*
%TO.P,REF\u002A\u002A,40*%
X31750000Y-101600000D03*
%TO.P,REF\u002A\u002A,41*%
X29210000Y-104140000D03*
%TO.P,REF\u002A\u002A,42*%
X31750000Y-104140000D03*
%TO.P,REF\u002A\u002A,43*%
X29210000Y-106680000D03*
%TO.P,REF\u002A\u002A,44*%
X31750000Y-106680000D03*
%TO.P,REF\u002A\u002A,45*%
X29210000Y-109220000D03*
%TO.P,REF\u002A\u002A,46*%
X31750000Y-109220000D03*
%TO.P,REF\u002A\u002A,47*%
X29210000Y-111760000D03*
%TO.P,REF\u002A\u002A,48*%
X31750000Y-111760000D03*
%TO.P,REF\u002A\u002A,49*%
X29210000Y-114300000D03*
%TO.P,REF\u002A\u002A,50*%
X31750000Y-114300000D03*
%TO.P,REF\u002A\u002A,51*%
X29210000Y-116840000D03*
%TO.P,REF\u002A\u002A,52*%
X31750000Y-116840000D03*
%TO.P,REF\u002A\u002A,53*%
X29210000Y-119380000D03*
%TO.P,REF\u002A\u002A,54*%
X31750000Y-119380000D03*
%TO.P,REF\u002A\u002A,55*%
X29210000Y-121920000D03*
%TO.P,REF\u002A\u002A,56*%
X31750000Y-121920000D03*
%TO.P,REF\u002A\u002A,57*%
X29210000Y-124460000D03*
%TO.P,REF\u002A\u002A,58*%
X31750000Y-124460000D03*
%TO.P,REF\u002A\u002A,59*%
X29210000Y-127000000D03*
%TO.P,REF\u002A\u002A,60*%
X31750000Y-127000000D03*
%TO.P,REF\u002A\u002A,61*%
X29210000Y-129540000D03*
%TO.P,REF\u002A\u002A,62*%
X31750000Y-129540000D03*
%TO.P,REF\u002A\u002A,63*%
X29210000Y-132080000D03*
%TO.P,REF\u002A\u002A,64*%
X31750000Y-132080000D03*
%TO.P,REF\u002A\u002A,65*%
X29210000Y-134620000D03*
%TO.P,REF\u002A\u002A,66*%
X31750000Y-134620000D03*
%TO.P,REF\u002A\u002A,67*%
X29210000Y-137160000D03*
%TO.P,REF\u002A\u002A,68*%
X31750000Y-137160000D03*
%TD*%
D14*
%TO.P,REF\u002A\u002A,1*%
%TO.N,N/C*%
X34290000Y-53340000D03*
D12*
%TO.P,REF\u002A\u002A,2*%
X36830000Y-53340000D03*
%TO.P,REF\u002A\u002A,3*%
X34290000Y-55880000D03*
%TO.P,REF\u002A\u002A,4*%
X36830000Y-55880000D03*
%TO.P,REF\u002A\u002A,5*%
X34290000Y-58420000D03*
%TO.P,REF\u002A\u002A,6*%
X36830000Y-58420000D03*
%TO.P,REF\u002A\u002A,7*%
X34290000Y-60960000D03*
%TO.P,REF\u002A\u002A,8*%
X36830000Y-60960000D03*
%TO.P,REF\u002A\u002A,9*%
X34290000Y-63500000D03*
%TO.P,REF\u002A\u002A,10*%
X36830000Y-63500000D03*
%TO.P,REF\u002A\u002A,11*%
X34290000Y-66040000D03*
%TO.P,REF\u002A\u002A,12*%
X36830000Y-66040000D03*
%TO.P,REF\u002A\u002A,13*%
X34290000Y-68580000D03*
%TO.P,REF\u002A\u002A,14*%
X36830000Y-68580000D03*
%TO.P,REF\u002A\u002A,15*%
X34290000Y-71120000D03*
%TO.P,REF\u002A\u002A,16*%
X36830000Y-71120000D03*
%TO.P,REF\u002A\u002A,17*%
X34290000Y-73660000D03*
%TO.P,REF\u002A\u002A,18*%
X36830000Y-73660000D03*
%TO.P,REF\u002A\u002A,19*%
X34290000Y-76200000D03*
%TO.P,REF\u002A\u002A,20*%
X36830000Y-76200000D03*
%TO.P,REF\u002A\u002A,21*%
X34290000Y-78740000D03*
%TO.P,REF\u002A\u002A,22*%
X36830000Y-78740000D03*
%TO.P,REF\u002A\u002A,23*%
X34290000Y-81280000D03*
%TO.P,REF\u002A\u002A,24*%
X36830000Y-81280000D03*
%TO.P,REF\u002A\u002A,25*%
X34290000Y-83820000D03*
%TO.P,REF\u002A\u002A,26*%
X36830000Y-83820000D03*
%TO.P,REF\u002A\u002A,27*%
X34290000Y-86360000D03*
%TO.P,REF\u002A\u002A,28*%
X36830000Y-86360000D03*
%TO.P,REF\u002A\u002A,29*%
X34290000Y-88900000D03*
%TO.P,REF\u002A\u002A,30*%
X36830000Y-88900000D03*
%TO.P,REF\u002A\u002A,31*%
X34290000Y-91440000D03*
%TO.P,REF\u002A\u002A,32*%
X36830000Y-91440000D03*
%TO.P,REF\u002A\u002A,33*%
X34290000Y-93980000D03*
%TO.P,REF\u002A\u002A,34*%
X36830000Y-93980000D03*
%TO.P,REF\u002A\u002A,35*%
X34290000Y-96520000D03*
%TO.P,REF\u002A\u002A,36*%
X36830000Y-96520000D03*
%TO.P,REF\u002A\u002A,37*%
X34290000Y-99060000D03*
%TO.P,REF\u002A\u002A,38*%
X36830000Y-99060000D03*
%TO.P,REF\u002A\u002A,39*%
X34290000Y-101600000D03*
%TO.P,REF\u002A\u002A,40*%
X36830000Y-101600000D03*
%TO.P,REF\u002A\u002A,41*%
X34290000Y-104140000D03*
%TO.P,REF\u002A\u002A,42*%
X36830000Y-104140000D03*
%TO.P,REF\u002A\u002A,43*%
X34290000Y-106680000D03*
%TO.P,REF\u002A\u002A,44*%
X36830000Y-106680000D03*
%TO.P,REF\u002A\u002A,45*%
X34290000Y-109220000D03*
%TO.P,REF\u002A\u002A,46*%
X36830000Y-109220000D03*
%TO.P,REF\u002A\u002A,47*%
X34290000Y-111760000D03*
%TO.P,REF\u002A\u002A,48*%
X36830000Y-111760000D03*
%TO.P,REF\u002A\u002A,49*%
X34290000Y-114300000D03*
%TO.P,REF\u002A\u002A,50*%
X36830000Y-114300000D03*
%TO.P,REF\u002A\u002A,51*%
X34290000Y-116840000D03*
%TO.P,REF\u002A\u002A,52*%
X36830000Y-116840000D03*
%TO.P,REF\u002A\u002A,53*%
X34290000Y-119380000D03*
%TO.P,REF\u002A\u002A,54*%
X36830000Y-119380000D03*
%TO.P,REF\u002A\u002A,55*%
X34290000Y-121920000D03*
%TO.P,REF\u002A\u002A,56*%
X36830000Y-121920000D03*
%TO.P,REF\u002A\u002A,57*%
X34290000Y-124460000D03*
%TO.P,REF\u002A\u002A,58*%
X36830000Y-124460000D03*
%TO.P,REF\u002A\u002A,59*%
X34290000Y-127000000D03*
%TO.P,REF\u002A\u002A,60*%
X36830000Y-127000000D03*
%TO.P,REF\u002A\u002A,61*%
X34290000Y-129540000D03*
%TO.P,REF\u002A\u002A,62*%
X36830000Y-129540000D03*
%TO.P,REF\u002A\u002A,63*%
X34290000Y-132080000D03*
%TO.P,REF\u002A\u002A,64*%
X36830000Y-132080000D03*
%TO.P,REF\u002A\u002A,65*%
X34290000Y-134620000D03*
%TO.P,REF\u002A\u002A,66*%
X36830000Y-134620000D03*
%TO.P,REF\u002A\u002A,67*%
X34290000Y-137160000D03*
%TO.P,REF\u002A\u002A,68*%
X36830000Y-137160000D03*
%TD*%
D14*
%TO.P,REF\u002A\u002A,1*%
%TO.N,N/C*%
X39370000Y-53340000D03*
D12*
%TO.P,REF\u002A\u002A,2*%
X41910000Y-53340000D03*
%TO.P,REF\u002A\u002A,3*%
X39370000Y-55880000D03*
%TO.P,REF\u002A\u002A,4*%
X41910000Y-55880000D03*
%TO.P,REF\u002A\u002A,5*%
X39370000Y-58420000D03*
%TO.P,REF\u002A\u002A,6*%
X41910000Y-58420000D03*
%TO.P,REF\u002A\u002A,7*%
X39370000Y-60960000D03*
%TO.P,REF\u002A\u002A,8*%
X41910000Y-60960000D03*
%TO.P,REF\u002A\u002A,9*%
X39370000Y-63500000D03*
%TO.P,REF\u002A\u002A,10*%
X41910000Y-63500000D03*
%TO.P,REF\u002A\u002A,11*%
X39370000Y-66040000D03*
%TO.P,REF\u002A\u002A,12*%
X41910000Y-66040000D03*
%TO.P,REF\u002A\u002A,13*%
X39370000Y-68580000D03*
%TO.P,REF\u002A\u002A,14*%
X41910000Y-68580000D03*
%TO.P,REF\u002A\u002A,15*%
X39370000Y-71120000D03*
%TO.P,REF\u002A\u002A,16*%
X41910000Y-71120000D03*
%TO.P,REF\u002A\u002A,17*%
X39370000Y-73660000D03*
%TO.P,REF\u002A\u002A,18*%
X41910000Y-73660000D03*
%TO.P,REF\u002A\u002A,19*%
X39370000Y-76200000D03*
%TO.P,REF\u002A\u002A,20*%
X41910000Y-76200000D03*
%TO.P,REF\u002A\u002A,21*%
X39370000Y-78740000D03*
%TO.P,REF\u002A\u002A,22*%
X41910000Y-78740000D03*
%TO.P,REF\u002A\u002A,23*%
X39370000Y-81280000D03*
%TO.P,REF\u002A\u002A,24*%
X41910000Y-81280000D03*
%TO.P,REF\u002A\u002A,25*%
X39370000Y-83820000D03*
%TO.P,REF\u002A\u002A,26*%
X41910000Y-83820000D03*
%TO.P,REF\u002A\u002A,27*%
X39370000Y-86360000D03*
%TO.P,REF\u002A\u002A,28*%
X41910000Y-86360000D03*
%TO.P,REF\u002A\u002A,29*%
X39370000Y-88900000D03*
%TO.P,REF\u002A\u002A,30*%
X41910000Y-88900000D03*
%TO.P,REF\u002A\u002A,31*%
X39370000Y-91440000D03*
%TO.P,REF\u002A\u002A,32*%
X41910000Y-91440000D03*
%TO.P,REF\u002A\u002A,33*%
X39370000Y-93980000D03*
%TO.P,REF\u002A\u002A,34*%
X41910000Y-93980000D03*
%TO.P,REF\u002A\u002A,35*%
X39370000Y-96520000D03*
%TO.P,REF\u002A\u002A,36*%
X41910000Y-96520000D03*
%TO.P,REF\u002A\u002A,37*%
X39370000Y-99060000D03*
%TO.P,REF\u002A\u002A,38*%
X41910000Y-99060000D03*
%TO.P,REF\u002A\u002A,39*%
X39370000Y-101600000D03*
%TO.P,REF\u002A\u002A,40*%
X41910000Y-101600000D03*
%TO.P,REF\u002A\u002A,41*%
X39370000Y-104140000D03*
%TO.P,REF\u002A\u002A,42*%
X41910000Y-104140000D03*
%TO.P,REF\u002A\u002A,43*%
X39370000Y-106680000D03*
%TO.P,REF\u002A\u002A,44*%
X41910000Y-106680000D03*
%TO.P,REF\u002A\u002A,45*%
X39370000Y-109220000D03*
%TO.P,REF\u002A\u002A,46*%
X41910000Y-109220000D03*
%TO.P,REF\u002A\u002A,47*%
X39370000Y-111760000D03*
%TO.P,REF\u002A\u002A,48*%
X41910000Y-111760000D03*
%TO.P,REF\u002A\u002A,49*%
X39370000Y-114300000D03*
%TO.P,REF\u002A\u002A,50*%
X41910000Y-114300000D03*
%TO.P,REF\u002A\u002A,51*%
X39370000Y-116840000D03*
%TO.P,REF\u002A\u002A,52*%
X41910000Y-116840000D03*
%TO.P,REF\u002A\u002A,53*%
X39370000Y-119380000D03*
%TO.P,REF\u002A\u002A,54*%
X41910000Y-119380000D03*
%TO.P,REF\u002A\u002A,55*%
X39370000Y-121920000D03*
%TO.P,REF\u002A\u002A,56*%
X41910000Y-121920000D03*
%TO.P,REF\u002A\u002A,57*%
X39370000Y-124460000D03*
%TO.P,REF\u002A\u002A,58*%
X41910000Y-124460000D03*
%TO.P,REF\u002A\u002A,59*%
X39370000Y-127000000D03*
%TO.P,REF\u002A\u002A,60*%
X41910000Y-127000000D03*
%TO.P,REF\u002A\u002A,61*%
X39370000Y-129540000D03*
%TO.P,REF\u002A\u002A,62*%
X41910000Y-129540000D03*
%TO.P,REF\u002A\u002A,63*%
X39370000Y-132080000D03*
%TO.P,REF\u002A\u002A,64*%
X41910000Y-132080000D03*
%TO.P,REF\u002A\u002A,65*%
X39370000Y-134620000D03*
%TO.P,REF\u002A\u002A,66*%
X41910000Y-134620000D03*
%TO.P,REF\u002A\u002A,67*%
X39370000Y-137160000D03*
%TO.P,REF\u002A\u002A,68*%
X41910000Y-137160000D03*
%TD*%
D14*
%TO.P,REF\u002A\u002A,1*%
%TO.N,N/C*%
X44450000Y-53340000D03*
D12*
%TO.P,REF\u002A\u002A,2*%
X46990000Y-53340000D03*
%TO.P,REF\u002A\u002A,3*%
X44450000Y-55880000D03*
%TO.P,REF\u002A\u002A,4*%
X46990000Y-55880000D03*
%TO.P,REF\u002A\u002A,5*%
X44450000Y-58420000D03*
%TO.P,REF\u002A\u002A,6*%
X46990000Y-58420000D03*
%TO.P,REF\u002A\u002A,7*%
X44450000Y-60960000D03*
%TO.P,REF\u002A\u002A,8*%
X46990000Y-60960000D03*
%TO.P,REF\u002A\u002A,9*%
X44450000Y-63500000D03*
%TO.P,REF\u002A\u002A,10*%
X46990000Y-63500000D03*
%TO.P,REF\u002A\u002A,11*%
X44450000Y-66040000D03*
%TO.P,REF\u002A\u002A,12*%
X46990000Y-66040000D03*
%TO.P,REF\u002A\u002A,13*%
X44450000Y-68580000D03*
%TO.P,REF\u002A\u002A,14*%
X46990000Y-68580000D03*
%TO.P,REF\u002A\u002A,15*%
X44450000Y-71120000D03*
%TO.P,REF\u002A\u002A,16*%
X46990000Y-71120000D03*
%TO.P,REF\u002A\u002A,17*%
X44450000Y-73660000D03*
%TO.P,REF\u002A\u002A,18*%
X46990000Y-73660000D03*
%TO.P,REF\u002A\u002A,19*%
X44450000Y-76200000D03*
%TO.P,REF\u002A\u002A,20*%
X46990000Y-76200000D03*
%TO.P,REF\u002A\u002A,21*%
X44450000Y-78740000D03*
%TO.P,REF\u002A\u002A,22*%
X46990000Y-78740000D03*
%TO.P,REF\u002A\u002A,23*%
X44450000Y-81280000D03*
%TO.P,REF\u002A\u002A,24*%
X46990000Y-81280000D03*
%TO.P,REF\u002A\u002A,25*%
X44450000Y-83820000D03*
%TO.P,REF\u002A\u002A,26*%
X46990000Y-83820000D03*
%TO.P,REF\u002A\u002A,27*%
X44450000Y-86360000D03*
%TO.P,REF\u002A\u002A,28*%
X46990000Y-86360000D03*
%TO.P,REF\u002A\u002A,29*%
X44450000Y-88900000D03*
%TO.P,REF\u002A\u002A,30*%
X46990000Y-88900000D03*
%TO.P,REF\u002A\u002A,31*%
X44450000Y-91440000D03*
%TO.P,REF\u002A\u002A,32*%
X46990000Y-91440000D03*
%TO.P,REF\u002A\u002A,33*%
X44450000Y-93980000D03*
%TO.P,REF\u002A\u002A,34*%
X46990000Y-93980000D03*
%TO.P,REF\u002A\u002A,35*%
X44450000Y-96520000D03*
%TO.P,REF\u002A\u002A,36*%
X46990000Y-96520000D03*
%TO.P,REF\u002A\u002A,37*%
X44450000Y-99060000D03*
%TO.P,REF\u002A\u002A,38*%
X46990000Y-99060000D03*
%TO.P,REF\u002A\u002A,39*%
X44450000Y-101600000D03*
%TO.P,REF\u002A\u002A,40*%
X46990000Y-101600000D03*
%TO.P,REF\u002A\u002A,41*%
X44450000Y-104140000D03*
%TO.P,REF\u002A\u002A,42*%
X46990000Y-104140000D03*
%TO.P,REF\u002A\u002A,43*%
X44450000Y-106680000D03*
%TO.P,REF\u002A\u002A,44*%
X46990000Y-106680000D03*
%TO.P,REF\u002A\u002A,45*%
X44450000Y-109220000D03*
%TO.P,REF\u002A\u002A,46*%
X46990000Y-109220000D03*
%TO.P,REF\u002A\u002A,47*%
X44450000Y-111760000D03*
%TO.P,REF\u002A\u002A,48*%
X46990000Y-111760000D03*
%TO.P,REF\u002A\u002A,49*%
X44450000Y-114300000D03*
%TO.P,REF\u002A\u002A,50*%
X46990000Y-114300000D03*
%TO.P,REF\u002A\u002A,51*%
X44450000Y-116840000D03*
%TO.P,REF\u002A\u002A,52*%
X46990000Y-116840000D03*
%TO.P,REF\u002A\u002A,53*%
X44450000Y-119380000D03*
%TO.P,REF\u002A\u002A,54*%
X46990000Y-119380000D03*
%TO.P,REF\u002A\u002A,55*%
X44450000Y-121920000D03*
%TO.P,REF\u002A\u002A,56*%
X46990000Y-121920000D03*
%TO.P,REF\u002A\u002A,57*%
X44450000Y-124460000D03*
%TO.P,REF\u002A\u002A,58*%
X46990000Y-124460000D03*
%TO.P,REF\u002A\u002A,59*%
X44450000Y-127000000D03*
%TO.P,REF\u002A\u002A,60*%
X46990000Y-127000000D03*
%TO.P,REF\u002A\u002A,61*%
X44450000Y-129540000D03*
%TO.P,REF\u002A\u002A,62*%
X46990000Y-129540000D03*
%TO.P,REF\u002A\u002A,63*%
X44450000Y-132080000D03*
%TO.P,REF\u002A\u002A,64*%
X46990000Y-132080000D03*
%TO.P,REF\u002A\u002A,65*%
X44450000Y-134620000D03*
%TO.P,REF\u002A\u002A,66*%
X46990000Y-134620000D03*
%TO.P,REF\u002A\u002A,67*%
X44450000Y-137160000D03*
%TO.P,REF\u002A\u002A,68*%
X46990000Y-137160000D03*
%TD*%
D14*
%TO.P,REF\u002A\u002A,1*%
%TO.N,N/C*%
X49530000Y-53340000D03*
D12*
%TO.P,REF\u002A\u002A,2*%
X52070000Y-53340000D03*
%TO.P,REF\u002A\u002A,3*%
X49530000Y-55880000D03*
%TO.P,REF\u002A\u002A,4*%
X52070000Y-55880000D03*
%TO.P,REF\u002A\u002A,5*%
X49530000Y-58420000D03*
%TO.P,REF\u002A\u002A,6*%
X52070000Y-58420000D03*
%TO.P,REF\u002A\u002A,7*%
X49530000Y-60960000D03*
%TO.P,REF\u002A\u002A,8*%
X52070000Y-60960000D03*
%TO.P,REF\u002A\u002A,9*%
X49530000Y-63500000D03*
%TO.P,REF\u002A\u002A,10*%
X52070000Y-63500000D03*
%TO.P,REF\u002A\u002A,11*%
X49530000Y-66040000D03*
%TO.P,REF\u002A\u002A,12*%
X52070000Y-66040000D03*
%TO.P,REF\u002A\u002A,13*%
X49530000Y-68580000D03*
%TO.P,REF\u002A\u002A,14*%
X52070000Y-68580000D03*
%TO.P,REF\u002A\u002A,15*%
X49530000Y-71120000D03*
%TO.P,REF\u002A\u002A,16*%
X52070000Y-71120000D03*
%TO.P,REF\u002A\u002A,17*%
X49530000Y-73660000D03*
%TO.P,REF\u002A\u002A,18*%
X52070000Y-73660000D03*
%TO.P,REF\u002A\u002A,19*%
X49530000Y-76200000D03*
%TO.P,REF\u002A\u002A,20*%
X52070000Y-76200000D03*
%TO.P,REF\u002A\u002A,21*%
X49530000Y-78740000D03*
%TO.P,REF\u002A\u002A,22*%
X52070000Y-78740000D03*
%TO.P,REF\u002A\u002A,23*%
X49530000Y-81280000D03*
%TO.P,REF\u002A\u002A,24*%
X52070000Y-81280000D03*
%TO.P,REF\u002A\u002A,25*%
X49530000Y-83820000D03*
%TO.P,REF\u002A\u002A,26*%
X52070000Y-83820000D03*
%TO.P,REF\u002A\u002A,27*%
X49530000Y-86360000D03*
%TO.P,REF\u002A\u002A,28*%
X52070000Y-86360000D03*
%TO.P,REF\u002A\u002A,29*%
X49530000Y-88900000D03*
%TO.P,REF\u002A\u002A,30*%
X52070000Y-88900000D03*
%TO.P,REF\u002A\u002A,31*%
X49530000Y-91440000D03*
%TO.P,REF\u002A\u002A,32*%
X52070000Y-91440000D03*
%TO.P,REF\u002A\u002A,33*%
X49530000Y-93980000D03*
%TO.P,REF\u002A\u002A,34*%
X52070000Y-93980000D03*
%TO.P,REF\u002A\u002A,35*%
X49530000Y-96520000D03*
%TO.P,REF\u002A\u002A,36*%
X52070000Y-96520000D03*
%TO.P,REF\u002A\u002A,37*%
X49530000Y-99060000D03*
%TO.P,REF\u002A\u002A,38*%
X52070000Y-99060000D03*
%TO.P,REF\u002A\u002A,39*%
X49530000Y-101600000D03*
%TO.P,REF\u002A\u002A,40*%
X52070000Y-101600000D03*
%TO.P,REF\u002A\u002A,41*%
X49530000Y-104140000D03*
%TO.P,REF\u002A\u002A,42*%
X52070000Y-104140000D03*
%TO.P,REF\u002A\u002A,43*%
X49530000Y-106680000D03*
%TO.P,REF\u002A\u002A,44*%
X52070000Y-106680000D03*
%TO.P,REF\u002A\u002A,45*%
X49530000Y-109220000D03*
%TO.P,REF\u002A\u002A,46*%
X52070000Y-109220000D03*
%TO.P,REF\u002A\u002A,47*%
X49530000Y-111760000D03*
%TO.P,REF\u002A\u002A,48*%
X52070000Y-111760000D03*
%TO.P,REF\u002A\u002A,49*%
X49530000Y-114300000D03*
%TO.P,REF\u002A\u002A,50*%
X52070000Y-114300000D03*
%TO.P,REF\u002A\u002A,51*%
X49530000Y-116840000D03*
%TO.P,REF\u002A\u002A,52*%
X52070000Y-116840000D03*
%TO.P,REF\u002A\u002A,53*%
X49530000Y-119380000D03*
%TO.P,REF\u002A\u002A,54*%
X52070000Y-119380000D03*
%TO.P,REF\u002A\u002A,55*%
X49530000Y-121920000D03*
%TO.P,REF\u002A\u002A,56*%
X52070000Y-121920000D03*
%TO.P,REF\u002A\u002A,57*%
X49530000Y-124460000D03*
%TO.P,REF\u002A\u002A,58*%
X52070000Y-124460000D03*
%TO.P,REF\u002A\u002A,59*%
X49530000Y-127000000D03*
%TO.P,REF\u002A\u002A,60*%
X52070000Y-127000000D03*
%TO.P,REF\u002A\u002A,61*%
X49530000Y-129540000D03*
%TO.P,REF\u002A\u002A,62*%
X52070000Y-129540000D03*
%TO.P,REF\u002A\u002A,63*%
X49530000Y-132080000D03*
%TO.P,REF\u002A\u002A,64*%
X52070000Y-132080000D03*
%TO.P,REF\u002A\u002A,65*%
X49530000Y-134620000D03*
%TO.P,REF\u002A\u002A,66*%
X52070000Y-134620000D03*
%TO.P,REF\u002A\u002A,67*%
X49530000Y-137160000D03*
%TO.P,REF\u002A\u002A,68*%
X52070000Y-137160000D03*
%TD*%
D14*
%TO.P,REF\u002A\u002A,1*%
%TO.N,N/C*%
X153670000Y-124460000D03*
D12*
%TO.P,REF\u002A\u002A,2*%
X153670000Y-127000000D03*
%TO.P,REF\u002A\u002A,3*%
X151130000Y-124460000D03*
%TO.P,REF\u002A\u002A,4*%
X151130000Y-127000000D03*
%TO.P,REF\u002A\u002A,5*%
X148590000Y-124460000D03*
%TO.P,REF\u002A\u002A,6*%
X148590000Y-127000000D03*
%TO.P,REF\u002A\u002A,7*%
X146050000Y-124460000D03*
%TO.P,REF\u002A\u002A,8*%
X146050000Y-127000000D03*
%TO.P,REF\u002A\u002A,9*%
X143510000Y-124460000D03*
%TO.P,REF\u002A\u002A,10*%
X143510000Y-127000000D03*
%TO.P,REF\u002A\u002A,11*%
X140970000Y-124460000D03*
%TO.P,REF\u002A\u002A,12*%
X140970000Y-127000000D03*
%TO.P,REF\u002A\u002A,13*%
X138430000Y-124460000D03*
%TO.P,REF\u002A\u002A,14*%
X138430000Y-127000000D03*
%TO.P,REF\u002A\u002A,15*%
X135890000Y-124460000D03*
%TO.P,REF\u002A\u002A,16*%
X135890000Y-127000000D03*
%TO.P,REF\u002A\u002A,17*%
X133350000Y-124460000D03*
%TO.P,REF\u002A\u002A,18*%
X133350000Y-127000000D03*
%TO.P,REF\u002A\u002A,19*%
X130810000Y-124460000D03*
%TO.P,REF\u002A\u002A,20*%
X130810000Y-127000000D03*
%TO.P,REF\u002A\u002A,21*%
X128270000Y-124460000D03*
%TO.P,REF\u002A\u002A,22*%
X128270000Y-127000000D03*
%TO.P,REF\u002A\u002A,23*%
X125730000Y-124460000D03*
%TO.P,REF\u002A\u002A,24*%
X125730000Y-127000000D03*
%TO.P,REF\u002A\u002A,25*%
X123190000Y-124460000D03*
%TO.P,REF\u002A\u002A,26*%
X123190000Y-127000000D03*
%TO.P,REF\u002A\u002A,27*%
X120650000Y-124460000D03*
%TO.P,REF\u002A\u002A,28*%
X120650000Y-127000000D03*
%TO.P,REF\u002A\u002A,29*%
X118110000Y-124460000D03*
%TO.P,REF\u002A\u002A,30*%
X118110000Y-127000000D03*
%TO.P,REF\u002A\u002A,31*%
X115570000Y-124460000D03*
%TO.P,REF\u002A\u002A,32*%
X115570000Y-127000000D03*
%TO.P,REF\u002A\u002A,33*%
X113030000Y-124460000D03*
%TO.P,REF\u002A\u002A,34*%
X113030000Y-127000000D03*
%TO.P,REF\u002A\u002A,35*%
X110490000Y-124460000D03*
%TO.P,REF\u002A\u002A,36*%
X110490000Y-127000000D03*
%TO.P,REF\u002A\u002A,37*%
X107950000Y-124460000D03*
%TO.P,REF\u002A\u002A,38*%
X107950000Y-127000000D03*
%TO.P,REF\u002A\u002A,39*%
X105410000Y-124460000D03*
%TO.P,REF\u002A\u002A,40*%
X105410000Y-127000000D03*
%TO.P,REF\u002A\u002A,41*%
X102870000Y-124460000D03*
%TO.P,REF\u002A\u002A,42*%
X102870000Y-127000000D03*
%TO.P,REF\u002A\u002A,43*%
X100330000Y-124460000D03*
%TO.P,REF\u002A\u002A,44*%
X100330000Y-127000000D03*
%TO.P,REF\u002A\u002A,45*%
X97790000Y-124460000D03*
%TO.P,REF\u002A\u002A,46*%
X97790000Y-127000000D03*
%TO.P,REF\u002A\u002A,47*%
X95250000Y-124460000D03*
%TO.P,REF\u002A\u002A,48*%
X95250000Y-127000000D03*
%TO.P,REF\u002A\u002A,49*%
X92710000Y-124460000D03*
%TO.P,REF\u002A\u002A,50*%
X92710000Y-127000000D03*
%TO.P,REF\u002A\u002A,51*%
X90170000Y-124460000D03*
%TO.P,REF\u002A\u002A,52*%
X90170000Y-127000000D03*
%TO.P,REF\u002A\u002A,53*%
X87630000Y-124460000D03*
%TO.P,REF\u002A\u002A,54*%
X87630000Y-127000000D03*
%TO.P,REF\u002A\u002A,55*%
X85090000Y-124460000D03*
%TO.P,REF\u002A\u002A,56*%
X85090000Y-127000000D03*
%TO.P,REF\u002A\u002A,57*%
X82550000Y-124460000D03*
%TO.P,REF\u002A\u002A,58*%
X82550000Y-127000000D03*
%TO.P,REF\u002A\u002A,59*%
X80010000Y-124460000D03*
%TO.P,REF\u002A\u002A,60*%
X80010000Y-127000000D03*
%TO.P,REF\u002A\u002A,61*%
X77470000Y-124460000D03*
%TO.P,REF\u002A\u002A,62*%
X77470000Y-127000000D03*
%TO.P,REF\u002A\u002A,63*%
X74930000Y-124460000D03*
%TO.P,REF\u002A\u002A,64*%
X74930000Y-127000000D03*
%TO.P,REF\u002A\u002A,65*%
X72390000Y-124460000D03*
%TO.P,REF\u002A\u002A,66*%
X72390000Y-127000000D03*
%TO.P,REF\u002A\u002A,67*%
X69850000Y-124460000D03*
%TO.P,REF\u002A\u002A,68*%
X69850000Y-127000000D03*
%TO.P,REF\u002A\u002A,69*%
X67310000Y-124460000D03*
%TO.P,REF\u002A\u002A,70*%
X67310000Y-127000000D03*
%TO.P,REF\u002A\u002A,71*%
X64770000Y-124460000D03*
%TO.P,REF\u002A\u002A,72*%
X64770000Y-127000000D03*
%TO.P,REF\u002A\u002A,73*%
X62230000Y-124460000D03*
%TO.P,REF\u002A\u002A,74*%
X62230000Y-127000000D03*
%TO.P,REF\u002A\u002A,75*%
X59690000Y-124460000D03*
%TO.P,REF\u002A\u002A,76*%
X59690000Y-127000000D03*
%TO.P,REF\u002A\u002A,77*%
X57150000Y-124460000D03*
%TO.P,REF\u002A\u002A,78*%
X57150000Y-127000000D03*
%TO.P,REF\u002A\u002A,79*%
X54610000Y-124460000D03*
%TO.P,REF\u002A\u002A,80*%
X54610000Y-127000000D03*
%TD*%
D14*
%TO.P,REF\u002A\u002A,1*%
%TO.N,N/C*%
X153670000Y-134620000D03*
D12*
%TO.P,REF\u002A\u002A,2*%
X153670000Y-137160000D03*
%TO.P,REF\u002A\u002A,3*%
X151130000Y-134620000D03*
%TO.P,REF\u002A\u002A,4*%
X151130000Y-137160000D03*
%TO.P,REF\u002A\u002A,5*%
X148590000Y-134620000D03*
%TO.P,REF\u002A\u002A,6*%
X148590000Y-137160000D03*
%TO.P,REF\u002A\u002A,7*%
X146050000Y-134620000D03*
%TO.P,REF\u002A\u002A,8*%
X146050000Y-137160000D03*
%TO.P,REF\u002A\u002A,9*%
X143510000Y-134620000D03*
%TO.P,REF\u002A\u002A,10*%
X143510000Y-137160000D03*
%TO.P,REF\u002A\u002A,11*%
X140970000Y-134620000D03*
%TO.P,REF\u002A\u002A,12*%
X140970000Y-137160000D03*
%TO.P,REF\u002A\u002A,13*%
X138430000Y-134620000D03*
%TO.P,REF\u002A\u002A,14*%
X138430000Y-137160000D03*
%TO.P,REF\u002A\u002A,15*%
X135890000Y-134620000D03*
%TO.P,REF\u002A\u002A,16*%
X135890000Y-137160000D03*
%TO.P,REF\u002A\u002A,17*%
X133350000Y-134620000D03*
%TO.P,REF\u002A\u002A,18*%
X133350000Y-137160000D03*
%TO.P,REF\u002A\u002A,19*%
X130810000Y-134620000D03*
%TO.P,REF\u002A\u002A,20*%
X130810000Y-137160000D03*
%TO.P,REF\u002A\u002A,21*%
X128270000Y-134620000D03*
%TO.P,REF\u002A\u002A,22*%
X128270000Y-137160000D03*
%TO.P,REF\u002A\u002A,23*%
X125730000Y-134620000D03*
%TO.P,REF\u002A\u002A,24*%
X125730000Y-137160000D03*
%TO.P,REF\u002A\u002A,25*%
X123190000Y-134620000D03*
%TO.P,REF\u002A\u002A,26*%
X123190000Y-137160000D03*
%TO.P,REF\u002A\u002A,27*%
X120650000Y-134620000D03*
%TO.P,REF\u002A\u002A,28*%
X120650000Y-137160000D03*
%TO.P,REF\u002A\u002A,29*%
X118110000Y-134620000D03*
%TO.P,REF\u002A\u002A,30*%
X118110000Y-137160000D03*
%TO.P,REF\u002A\u002A,31*%
X115570000Y-134620000D03*
%TO.P,REF\u002A\u002A,32*%
X115570000Y-137160000D03*
%TO.P,REF\u002A\u002A,33*%
X113030000Y-134620000D03*
%TO.P,REF\u002A\u002A,34*%
X113030000Y-137160000D03*
%TO.P,REF\u002A\u002A,35*%
X110490000Y-134620000D03*
%TO.P,REF\u002A\u002A,36*%
X110490000Y-137160000D03*
%TO.P,REF\u002A\u002A,37*%
X107950000Y-134620000D03*
%TO.P,REF\u002A\u002A,38*%
X107950000Y-137160000D03*
%TO.P,REF\u002A\u002A,39*%
X105410000Y-134620000D03*
%TO.P,REF\u002A\u002A,40*%
X105410000Y-137160000D03*
%TO.P,REF\u002A\u002A,41*%
X102870000Y-134620000D03*
%TO.P,REF\u002A\u002A,42*%
X102870000Y-137160000D03*
%TO.P,REF\u002A\u002A,43*%
X100330000Y-134620000D03*
%TO.P,REF\u002A\u002A,44*%
X100330000Y-137160000D03*
%TO.P,REF\u002A\u002A,45*%
X97790000Y-134620000D03*
%TO.P,REF\u002A\u002A,46*%
X97790000Y-137160000D03*
%TO.P,REF\u002A\u002A,47*%
X95250000Y-134620000D03*
%TO.P,REF\u002A\u002A,48*%
X95250000Y-137160000D03*
%TO.P,REF\u002A\u002A,49*%
X92710000Y-134620000D03*
%TO.P,REF\u002A\u002A,50*%
X92710000Y-137160000D03*
%TO.P,REF\u002A\u002A,51*%
X90170000Y-134620000D03*
%TO.P,REF\u002A\u002A,52*%
X90170000Y-137160000D03*
%TO.P,REF\u002A\u002A,53*%
X87630000Y-134620000D03*
%TO.P,REF\u002A\u002A,54*%
X87630000Y-137160000D03*
%TO.P,REF\u002A\u002A,55*%
X85090000Y-134620000D03*
%TO.P,REF\u002A\u002A,56*%
X85090000Y-137160000D03*
%TO.P,REF\u002A\u002A,57*%
X82550000Y-134620000D03*
%TO.P,REF\u002A\u002A,58*%
X82550000Y-137160000D03*
%TO.P,REF\u002A\u002A,59*%
X80010000Y-134620000D03*
%TO.P,REF\u002A\u002A,60*%
X80010000Y-137160000D03*
%TO.P,REF\u002A\u002A,61*%
X77470000Y-134620000D03*
%TO.P,REF\u002A\u002A,62*%
X77470000Y-137160000D03*
%TO.P,REF\u002A\u002A,63*%
X74930000Y-134620000D03*
%TO.P,REF\u002A\u002A,64*%
X74930000Y-137160000D03*
%TO.P,REF\u002A\u002A,65*%
X72390000Y-134620000D03*
%TO.P,REF\u002A\u002A,66*%
X72390000Y-137160000D03*
%TO.P,REF\u002A\u002A,67*%
X69850000Y-134620000D03*
%TO.P,REF\u002A\u002A,68*%
X69850000Y-137160000D03*
%TO.P,REF\u002A\u002A,69*%
X67310000Y-134620000D03*
%TO.P,REF\u002A\u002A,70*%
X67310000Y-137160000D03*
%TO.P,REF\u002A\u002A,71*%
X64770000Y-134620000D03*
%TO.P,REF\u002A\u002A,72*%
X64770000Y-137160000D03*
%TO.P,REF\u002A\u002A,73*%
X62230000Y-134620000D03*
%TO.P,REF\u002A\u002A,74*%
X62230000Y-137160000D03*
%TO.P,REF\u002A\u002A,75*%
X59690000Y-134620000D03*
%TO.P,REF\u002A\u002A,76*%
X59690000Y-137160000D03*
%TO.P,REF\u002A\u002A,77*%
X57150000Y-134620000D03*
%TO.P,REF\u002A\u002A,78*%
X57150000Y-137160000D03*
%TO.P,REF\u002A\u002A,79*%
X54610000Y-134620000D03*
%TO.P,REF\u002A\u002A,80*%
X54610000Y-137160000D03*
%TD*%
D14*
%TO.P,REF\u002A\u002A,1*%
%TO.N,N/C*%
X153670000Y-129540000D03*
D12*
%TO.P,REF\u002A\u002A,2*%
X153670000Y-132080000D03*
%TO.P,REF\u002A\u002A,3*%
X151130000Y-129540000D03*
%TO.P,REF\u002A\u002A,4*%
X151130000Y-132080000D03*
%TO.P,REF\u002A\u002A,5*%
X148590000Y-129540000D03*
%TO.P,REF\u002A\u002A,6*%
X148590000Y-132080000D03*
%TO.P,REF\u002A\u002A,7*%
X146050000Y-129540000D03*
%TO.P,REF\u002A\u002A,8*%
X146050000Y-132080000D03*
%TO.P,REF\u002A\u002A,9*%
X143510000Y-129540000D03*
%TO.P,REF\u002A\u002A,10*%
X143510000Y-132080000D03*
%TO.P,REF\u002A\u002A,11*%
X140970000Y-129540000D03*
%TO.P,REF\u002A\u002A,12*%
X140970000Y-132080000D03*
%TO.P,REF\u002A\u002A,13*%
X138430000Y-129540000D03*
%TO.P,REF\u002A\u002A,14*%
X138430000Y-132080000D03*
%TO.P,REF\u002A\u002A,15*%
X135890000Y-129540000D03*
%TO.P,REF\u002A\u002A,16*%
X135890000Y-132080000D03*
%TO.P,REF\u002A\u002A,17*%
X133350000Y-129540000D03*
%TO.P,REF\u002A\u002A,18*%
X133350000Y-132080000D03*
%TO.P,REF\u002A\u002A,19*%
X130810000Y-129540000D03*
%TO.P,REF\u002A\u002A,20*%
X130810000Y-132080000D03*
%TO.P,REF\u002A\u002A,21*%
X128270000Y-129540000D03*
%TO.P,REF\u002A\u002A,22*%
X128270000Y-132080000D03*
%TO.P,REF\u002A\u002A,23*%
X125730000Y-129540000D03*
%TO.P,REF\u002A\u002A,24*%
X125730000Y-132080000D03*
%TO.P,REF\u002A\u002A,25*%
X123190000Y-129540000D03*
%TO.P,REF\u002A\u002A,26*%
X123190000Y-132080000D03*
%TO.P,REF\u002A\u002A,27*%
X120650000Y-129540000D03*
%TO.P,REF\u002A\u002A,28*%
X120650000Y-132080000D03*
%TO.P,REF\u002A\u002A,29*%
X118110000Y-129540000D03*
%TO.P,REF\u002A\u002A,30*%
X118110000Y-132080000D03*
%TO.P,REF\u002A\u002A,31*%
X115570000Y-129540000D03*
%TO.P,REF\u002A\u002A,32*%
X115570000Y-132080000D03*
%TO.P,REF\u002A\u002A,33*%
X113030000Y-129540000D03*
%TO.P,REF\u002A\u002A,34*%
X113030000Y-132080000D03*
%TO.P,REF\u002A\u002A,35*%
X110490000Y-129540000D03*
%TO.P,REF\u002A\u002A,36*%
X110490000Y-132080000D03*
%TO.P,REF\u002A\u002A,37*%
X107950000Y-129540000D03*
%TO.P,REF\u002A\u002A,38*%
X107950000Y-132080000D03*
%TO.P,REF\u002A\u002A,39*%
X105410000Y-129540000D03*
%TO.P,REF\u002A\u002A,40*%
X105410000Y-132080000D03*
%TO.P,REF\u002A\u002A,41*%
X102870000Y-129540000D03*
%TO.P,REF\u002A\u002A,42*%
X102870000Y-132080000D03*
%TO.P,REF\u002A\u002A,43*%
X100330000Y-129540000D03*
%TO.P,REF\u002A\u002A,44*%
X100330000Y-132080000D03*
%TO.P,REF\u002A\u002A,45*%
X97790000Y-129540000D03*
%TO.P,REF\u002A\u002A,46*%
X97790000Y-132080000D03*
%TO.P,REF\u002A\u002A,47*%
X95250000Y-129540000D03*
%TO.P,REF\u002A\u002A,48*%
X95250000Y-132080000D03*
%TO.P,REF\u002A\u002A,49*%
X92710000Y-129540000D03*
%TO.P,REF\u002A\u002A,50*%
X92710000Y-132080000D03*
%TO.P,REF\u002A\u002A,51*%
X90170000Y-129540000D03*
%TO.P,REF\u002A\u002A,52*%
X90170000Y-132080000D03*
%TO.P,REF\u002A\u002A,53*%
X87630000Y-129540000D03*
%TO.P,REF\u002A\u002A,54*%
X87630000Y-132080000D03*
%TO.P,REF\u002A\u002A,55*%
X85090000Y-129540000D03*
%TO.P,REF\u002A\u002A,56*%
X85090000Y-132080000D03*
%TO.P,REF\u002A\u002A,57*%
X82550000Y-129540000D03*
%TO.P,REF\u002A\u002A,58*%
X82550000Y-132080000D03*
%TO.P,REF\u002A\u002A,59*%
X80010000Y-129540000D03*
%TO.P,REF\u002A\u002A,60*%
X80010000Y-132080000D03*
%TO.P,REF\u002A\u002A,61*%
X77470000Y-129540000D03*
%TO.P,REF\u002A\u002A,62*%
X77470000Y-132080000D03*
%TO.P,REF\u002A\u002A,63*%
X74930000Y-129540000D03*
%TO.P,REF\u002A\u002A,64*%
X74930000Y-132080000D03*
%TO.P,REF\u002A\u002A,65*%
X72390000Y-129540000D03*
%TO.P,REF\u002A\u002A,66*%
X72390000Y-132080000D03*
%TO.P,REF\u002A\u002A,67*%
X69850000Y-129540000D03*
%TO.P,REF\u002A\u002A,68*%
X69850000Y-132080000D03*
%TO.P,REF\u002A\u002A,69*%
X67310000Y-129540000D03*
%TO.P,REF\u002A\u002A,70*%
X67310000Y-132080000D03*
%TO.P,REF\u002A\u002A,71*%
X64770000Y-129540000D03*
%TO.P,REF\u002A\u002A,72*%
X64770000Y-132080000D03*
%TO.P,REF\u002A\u002A,73*%
X62230000Y-129540000D03*
%TO.P,REF\u002A\u002A,74*%
X62230000Y-132080000D03*
%TO.P,REF\u002A\u002A,75*%
X59690000Y-129540000D03*
%TO.P,REF\u002A\u002A,76*%
X59690000Y-132080000D03*
%TO.P,REF\u002A\u002A,77*%
X57150000Y-129540000D03*
%TO.P,REF\u002A\u002A,78*%
X57150000Y-132080000D03*
%TO.P,REF\u002A\u002A,79*%
X54610000Y-129540000D03*
%TO.P,REF\u002A\u002A,80*%
X54610000Y-132080000D03*
%TD*%
D14*
%TO.P,REF\u002A\u002A,1*%
%TO.N,N/C*%
X255270000Y-53340000D03*
D12*
%TO.P,REF\u002A\u002A,2*%
X255270000Y-55880000D03*
%TO.P,REF\u002A\u002A,3*%
X252730000Y-53340000D03*
%TO.P,REF\u002A\u002A,4*%
X252730000Y-55880000D03*
%TO.P,REF\u002A\u002A,5*%
X250190000Y-53340000D03*
%TO.P,REF\u002A\u002A,6*%
X250190000Y-55880000D03*
%TO.P,REF\u002A\u002A,7*%
X247650000Y-53340000D03*
%TO.P,REF\u002A\u002A,8*%
X247650000Y-55880000D03*
%TO.P,REF\u002A\u002A,9*%
X245110000Y-53340000D03*
%TO.P,REF\u002A\u002A,10*%
X245110000Y-55880000D03*
%TO.P,REF\u002A\u002A,11*%
X242570000Y-53340000D03*
%TO.P,REF\u002A\u002A,12*%
X242570000Y-55880000D03*
%TO.P,REF\u002A\u002A,13*%
X240030000Y-53340000D03*
%TO.P,REF\u002A\u002A,14*%
X240030000Y-55880000D03*
%TO.P,REF\u002A\u002A,15*%
X237490000Y-53340000D03*
%TO.P,REF\u002A\u002A,16*%
X237490000Y-55880000D03*
%TO.P,REF\u002A\u002A,17*%
X234950000Y-53340000D03*
%TO.P,REF\u002A\u002A,18*%
X234950000Y-55880000D03*
%TO.P,REF\u002A\u002A,19*%
X232410000Y-53340000D03*
%TO.P,REF\u002A\u002A,20*%
X232410000Y-55880000D03*
%TO.P,REF\u002A\u002A,21*%
X229870000Y-53340000D03*
%TO.P,REF\u002A\u002A,22*%
X229870000Y-55880000D03*
%TO.P,REF\u002A\u002A,23*%
X227330000Y-53340000D03*
%TO.P,REF\u002A\u002A,24*%
X227330000Y-55880000D03*
%TO.P,REF\u002A\u002A,25*%
X224790000Y-53340000D03*
%TO.P,REF\u002A\u002A,26*%
X224790000Y-55880000D03*
%TO.P,REF\u002A\u002A,27*%
X222250000Y-53340000D03*
%TO.P,REF\u002A\u002A,28*%
X222250000Y-55880000D03*
%TO.P,REF\u002A\u002A,29*%
X219710000Y-53340000D03*
%TO.P,REF\u002A\u002A,30*%
X219710000Y-55880000D03*
%TO.P,REF\u002A\u002A,31*%
X217170000Y-53340000D03*
%TO.P,REF\u002A\u002A,32*%
X217170000Y-55880000D03*
%TO.P,REF\u002A\u002A,33*%
X214630000Y-53340000D03*
%TO.P,REF\u002A\u002A,34*%
X214630000Y-55880000D03*
%TO.P,REF\u002A\u002A,35*%
X212090000Y-53340000D03*
%TO.P,REF\u002A\u002A,36*%
X212090000Y-55880000D03*
%TO.P,REF\u002A\u002A,37*%
X209550000Y-53340000D03*
%TO.P,REF\u002A\u002A,38*%
X209550000Y-55880000D03*
%TO.P,REF\u002A\u002A,39*%
X207010000Y-53340000D03*
%TO.P,REF\u002A\u002A,40*%
X207010000Y-55880000D03*
%TO.P,REF\u002A\u002A,41*%
X204470000Y-53340000D03*
%TO.P,REF\u002A\u002A,42*%
X204470000Y-55880000D03*
%TO.P,REF\u002A\u002A,43*%
X201930000Y-53340000D03*
%TO.P,REF\u002A\u002A,44*%
X201930000Y-55880000D03*
%TO.P,REF\u002A\u002A,45*%
X199390000Y-53340000D03*
%TO.P,REF\u002A\u002A,46*%
X199390000Y-55880000D03*
%TO.P,REF\u002A\u002A,47*%
X196850000Y-53340000D03*
%TO.P,REF\u002A\u002A,48*%
X196850000Y-55880000D03*
%TO.P,REF\u002A\u002A,49*%
X194310000Y-53340000D03*
%TO.P,REF\u002A\u002A,50*%
X194310000Y-55880000D03*
%TO.P,REF\u002A\u002A,51*%
X191770000Y-53340000D03*
%TO.P,REF\u002A\u002A,52*%
X191770000Y-55880000D03*
%TO.P,REF\u002A\u002A,53*%
X189230000Y-53340000D03*
%TO.P,REF\u002A\u002A,54*%
X189230000Y-55880000D03*
%TO.P,REF\u002A\u002A,55*%
X186690000Y-53340000D03*
%TO.P,REF\u002A\u002A,56*%
X186690000Y-55880000D03*
%TO.P,REF\u002A\u002A,57*%
X184150000Y-53340000D03*
%TO.P,REF\u002A\u002A,58*%
X184150000Y-55880000D03*
%TO.P,REF\u002A\u002A,59*%
X181610000Y-53340000D03*
%TO.P,REF\u002A\u002A,60*%
X181610000Y-55880000D03*
%TO.P,REF\u002A\u002A,61*%
X179070000Y-53340000D03*
%TO.P,REF\u002A\u002A,62*%
X179070000Y-55880000D03*
%TO.P,REF\u002A\u002A,63*%
X176530000Y-53340000D03*
%TO.P,REF\u002A\u002A,64*%
X176530000Y-55880000D03*
%TO.P,REF\u002A\u002A,65*%
X173990000Y-53340000D03*
%TO.P,REF\u002A\u002A,66*%
X173990000Y-55880000D03*
%TO.P,REF\u002A\u002A,67*%
X171450000Y-53340000D03*
%TO.P,REF\u002A\u002A,68*%
X171450000Y-55880000D03*
%TO.P,REF\u002A\u002A,69*%
X168910000Y-53340000D03*
%TO.P,REF\u002A\u002A,70*%
X168910000Y-55880000D03*
%TO.P,REF\u002A\u002A,71*%
X166370000Y-53340000D03*
%TO.P,REF\u002A\u002A,72*%
X166370000Y-55880000D03*
%TO.P,REF\u002A\u002A,73*%
X163830000Y-53340000D03*
%TO.P,REF\u002A\u002A,74*%
X163830000Y-55880000D03*
%TO.P,REF\u002A\u002A,75*%
X161290000Y-53340000D03*
%TO.P,REF\u002A\u002A,76*%
X161290000Y-55880000D03*
%TO.P,REF\u002A\u002A,77*%
X158750000Y-53340000D03*
%TO.P,REF\u002A\u002A,78*%
X158750000Y-55880000D03*
%TO.P,REF\u002A\u002A,79*%
X156210000Y-53340000D03*
%TO.P,REF\u002A\u002A,80*%
X156210000Y-55880000D03*
%TD*%
D14*
%TO.P,REF\u002A\u002A,1*%
%TO.N,N/C*%
X255270000Y-58420000D03*
D12*
%TO.P,REF\u002A\u002A,2*%
X255270000Y-60960000D03*
%TO.P,REF\u002A\u002A,3*%
X252730000Y-58420000D03*
%TO.P,REF\u002A\u002A,4*%
X252730000Y-60960000D03*
%TO.P,REF\u002A\u002A,5*%
X250190000Y-58420000D03*
%TO.P,REF\u002A\u002A,6*%
X250190000Y-60960000D03*
%TO.P,REF\u002A\u002A,7*%
X247650000Y-58420000D03*
%TO.P,REF\u002A\u002A,8*%
X247650000Y-60960000D03*
%TO.P,REF\u002A\u002A,9*%
X245110000Y-58420000D03*
%TO.P,REF\u002A\u002A,10*%
X245110000Y-60960000D03*
%TO.P,REF\u002A\u002A,11*%
X242570000Y-58420000D03*
%TO.P,REF\u002A\u002A,12*%
X242570000Y-60960000D03*
%TO.P,REF\u002A\u002A,13*%
X240030000Y-58420000D03*
%TO.P,REF\u002A\u002A,14*%
X240030000Y-60960000D03*
%TO.P,REF\u002A\u002A,15*%
X237490000Y-58420000D03*
%TO.P,REF\u002A\u002A,16*%
X237490000Y-60960000D03*
%TO.P,REF\u002A\u002A,17*%
X234950000Y-58420000D03*
%TO.P,REF\u002A\u002A,18*%
X234950000Y-60960000D03*
%TO.P,REF\u002A\u002A,19*%
X232410000Y-58420000D03*
%TO.P,REF\u002A\u002A,20*%
X232410000Y-60960000D03*
%TO.P,REF\u002A\u002A,21*%
X229870000Y-58420000D03*
%TO.P,REF\u002A\u002A,22*%
X229870000Y-60960000D03*
%TO.P,REF\u002A\u002A,23*%
X227330000Y-58420000D03*
%TO.P,REF\u002A\u002A,24*%
X227330000Y-60960000D03*
%TO.P,REF\u002A\u002A,25*%
X224790000Y-58420000D03*
%TO.P,REF\u002A\u002A,26*%
X224790000Y-60960000D03*
%TO.P,REF\u002A\u002A,27*%
X222250000Y-58420000D03*
%TO.P,REF\u002A\u002A,28*%
X222250000Y-60960000D03*
%TO.P,REF\u002A\u002A,29*%
X219710000Y-58420000D03*
%TO.P,REF\u002A\u002A,30*%
X219710000Y-60960000D03*
%TO.P,REF\u002A\u002A,31*%
X217170000Y-58420000D03*
%TO.P,REF\u002A\u002A,32*%
X217170000Y-60960000D03*
%TO.P,REF\u002A\u002A,33*%
X214630000Y-58420000D03*
%TO.P,REF\u002A\u002A,34*%
X214630000Y-60960000D03*
%TO.P,REF\u002A\u002A,35*%
X212090000Y-58420000D03*
%TO.P,REF\u002A\u002A,36*%
X212090000Y-60960000D03*
%TO.P,REF\u002A\u002A,37*%
X209550000Y-58420000D03*
%TO.P,REF\u002A\u002A,38*%
X209550000Y-60960000D03*
%TO.P,REF\u002A\u002A,39*%
X207010000Y-58420000D03*
%TO.P,REF\u002A\u002A,40*%
X207010000Y-60960000D03*
%TO.P,REF\u002A\u002A,41*%
X204470000Y-58420000D03*
%TO.P,REF\u002A\u002A,42*%
X204470000Y-60960000D03*
%TO.P,REF\u002A\u002A,43*%
X201930000Y-58420000D03*
%TO.P,REF\u002A\u002A,44*%
X201930000Y-60960000D03*
%TO.P,REF\u002A\u002A,45*%
X199390000Y-58420000D03*
%TO.P,REF\u002A\u002A,46*%
X199390000Y-60960000D03*
%TO.P,REF\u002A\u002A,47*%
X196850000Y-58420000D03*
%TO.P,REF\u002A\u002A,48*%
X196850000Y-60960000D03*
%TO.P,REF\u002A\u002A,49*%
X194310000Y-58420000D03*
%TO.P,REF\u002A\u002A,50*%
X194310000Y-60960000D03*
%TO.P,REF\u002A\u002A,51*%
X191770000Y-58420000D03*
%TO.P,REF\u002A\u002A,52*%
X191770000Y-60960000D03*
%TO.P,REF\u002A\u002A,53*%
X189230000Y-58420000D03*
%TO.P,REF\u002A\u002A,54*%
X189230000Y-60960000D03*
%TO.P,REF\u002A\u002A,55*%
X186690000Y-58420000D03*
%TO.P,REF\u002A\u002A,56*%
X186690000Y-60960000D03*
%TO.P,REF\u002A\u002A,57*%
X184150000Y-58420000D03*
%TO.P,REF\u002A\u002A,58*%
X184150000Y-60960000D03*
%TO.P,REF\u002A\u002A,59*%
X181610000Y-58420000D03*
%TO.P,REF\u002A\u002A,60*%
X181610000Y-60960000D03*
%TO.P,REF\u002A\u002A,61*%
X179070000Y-58420000D03*
%TO.P,REF\u002A\u002A,62*%
X179070000Y-60960000D03*
%TO.P,REF\u002A\u002A,63*%
X176530000Y-58420000D03*
%TO.P,REF\u002A\u002A,64*%
X176530000Y-60960000D03*
%TO.P,REF\u002A\u002A,65*%
X173990000Y-58420000D03*
%TO.P,REF\u002A\u002A,66*%
X173990000Y-60960000D03*
%TO.P,REF\u002A\u002A,67*%
X171450000Y-58420000D03*
%TO.P,REF\u002A\u002A,68*%
X171450000Y-60960000D03*
%TO.P,REF\u002A\u002A,69*%
X168910000Y-58420000D03*
%TO.P,REF\u002A\u002A,70*%
X168910000Y-60960000D03*
%TO.P,REF\u002A\u002A,71*%
X166370000Y-58420000D03*
%TO.P,REF\u002A\u002A,72*%
X166370000Y-60960000D03*
%TO.P,REF\u002A\u002A,73*%
X163830000Y-58420000D03*
%TO.P,REF\u002A\u002A,74*%
X163830000Y-60960000D03*
%TO.P,REF\u002A\u002A,75*%
X161290000Y-58420000D03*
%TO.P,REF\u002A\u002A,76*%
X161290000Y-60960000D03*
%TO.P,REF\u002A\u002A,77*%
X158750000Y-58420000D03*
%TO.P,REF\u002A\u002A,78*%
X158750000Y-60960000D03*
%TO.P,REF\u002A\u002A,79*%
X156210000Y-58420000D03*
%TO.P,REF\u002A\u002A,80*%
X156210000Y-60960000D03*
%TD*%
%TO.P,REF\u002A\u002A,80*%
%TO.N,N/C*%
X156210000Y-71120000D03*
%TO.P,REF\u002A\u002A,79*%
X156210000Y-68580000D03*
%TO.P,REF\u002A\u002A,78*%
X158750000Y-71120000D03*
%TO.P,REF\u002A\u002A,77*%
X158750000Y-68580000D03*
%TO.P,REF\u002A\u002A,76*%
X161290000Y-71120000D03*
%TO.P,REF\u002A\u002A,75*%
X161290000Y-68580000D03*
%TO.P,REF\u002A\u002A,74*%
X163830000Y-71120000D03*
%TO.P,REF\u002A\u002A,73*%
X163830000Y-68580000D03*
%TO.P,REF\u002A\u002A,72*%
X166370000Y-71120000D03*
%TO.P,REF\u002A\u002A,71*%
X166370000Y-68580000D03*
%TO.P,REF\u002A\u002A,70*%
X168910000Y-71120000D03*
%TO.P,REF\u002A\u002A,69*%
X168910000Y-68580000D03*
%TO.P,REF\u002A\u002A,68*%
X171450000Y-71120000D03*
%TO.P,REF\u002A\u002A,67*%
X171450000Y-68580000D03*
%TO.P,REF\u002A\u002A,66*%
X173990000Y-71120000D03*
%TO.P,REF\u002A\u002A,65*%
X173990000Y-68580000D03*
%TO.P,REF\u002A\u002A,64*%
X176530000Y-71120000D03*
%TO.P,REF\u002A\u002A,63*%
X176530000Y-68580000D03*
%TO.P,REF\u002A\u002A,62*%
X179070000Y-71120000D03*
%TO.P,REF\u002A\u002A,61*%
X179070000Y-68580000D03*
%TO.P,REF\u002A\u002A,60*%
X181610000Y-71120000D03*
%TO.P,REF\u002A\u002A,59*%
X181610000Y-68580000D03*
%TO.P,REF\u002A\u002A,58*%
X184150000Y-71120000D03*
%TO.P,REF\u002A\u002A,57*%
X184150000Y-68580000D03*
%TO.P,REF\u002A\u002A,56*%
X186690000Y-71120000D03*
%TO.P,REF\u002A\u002A,55*%
X186690000Y-68580000D03*
%TO.P,REF\u002A\u002A,54*%
X189230000Y-71120000D03*
%TO.P,REF\u002A\u002A,53*%
X189230000Y-68580000D03*
%TO.P,REF\u002A\u002A,52*%
X191770000Y-71120000D03*
%TO.P,REF\u002A\u002A,51*%
X191770000Y-68580000D03*
%TO.P,REF\u002A\u002A,50*%
X194310000Y-71120000D03*
%TO.P,REF\u002A\u002A,49*%
X194310000Y-68580000D03*
%TO.P,REF\u002A\u002A,48*%
X196850000Y-71120000D03*
%TO.P,REF\u002A\u002A,47*%
X196850000Y-68580000D03*
%TO.P,REF\u002A\u002A,46*%
X199390000Y-71120000D03*
%TO.P,REF\u002A\u002A,45*%
X199390000Y-68580000D03*
%TO.P,REF\u002A\u002A,44*%
X201930000Y-71120000D03*
%TO.P,REF\u002A\u002A,43*%
X201930000Y-68580000D03*
%TO.P,REF\u002A\u002A,42*%
X204470000Y-71120000D03*
%TO.P,REF\u002A\u002A,41*%
X204470000Y-68580000D03*
%TO.P,REF\u002A\u002A,40*%
X207010000Y-71120000D03*
%TO.P,REF\u002A\u002A,39*%
X207010000Y-68580000D03*
%TO.P,REF\u002A\u002A,38*%
X209550000Y-71120000D03*
%TO.P,REF\u002A\u002A,37*%
X209550000Y-68580000D03*
%TO.P,REF\u002A\u002A,36*%
X212090000Y-71120000D03*
%TO.P,REF\u002A\u002A,35*%
X212090000Y-68580000D03*
%TO.P,REF\u002A\u002A,34*%
X214630000Y-71120000D03*
%TO.P,REF\u002A\u002A,33*%
X214630000Y-68580000D03*
%TO.P,REF\u002A\u002A,32*%
X217170000Y-71120000D03*
%TO.P,REF\u002A\u002A,31*%
X217170000Y-68580000D03*
%TO.P,REF\u002A\u002A,30*%
X219710000Y-71120000D03*
%TO.P,REF\u002A\u002A,29*%
X219710000Y-68580000D03*
%TO.P,REF\u002A\u002A,28*%
X222250000Y-71120000D03*
%TO.P,REF\u002A\u002A,27*%
X222250000Y-68580000D03*
%TO.P,REF\u002A\u002A,26*%
X224790000Y-71120000D03*
%TO.P,REF\u002A\u002A,25*%
X224790000Y-68580000D03*
%TO.P,REF\u002A\u002A,24*%
X227330000Y-71120000D03*
%TO.P,REF\u002A\u002A,23*%
X227330000Y-68580000D03*
%TO.P,REF\u002A\u002A,22*%
X229870000Y-71120000D03*
%TO.P,REF\u002A\u002A,21*%
X229870000Y-68580000D03*
%TO.P,REF\u002A\u002A,20*%
X232410000Y-71120000D03*
%TO.P,REF\u002A\u002A,19*%
X232410000Y-68580000D03*
%TO.P,REF\u002A\u002A,18*%
X234950000Y-71120000D03*
%TO.P,REF\u002A\u002A,17*%
X234950000Y-68580000D03*
%TO.P,REF\u002A\u002A,16*%
X237490000Y-71120000D03*
%TO.P,REF\u002A\u002A,15*%
X237490000Y-68580000D03*
%TO.P,REF\u002A\u002A,14*%
X240030000Y-71120000D03*
%TO.P,REF\u002A\u002A,13*%
X240030000Y-68580000D03*
%TO.P,REF\u002A\u002A,12*%
X242570000Y-71120000D03*
%TO.P,REF\u002A\u002A,11*%
X242570000Y-68580000D03*
%TO.P,REF\u002A\u002A,10*%
X245110000Y-71120000D03*
%TO.P,REF\u002A\u002A,9*%
X245110000Y-68580000D03*
%TO.P,REF\u002A\u002A,8*%
X247650000Y-71120000D03*
%TO.P,REF\u002A\u002A,7*%
X247650000Y-68580000D03*
%TO.P,REF\u002A\u002A,6*%
X250190000Y-71120000D03*
%TO.P,REF\u002A\u002A,5*%
X250190000Y-68580000D03*
%TO.P,REF\u002A\u002A,4*%
X252730000Y-71120000D03*
%TO.P,REF\u002A\u002A,3*%
X252730000Y-68580000D03*
%TO.P,REF\u002A\u002A,2*%
X255270000Y-71120000D03*
D14*
%TO.P,REF\u002A\u002A,1*%
X255270000Y-68580000D03*
%TD*%
D12*
%TO.P,REF\u002A\u002A,80*%
%TO.N,N/C*%
X156210000Y-66040000D03*
%TO.P,REF\u002A\u002A,79*%
X156210000Y-63500000D03*
%TO.P,REF\u002A\u002A,78*%
X158750000Y-66040000D03*
%TO.P,REF\u002A\u002A,77*%
X158750000Y-63500000D03*
%TO.P,REF\u002A\u002A,76*%
X161290000Y-66040000D03*
%TO.P,REF\u002A\u002A,75*%
X161290000Y-63500000D03*
%TO.P,REF\u002A\u002A,74*%
X163830000Y-66040000D03*
%TO.P,REF\u002A\u002A,73*%
X163830000Y-63500000D03*
%TO.P,REF\u002A\u002A,72*%
X166370000Y-66040000D03*
%TO.P,REF\u002A\u002A,71*%
X166370000Y-63500000D03*
%TO.P,REF\u002A\u002A,70*%
X168910000Y-66040000D03*
%TO.P,REF\u002A\u002A,69*%
X168910000Y-63500000D03*
%TO.P,REF\u002A\u002A,68*%
X171450000Y-66040000D03*
%TO.P,REF\u002A\u002A,67*%
X171450000Y-63500000D03*
%TO.P,REF\u002A\u002A,66*%
X173990000Y-66040000D03*
%TO.P,REF\u002A\u002A,65*%
X173990000Y-63500000D03*
%TO.P,REF\u002A\u002A,64*%
X176530000Y-66040000D03*
%TO.P,REF\u002A\u002A,63*%
X176530000Y-63500000D03*
%TO.P,REF\u002A\u002A,62*%
X179070000Y-66040000D03*
%TO.P,REF\u002A\u002A,61*%
X179070000Y-63500000D03*
%TO.P,REF\u002A\u002A,60*%
X181610000Y-66040000D03*
%TO.P,REF\u002A\u002A,59*%
X181610000Y-63500000D03*
%TO.P,REF\u002A\u002A,58*%
X184150000Y-66040000D03*
%TO.P,REF\u002A\u002A,57*%
X184150000Y-63500000D03*
%TO.P,REF\u002A\u002A,56*%
X186690000Y-66040000D03*
%TO.P,REF\u002A\u002A,55*%
X186690000Y-63500000D03*
%TO.P,REF\u002A\u002A,54*%
X189230000Y-66040000D03*
%TO.P,REF\u002A\u002A,53*%
X189230000Y-63500000D03*
%TO.P,REF\u002A\u002A,52*%
X191770000Y-66040000D03*
%TO.P,REF\u002A\u002A,51*%
X191770000Y-63500000D03*
%TO.P,REF\u002A\u002A,50*%
X194310000Y-66040000D03*
%TO.P,REF\u002A\u002A,49*%
X194310000Y-63500000D03*
%TO.P,REF\u002A\u002A,48*%
X196850000Y-66040000D03*
%TO.P,REF\u002A\u002A,47*%
X196850000Y-63500000D03*
%TO.P,REF\u002A\u002A,46*%
X199390000Y-66040000D03*
%TO.P,REF\u002A\u002A,45*%
X199390000Y-63500000D03*
%TO.P,REF\u002A\u002A,44*%
X201930000Y-66040000D03*
%TO.P,REF\u002A\u002A,43*%
X201930000Y-63500000D03*
%TO.P,REF\u002A\u002A,42*%
X204470000Y-66040000D03*
%TO.P,REF\u002A\u002A,41*%
X204470000Y-63500000D03*
%TO.P,REF\u002A\u002A,40*%
X207010000Y-66040000D03*
%TO.P,REF\u002A\u002A,39*%
X207010000Y-63500000D03*
%TO.P,REF\u002A\u002A,38*%
X209550000Y-66040000D03*
%TO.P,REF\u002A\u002A,37*%
X209550000Y-63500000D03*
%TO.P,REF\u002A\u002A,36*%
X212090000Y-66040000D03*
%TO.P,REF\u002A\u002A,35*%
X212090000Y-63500000D03*
%TO.P,REF\u002A\u002A,34*%
X214630000Y-66040000D03*
%TO.P,REF\u002A\u002A,33*%
X214630000Y-63500000D03*
%TO.P,REF\u002A\u002A,32*%
X217170000Y-66040000D03*
%TO.P,REF\u002A\u002A,31*%
X217170000Y-63500000D03*
%TO.P,REF\u002A\u002A,30*%
X219710000Y-66040000D03*
%TO.P,REF\u002A\u002A,29*%
X219710000Y-63500000D03*
%TO.P,REF\u002A\u002A,28*%
X222250000Y-66040000D03*
%TO.P,REF\u002A\u002A,27*%
X222250000Y-63500000D03*
%TO.P,REF\u002A\u002A,26*%
X224790000Y-66040000D03*
%TO.P,REF\u002A\u002A,25*%
X224790000Y-63500000D03*
%TO.P,REF\u002A\u002A,24*%
X227330000Y-66040000D03*
%TO.P,REF\u002A\u002A,23*%
X227330000Y-63500000D03*
%TO.P,REF\u002A\u002A,22*%
X229870000Y-66040000D03*
%TO.P,REF\u002A\u002A,21*%
X229870000Y-63500000D03*
%TO.P,REF\u002A\u002A,20*%
X232410000Y-66040000D03*
%TO.P,REF\u002A\u002A,19*%
X232410000Y-63500000D03*
%TO.P,REF\u002A\u002A,18*%
X234950000Y-66040000D03*
%TO.P,REF\u002A\u002A,17*%
X234950000Y-63500000D03*
%TO.P,REF\u002A\u002A,16*%
X237490000Y-66040000D03*
%TO.P,REF\u002A\u002A,15*%
X237490000Y-63500000D03*
%TO.P,REF\u002A\u002A,14*%
X240030000Y-66040000D03*
%TO.P,REF\u002A\u002A,13*%
X240030000Y-63500000D03*
%TO.P,REF\u002A\u002A,12*%
X242570000Y-66040000D03*
%TO.P,REF\u002A\u002A,11*%
X242570000Y-63500000D03*
%TO.P,REF\u002A\u002A,10*%
X245110000Y-66040000D03*
%TO.P,REF\u002A\u002A,9*%
X245110000Y-63500000D03*
%TO.P,REF\u002A\u002A,8*%
X247650000Y-66040000D03*
%TO.P,REF\u002A\u002A,7*%
X247650000Y-63500000D03*
%TO.P,REF\u002A\u002A,6*%
X250190000Y-66040000D03*
%TO.P,REF\u002A\u002A,5*%
X250190000Y-63500000D03*
%TO.P,REF\u002A\u002A,4*%
X252730000Y-66040000D03*
%TO.P,REF\u002A\u002A,3*%
X252730000Y-63500000D03*
%TO.P,REF\u002A\u002A,2*%
X255270000Y-66040000D03*
D14*
%TO.P,REF\u002A\u002A,1*%
X255270000Y-63500000D03*
%TD*%
D12*
%TO.P,REF\u002A\u002A,80*%
%TO.N,N/C*%
X156210000Y-86360000D03*
%TO.P,REF\u002A\u002A,79*%
X156210000Y-83820000D03*
%TO.P,REF\u002A\u002A,78*%
X158750000Y-86360000D03*
%TO.P,REF\u002A\u002A,77*%
X158750000Y-83820000D03*
%TO.P,REF\u002A\u002A,76*%
X161290000Y-86360000D03*
%TO.P,REF\u002A\u002A,75*%
X161290000Y-83820000D03*
%TO.P,REF\u002A\u002A,74*%
X163830000Y-86360000D03*
%TO.P,REF\u002A\u002A,73*%
X163830000Y-83820000D03*
%TO.P,REF\u002A\u002A,72*%
X166370000Y-86360000D03*
%TO.P,REF\u002A\u002A,71*%
X166370000Y-83820000D03*
%TO.P,REF\u002A\u002A,70*%
X168910000Y-86360000D03*
%TO.P,REF\u002A\u002A,69*%
X168910000Y-83820000D03*
%TO.P,REF\u002A\u002A,68*%
X171450000Y-86360000D03*
%TO.P,REF\u002A\u002A,67*%
X171450000Y-83820000D03*
%TO.P,REF\u002A\u002A,66*%
X173990000Y-86360000D03*
%TO.P,REF\u002A\u002A,65*%
X173990000Y-83820000D03*
%TO.P,REF\u002A\u002A,64*%
X176530000Y-86360000D03*
%TO.P,REF\u002A\u002A,63*%
X176530000Y-83820000D03*
%TO.P,REF\u002A\u002A,62*%
X179070000Y-86360000D03*
%TO.P,REF\u002A\u002A,61*%
X179070000Y-83820000D03*
%TO.P,REF\u002A\u002A,60*%
X181610000Y-86360000D03*
%TO.P,REF\u002A\u002A,59*%
X181610000Y-83820000D03*
%TO.P,REF\u002A\u002A,58*%
X184150000Y-86360000D03*
%TO.P,REF\u002A\u002A,57*%
X184150000Y-83820000D03*
%TO.P,REF\u002A\u002A,56*%
X186690000Y-86360000D03*
%TO.P,REF\u002A\u002A,55*%
X186690000Y-83820000D03*
%TO.P,REF\u002A\u002A,54*%
X189230000Y-86360000D03*
%TO.P,REF\u002A\u002A,53*%
X189230000Y-83820000D03*
%TO.P,REF\u002A\u002A,52*%
X191770000Y-86360000D03*
%TO.P,REF\u002A\u002A,51*%
X191770000Y-83820000D03*
%TO.P,REF\u002A\u002A,50*%
X194310000Y-86360000D03*
%TO.P,REF\u002A\u002A,49*%
X194310000Y-83820000D03*
%TO.P,REF\u002A\u002A,48*%
X196850000Y-86360000D03*
%TO.P,REF\u002A\u002A,47*%
X196850000Y-83820000D03*
%TO.P,REF\u002A\u002A,46*%
X199390000Y-86360000D03*
%TO.P,REF\u002A\u002A,45*%
X199390000Y-83820000D03*
%TO.P,REF\u002A\u002A,44*%
X201930000Y-86360000D03*
%TO.P,REF\u002A\u002A,43*%
X201930000Y-83820000D03*
%TO.P,REF\u002A\u002A,42*%
X204470000Y-86360000D03*
%TO.P,REF\u002A\u002A,41*%
X204470000Y-83820000D03*
%TO.P,REF\u002A\u002A,40*%
X207010000Y-86360000D03*
%TO.P,REF\u002A\u002A,39*%
X207010000Y-83820000D03*
%TO.P,REF\u002A\u002A,38*%
X209550000Y-86360000D03*
%TO.P,REF\u002A\u002A,37*%
X209550000Y-83820000D03*
%TO.P,REF\u002A\u002A,36*%
X212090000Y-86360000D03*
%TO.P,REF\u002A\u002A,35*%
X212090000Y-83820000D03*
%TO.P,REF\u002A\u002A,34*%
X214630000Y-86360000D03*
%TO.P,REF\u002A\u002A,33*%
X214630000Y-83820000D03*
%TO.P,REF\u002A\u002A,32*%
X217170000Y-86360000D03*
%TO.P,REF\u002A\u002A,31*%
X217170000Y-83820000D03*
%TO.P,REF\u002A\u002A,30*%
X219710000Y-86360000D03*
%TO.P,REF\u002A\u002A,29*%
X219710000Y-83820000D03*
%TO.P,REF\u002A\u002A,28*%
X222250000Y-86360000D03*
%TO.P,REF\u002A\u002A,27*%
X222250000Y-83820000D03*
%TO.P,REF\u002A\u002A,26*%
X224790000Y-86360000D03*
%TO.P,REF\u002A\u002A,25*%
X224790000Y-83820000D03*
%TO.P,REF\u002A\u002A,24*%
X227330000Y-86360000D03*
%TO.P,REF\u002A\u002A,23*%
X227330000Y-83820000D03*
%TO.P,REF\u002A\u002A,22*%
X229870000Y-86360000D03*
%TO.P,REF\u002A\u002A,21*%
X229870000Y-83820000D03*
%TO.P,REF\u002A\u002A,20*%
X232410000Y-86360000D03*
%TO.P,REF\u002A\u002A,19*%
X232410000Y-83820000D03*
%TO.P,REF\u002A\u002A,18*%
X234950000Y-86360000D03*
%TO.P,REF\u002A\u002A,17*%
X234950000Y-83820000D03*
%TO.P,REF\u002A\u002A,16*%
X237490000Y-86360000D03*
%TO.P,REF\u002A\u002A,15*%
X237490000Y-83820000D03*
%TO.P,REF\u002A\u002A,14*%
X240030000Y-86360000D03*
%TO.P,REF\u002A\u002A,13*%
X240030000Y-83820000D03*
%TO.P,REF\u002A\u002A,12*%
X242570000Y-86360000D03*
%TO.P,REF\u002A\u002A,11*%
X242570000Y-83820000D03*
%TO.P,REF\u002A\u002A,10*%
X245110000Y-86360000D03*
%TO.P,REF\u002A\u002A,9*%
X245110000Y-83820000D03*
%TO.P,REF\u002A\u002A,8*%
X247650000Y-86360000D03*
%TO.P,REF\u002A\u002A,7*%
X247650000Y-83820000D03*
%TO.P,REF\u002A\u002A,6*%
X250190000Y-86360000D03*
%TO.P,REF\u002A\u002A,5*%
X250190000Y-83820000D03*
%TO.P,REF\u002A\u002A,4*%
X252730000Y-86360000D03*
%TO.P,REF\u002A\u002A,3*%
X252730000Y-83820000D03*
%TO.P,REF\u002A\u002A,2*%
X255270000Y-86360000D03*
D14*
%TO.P,REF\u002A\u002A,1*%
X255270000Y-83820000D03*
%TD*%
D12*
%TO.P,REF\u002A\u002A,80*%
%TO.N,N/C*%
X156210000Y-81280000D03*
%TO.P,REF\u002A\u002A,79*%
X156210000Y-78740000D03*
%TO.P,REF\u002A\u002A,78*%
X158750000Y-81280000D03*
%TO.P,REF\u002A\u002A,77*%
X158750000Y-78740000D03*
%TO.P,REF\u002A\u002A,76*%
X161290000Y-81280000D03*
%TO.P,REF\u002A\u002A,75*%
X161290000Y-78740000D03*
%TO.P,REF\u002A\u002A,74*%
X163830000Y-81280000D03*
%TO.P,REF\u002A\u002A,73*%
X163830000Y-78740000D03*
%TO.P,REF\u002A\u002A,72*%
X166370000Y-81280000D03*
%TO.P,REF\u002A\u002A,71*%
X166370000Y-78740000D03*
%TO.P,REF\u002A\u002A,70*%
X168910000Y-81280000D03*
%TO.P,REF\u002A\u002A,69*%
X168910000Y-78740000D03*
%TO.P,REF\u002A\u002A,68*%
X171450000Y-81280000D03*
%TO.P,REF\u002A\u002A,67*%
X171450000Y-78740000D03*
%TO.P,REF\u002A\u002A,66*%
X173990000Y-81280000D03*
%TO.P,REF\u002A\u002A,65*%
X173990000Y-78740000D03*
%TO.P,REF\u002A\u002A,64*%
X176530000Y-81280000D03*
%TO.P,REF\u002A\u002A,63*%
X176530000Y-78740000D03*
%TO.P,REF\u002A\u002A,62*%
X179070000Y-81280000D03*
%TO.P,REF\u002A\u002A,61*%
X179070000Y-78740000D03*
%TO.P,REF\u002A\u002A,60*%
X181610000Y-81280000D03*
%TO.P,REF\u002A\u002A,59*%
X181610000Y-78740000D03*
%TO.P,REF\u002A\u002A,58*%
X184150000Y-81280000D03*
%TO.P,REF\u002A\u002A,57*%
X184150000Y-78740000D03*
%TO.P,REF\u002A\u002A,56*%
X186690000Y-81280000D03*
%TO.P,REF\u002A\u002A,55*%
X186690000Y-78740000D03*
%TO.P,REF\u002A\u002A,54*%
X189230000Y-81280000D03*
%TO.P,REF\u002A\u002A,53*%
X189230000Y-78740000D03*
%TO.P,REF\u002A\u002A,52*%
X191770000Y-81280000D03*
%TO.P,REF\u002A\u002A,51*%
X191770000Y-78740000D03*
%TO.P,REF\u002A\u002A,50*%
X194310000Y-81280000D03*
%TO.P,REF\u002A\u002A,49*%
X194310000Y-78740000D03*
%TO.P,REF\u002A\u002A,48*%
X196850000Y-81280000D03*
%TO.P,REF\u002A\u002A,47*%
X196850000Y-78740000D03*
%TO.P,REF\u002A\u002A,46*%
X199390000Y-81280000D03*
%TO.P,REF\u002A\u002A,45*%
X199390000Y-78740000D03*
%TO.P,REF\u002A\u002A,44*%
X201930000Y-81280000D03*
%TO.P,REF\u002A\u002A,43*%
X201930000Y-78740000D03*
%TO.P,REF\u002A\u002A,42*%
X204470000Y-81280000D03*
%TO.P,REF\u002A\u002A,41*%
X204470000Y-78740000D03*
%TO.P,REF\u002A\u002A,40*%
X207010000Y-81280000D03*
%TO.P,REF\u002A\u002A,39*%
X207010000Y-78740000D03*
%TO.P,REF\u002A\u002A,38*%
X209550000Y-81280000D03*
%TO.P,REF\u002A\u002A,37*%
X209550000Y-78740000D03*
%TO.P,REF\u002A\u002A,36*%
X212090000Y-81280000D03*
%TO.P,REF\u002A\u002A,35*%
X212090000Y-78740000D03*
%TO.P,REF\u002A\u002A,34*%
X214630000Y-81280000D03*
%TO.P,REF\u002A\u002A,33*%
X214630000Y-78740000D03*
%TO.P,REF\u002A\u002A,32*%
X217170000Y-81280000D03*
%TO.P,REF\u002A\u002A,31*%
X217170000Y-78740000D03*
%TO.P,REF\u002A\u002A,30*%
X219710000Y-81280000D03*
%TO.P,REF\u002A\u002A,29*%
X219710000Y-78740000D03*
%TO.P,REF\u002A\u002A,28*%
X222250000Y-81280000D03*
%TO.P,REF\u002A\u002A,27*%
X222250000Y-78740000D03*
%TO.P,REF\u002A\u002A,26*%
X224790000Y-81280000D03*
%TO.P,REF\u002A\u002A,25*%
X224790000Y-78740000D03*
%TO.P,REF\u002A\u002A,24*%
X227330000Y-81280000D03*
%TO.P,REF\u002A\u002A,23*%
X227330000Y-78740000D03*
%TO.P,REF\u002A\u002A,22*%
X229870000Y-81280000D03*
%TO.P,REF\u002A\u002A,21*%
X229870000Y-78740000D03*
%TO.P,REF\u002A\u002A,20*%
X232410000Y-81280000D03*
%TO.P,REF\u002A\u002A,19*%
X232410000Y-78740000D03*
%TO.P,REF\u002A\u002A,18*%
X234950000Y-81280000D03*
%TO.P,REF\u002A\u002A,17*%
X234950000Y-78740000D03*
%TO.P,REF\u002A\u002A,16*%
X237490000Y-81280000D03*
%TO.P,REF\u002A\u002A,15*%
X237490000Y-78740000D03*
%TO.P,REF\u002A\u002A,14*%
X240030000Y-81280000D03*
%TO.P,REF\u002A\u002A,13*%
X240030000Y-78740000D03*
%TO.P,REF\u002A\u002A,12*%
X242570000Y-81280000D03*
%TO.P,REF\u002A\u002A,11*%
X242570000Y-78740000D03*
%TO.P,REF\u002A\u002A,10*%
X245110000Y-81280000D03*
%TO.P,REF\u002A\u002A,9*%
X245110000Y-78740000D03*
%TO.P,REF\u002A\u002A,8*%
X247650000Y-81280000D03*
%TO.P,REF\u002A\u002A,7*%
X247650000Y-78740000D03*
%TO.P,REF\u002A\u002A,6*%
X250190000Y-81280000D03*
%TO.P,REF\u002A\u002A,5*%
X250190000Y-78740000D03*
%TO.P,REF\u002A\u002A,4*%
X252730000Y-81280000D03*
%TO.P,REF\u002A\u002A,3*%
X252730000Y-78740000D03*
%TO.P,REF\u002A\u002A,2*%
X255270000Y-81280000D03*
D14*
%TO.P,REF\u002A\u002A,1*%
X255270000Y-78740000D03*
%TD*%
D12*
%TO.P,REF\u002A\u002A,80*%
%TO.N,N/C*%
X156210000Y-76200000D03*
%TO.P,REF\u002A\u002A,79*%
X156210000Y-73660000D03*
%TO.P,REF\u002A\u002A,78*%
X158750000Y-76200000D03*
%TO.P,REF\u002A\u002A,77*%
X158750000Y-73660000D03*
%TO.P,REF\u002A\u002A,76*%
X161290000Y-76200000D03*
%TO.P,REF\u002A\u002A,75*%
X161290000Y-73660000D03*
%TO.P,REF\u002A\u002A,74*%
X163830000Y-76200000D03*
%TO.P,REF\u002A\u002A,73*%
X163830000Y-73660000D03*
%TO.P,REF\u002A\u002A,72*%
X166370000Y-76200000D03*
%TO.P,REF\u002A\u002A,71*%
X166370000Y-73660000D03*
%TO.P,REF\u002A\u002A,70*%
X168910000Y-76200000D03*
%TO.P,REF\u002A\u002A,69*%
X168910000Y-73660000D03*
%TO.P,REF\u002A\u002A,68*%
X171450000Y-76200000D03*
%TO.P,REF\u002A\u002A,67*%
X171450000Y-73660000D03*
%TO.P,REF\u002A\u002A,66*%
X173990000Y-76200000D03*
%TO.P,REF\u002A\u002A,65*%
X173990000Y-73660000D03*
%TO.P,REF\u002A\u002A,64*%
X176530000Y-76200000D03*
%TO.P,REF\u002A\u002A,63*%
X176530000Y-73660000D03*
%TO.P,REF\u002A\u002A,62*%
X179070000Y-76200000D03*
%TO.P,REF\u002A\u002A,61*%
X179070000Y-73660000D03*
%TO.P,REF\u002A\u002A,60*%
X181610000Y-76200000D03*
%TO.P,REF\u002A\u002A,59*%
X181610000Y-73660000D03*
%TO.P,REF\u002A\u002A,58*%
X184150000Y-76200000D03*
%TO.P,REF\u002A\u002A,57*%
X184150000Y-73660000D03*
%TO.P,REF\u002A\u002A,56*%
X186690000Y-76200000D03*
%TO.P,REF\u002A\u002A,55*%
X186690000Y-73660000D03*
%TO.P,REF\u002A\u002A,54*%
X189230000Y-76200000D03*
%TO.P,REF\u002A\u002A,53*%
X189230000Y-73660000D03*
%TO.P,REF\u002A\u002A,52*%
X191770000Y-76200000D03*
%TO.P,REF\u002A\u002A,51*%
X191770000Y-73660000D03*
%TO.P,REF\u002A\u002A,50*%
X194310000Y-76200000D03*
%TO.P,REF\u002A\u002A,49*%
X194310000Y-73660000D03*
%TO.P,REF\u002A\u002A,48*%
X196850000Y-76200000D03*
%TO.P,REF\u002A\u002A,47*%
X196850000Y-73660000D03*
%TO.P,REF\u002A\u002A,46*%
X199390000Y-76200000D03*
%TO.P,REF\u002A\u002A,45*%
X199390000Y-73660000D03*
%TO.P,REF\u002A\u002A,44*%
X201930000Y-76200000D03*
%TO.P,REF\u002A\u002A,43*%
X201930000Y-73660000D03*
%TO.P,REF\u002A\u002A,42*%
X204470000Y-76200000D03*
%TO.P,REF\u002A\u002A,41*%
X204470000Y-73660000D03*
%TO.P,REF\u002A\u002A,40*%
X207010000Y-76200000D03*
%TO.P,REF\u002A\u002A,39*%
X207010000Y-73660000D03*
%TO.P,REF\u002A\u002A,38*%
X209550000Y-76200000D03*
%TO.P,REF\u002A\u002A,37*%
X209550000Y-73660000D03*
%TO.P,REF\u002A\u002A,36*%
X212090000Y-76200000D03*
%TO.P,REF\u002A\u002A,35*%
X212090000Y-73660000D03*
%TO.P,REF\u002A\u002A,34*%
X214630000Y-76200000D03*
%TO.P,REF\u002A\u002A,33*%
X214630000Y-73660000D03*
%TO.P,REF\u002A\u002A,32*%
X217170000Y-76200000D03*
%TO.P,REF\u002A\u002A,31*%
X217170000Y-73660000D03*
%TO.P,REF\u002A\u002A,30*%
X219710000Y-76200000D03*
%TO.P,REF\u002A\u002A,29*%
X219710000Y-73660000D03*
%TO.P,REF\u002A\u002A,28*%
X222250000Y-76200000D03*
%TO.P,REF\u002A\u002A,27*%
X222250000Y-73660000D03*
%TO.P,REF\u002A\u002A,26*%
X224790000Y-76200000D03*
%TO.P,REF\u002A\u002A,25*%
X224790000Y-73660000D03*
%TO.P,REF\u002A\u002A,24*%
X227330000Y-76200000D03*
%TO.P,REF\u002A\u002A,23*%
X227330000Y-73660000D03*
%TO.P,REF\u002A\u002A,22*%
X229870000Y-76200000D03*
%TO.P,REF\u002A\u002A,21*%
X229870000Y-73660000D03*
%TO.P,REF\u002A\u002A,20*%
X232410000Y-76200000D03*
%TO.P,REF\u002A\u002A,19*%
X232410000Y-73660000D03*
%TO.P,REF\u002A\u002A,18*%
X234950000Y-76200000D03*
%TO.P,REF\u002A\u002A,17*%
X234950000Y-73660000D03*
%TO.P,REF\u002A\u002A,16*%
X237490000Y-76200000D03*
%TO.P,REF\u002A\u002A,15*%
X237490000Y-73660000D03*
%TO.P,REF\u002A\u002A,14*%
X240030000Y-76200000D03*
%TO.P,REF\u002A\u002A,13*%
X240030000Y-73660000D03*
%TO.P,REF\u002A\u002A,12*%
X242570000Y-76200000D03*
%TO.P,REF\u002A\u002A,11*%
X242570000Y-73660000D03*
%TO.P,REF\u002A\u002A,10*%
X245110000Y-76200000D03*
%TO.P,REF\u002A\u002A,9*%
X245110000Y-73660000D03*
%TO.P,REF\u002A\u002A,8*%
X247650000Y-76200000D03*
%TO.P,REF\u002A\u002A,7*%
X247650000Y-73660000D03*
%TO.P,REF\u002A\u002A,6*%
X250190000Y-76200000D03*
%TO.P,REF\u002A\u002A,5*%
X250190000Y-73660000D03*
%TO.P,REF\u002A\u002A,4*%
X252730000Y-76200000D03*
%TO.P,REF\u002A\u002A,3*%
X252730000Y-73660000D03*
%TO.P,REF\u002A\u002A,2*%
X255270000Y-76200000D03*
D14*
%TO.P,REF\u002A\u002A,1*%
X255270000Y-73660000D03*
%TD*%
D12*
%TO.P,REF\u002A\u002A,80*%
%TO.N,N/C*%
X156210000Y-91440000D03*
%TO.P,REF\u002A\u002A,79*%
X156210000Y-88900000D03*
%TO.P,REF\u002A\u002A,78*%
X158750000Y-91440000D03*
%TO.P,REF\u002A\u002A,77*%
X158750000Y-88900000D03*
%TO.P,REF\u002A\u002A,76*%
X161290000Y-91440000D03*
%TO.P,REF\u002A\u002A,75*%
X161290000Y-88900000D03*
%TO.P,REF\u002A\u002A,74*%
X163830000Y-91440000D03*
%TO.P,REF\u002A\u002A,73*%
X163830000Y-88900000D03*
%TO.P,REF\u002A\u002A,72*%
X166370000Y-91440000D03*
%TO.P,REF\u002A\u002A,71*%
X166370000Y-88900000D03*
%TO.P,REF\u002A\u002A,70*%
X168910000Y-91440000D03*
%TO.P,REF\u002A\u002A,69*%
X168910000Y-88900000D03*
%TO.P,REF\u002A\u002A,68*%
X171450000Y-91440000D03*
%TO.P,REF\u002A\u002A,67*%
X171450000Y-88900000D03*
%TO.P,REF\u002A\u002A,66*%
X173990000Y-91440000D03*
%TO.P,REF\u002A\u002A,65*%
X173990000Y-88900000D03*
%TO.P,REF\u002A\u002A,64*%
X176530000Y-91440000D03*
%TO.P,REF\u002A\u002A,63*%
X176530000Y-88900000D03*
%TO.P,REF\u002A\u002A,62*%
X179070000Y-91440000D03*
%TO.P,REF\u002A\u002A,61*%
X179070000Y-88900000D03*
%TO.P,REF\u002A\u002A,60*%
X181610000Y-91440000D03*
%TO.P,REF\u002A\u002A,59*%
X181610000Y-88900000D03*
%TO.P,REF\u002A\u002A,58*%
X184150000Y-91440000D03*
%TO.P,REF\u002A\u002A,57*%
X184150000Y-88900000D03*
%TO.P,REF\u002A\u002A,56*%
X186690000Y-91440000D03*
%TO.P,REF\u002A\u002A,55*%
X186690000Y-88900000D03*
%TO.P,REF\u002A\u002A,54*%
X189230000Y-91440000D03*
%TO.P,REF\u002A\u002A,53*%
X189230000Y-88900000D03*
%TO.P,REF\u002A\u002A,52*%
X191770000Y-91440000D03*
%TO.P,REF\u002A\u002A,51*%
X191770000Y-88900000D03*
%TO.P,REF\u002A\u002A,50*%
X194310000Y-91440000D03*
%TO.P,REF\u002A\u002A,49*%
X194310000Y-88900000D03*
%TO.P,REF\u002A\u002A,48*%
X196850000Y-91440000D03*
%TO.P,REF\u002A\u002A,47*%
X196850000Y-88900000D03*
%TO.P,REF\u002A\u002A,46*%
X199390000Y-91440000D03*
%TO.P,REF\u002A\u002A,45*%
X199390000Y-88900000D03*
%TO.P,REF\u002A\u002A,44*%
X201930000Y-91440000D03*
%TO.P,REF\u002A\u002A,43*%
X201930000Y-88900000D03*
%TO.P,REF\u002A\u002A,42*%
X204470000Y-91440000D03*
%TO.P,REF\u002A\u002A,41*%
X204470000Y-88900000D03*
%TO.P,REF\u002A\u002A,40*%
X207010000Y-91440000D03*
%TO.P,REF\u002A\u002A,39*%
X207010000Y-88900000D03*
%TO.P,REF\u002A\u002A,38*%
X209550000Y-91440000D03*
%TO.P,REF\u002A\u002A,37*%
X209550000Y-88900000D03*
%TO.P,REF\u002A\u002A,36*%
X212090000Y-91440000D03*
%TO.P,REF\u002A\u002A,35*%
X212090000Y-88900000D03*
%TO.P,REF\u002A\u002A,34*%
X214630000Y-91440000D03*
%TO.P,REF\u002A\u002A,33*%
X214630000Y-88900000D03*
%TO.P,REF\u002A\u002A,32*%
X217170000Y-91440000D03*
%TO.P,REF\u002A\u002A,31*%
X217170000Y-88900000D03*
%TO.P,REF\u002A\u002A,30*%
X219710000Y-91440000D03*
%TO.P,REF\u002A\u002A,29*%
X219710000Y-88900000D03*
%TO.P,REF\u002A\u002A,28*%
X222250000Y-91440000D03*
%TO.P,REF\u002A\u002A,27*%
X222250000Y-88900000D03*
%TO.P,REF\u002A\u002A,26*%
X224790000Y-91440000D03*
%TO.P,REF\u002A\u002A,25*%
X224790000Y-88900000D03*
%TO.P,REF\u002A\u002A,24*%
X227330000Y-91440000D03*
%TO.P,REF\u002A\u002A,23*%
X227330000Y-88900000D03*
%TO.P,REF\u002A\u002A,22*%
X229870000Y-91440000D03*
%TO.P,REF\u002A\u002A,21*%
X229870000Y-88900000D03*
%TO.P,REF\u002A\u002A,20*%
X232410000Y-91440000D03*
%TO.P,REF\u002A\u002A,19*%
X232410000Y-88900000D03*
%TO.P,REF\u002A\u002A,18*%
X234950000Y-91440000D03*
%TO.P,REF\u002A\u002A,17*%
X234950000Y-88900000D03*
%TO.P,REF\u002A\u002A,16*%
X237490000Y-91440000D03*
%TO.P,REF\u002A\u002A,15*%
X237490000Y-88900000D03*
%TO.P,REF\u002A\u002A,14*%
X240030000Y-91440000D03*
%TO.P,REF\u002A\u002A,13*%
X240030000Y-88900000D03*
%TO.P,REF\u002A\u002A,12*%
X242570000Y-91440000D03*
%TO.P,REF\u002A\u002A,11*%
X242570000Y-88900000D03*
%TO.P,REF\u002A\u002A,10*%
X245110000Y-91440000D03*
%TO.P,REF\u002A\u002A,9*%
X245110000Y-88900000D03*
%TO.P,REF\u002A\u002A,8*%
X247650000Y-91440000D03*
%TO.P,REF\u002A\u002A,7*%
X247650000Y-88900000D03*
%TO.P,REF\u002A\u002A,6*%
X250190000Y-91440000D03*
%TO.P,REF\u002A\u002A,5*%
X250190000Y-88900000D03*
%TO.P,REF\u002A\u002A,4*%
X252730000Y-91440000D03*
%TO.P,REF\u002A\u002A,3*%
X252730000Y-88900000D03*
%TO.P,REF\u002A\u002A,2*%
X255270000Y-91440000D03*
D14*
%TO.P,REF\u002A\u002A,1*%
X255270000Y-88900000D03*
%TD*%
%TO.P,REF\u002A\u002A,1*%
%TO.N,N/C*%
X255270000Y-93980000D03*
D12*
%TO.P,REF\u002A\u002A,2*%
X255270000Y-96520000D03*
%TO.P,REF\u002A\u002A,3*%
X252730000Y-93980000D03*
%TO.P,REF\u002A\u002A,4*%
X252730000Y-96520000D03*
%TO.P,REF\u002A\u002A,5*%
X250190000Y-93980000D03*
%TO.P,REF\u002A\u002A,6*%
X250190000Y-96520000D03*
%TO.P,REF\u002A\u002A,7*%
X247650000Y-93980000D03*
%TO.P,REF\u002A\u002A,8*%
X247650000Y-96520000D03*
%TO.P,REF\u002A\u002A,9*%
X245110000Y-93980000D03*
%TO.P,REF\u002A\u002A,10*%
X245110000Y-96520000D03*
%TO.P,REF\u002A\u002A,11*%
X242570000Y-93980000D03*
%TO.P,REF\u002A\u002A,12*%
X242570000Y-96520000D03*
%TO.P,REF\u002A\u002A,13*%
X240030000Y-93980000D03*
%TO.P,REF\u002A\u002A,14*%
X240030000Y-96520000D03*
%TO.P,REF\u002A\u002A,15*%
X237490000Y-93980000D03*
%TO.P,REF\u002A\u002A,16*%
X237490000Y-96520000D03*
%TO.P,REF\u002A\u002A,17*%
X234950000Y-93980000D03*
%TO.P,REF\u002A\u002A,18*%
X234950000Y-96520000D03*
%TO.P,REF\u002A\u002A,19*%
X232410000Y-93980000D03*
%TO.P,REF\u002A\u002A,20*%
X232410000Y-96520000D03*
%TO.P,REF\u002A\u002A,21*%
X229870000Y-93980000D03*
%TO.P,REF\u002A\u002A,22*%
X229870000Y-96520000D03*
%TO.P,REF\u002A\u002A,23*%
X227330000Y-93980000D03*
%TO.P,REF\u002A\u002A,24*%
X227330000Y-96520000D03*
%TO.P,REF\u002A\u002A,25*%
X224790000Y-93980000D03*
%TO.P,REF\u002A\u002A,26*%
X224790000Y-96520000D03*
%TO.P,REF\u002A\u002A,27*%
X222250000Y-93980000D03*
%TO.P,REF\u002A\u002A,28*%
X222250000Y-96520000D03*
%TO.P,REF\u002A\u002A,29*%
X219710000Y-93980000D03*
%TO.P,REF\u002A\u002A,30*%
X219710000Y-96520000D03*
%TO.P,REF\u002A\u002A,31*%
X217170000Y-93980000D03*
%TO.P,REF\u002A\u002A,32*%
X217170000Y-96520000D03*
%TO.P,REF\u002A\u002A,33*%
X214630000Y-93980000D03*
%TO.P,REF\u002A\u002A,34*%
X214630000Y-96520000D03*
%TO.P,REF\u002A\u002A,35*%
X212090000Y-93980000D03*
%TO.P,REF\u002A\u002A,36*%
X212090000Y-96520000D03*
%TO.P,REF\u002A\u002A,37*%
X209550000Y-93980000D03*
%TO.P,REF\u002A\u002A,38*%
X209550000Y-96520000D03*
%TO.P,REF\u002A\u002A,39*%
X207010000Y-93980000D03*
%TO.P,REF\u002A\u002A,40*%
X207010000Y-96520000D03*
%TO.P,REF\u002A\u002A,41*%
X204470000Y-93980000D03*
%TO.P,REF\u002A\u002A,42*%
X204470000Y-96520000D03*
%TO.P,REF\u002A\u002A,43*%
X201930000Y-93980000D03*
%TO.P,REF\u002A\u002A,44*%
X201930000Y-96520000D03*
%TO.P,REF\u002A\u002A,45*%
X199390000Y-93980000D03*
%TO.P,REF\u002A\u002A,46*%
X199390000Y-96520000D03*
%TO.P,REF\u002A\u002A,47*%
X196850000Y-93980000D03*
%TO.P,REF\u002A\u002A,48*%
X196850000Y-96520000D03*
%TO.P,REF\u002A\u002A,49*%
X194310000Y-93980000D03*
%TO.P,REF\u002A\u002A,50*%
X194310000Y-96520000D03*
%TO.P,REF\u002A\u002A,51*%
X191770000Y-93980000D03*
%TO.P,REF\u002A\u002A,52*%
X191770000Y-96520000D03*
%TO.P,REF\u002A\u002A,53*%
X189230000Y-93980000D03*
%TO.P,REF\u002A\u002A,54*%
X189230000Y-96520000D03*
%TO.P,REF\u002A\u002A,55*%
X186690000Y-93980000D03*
%TO.P,REF\u002A\u002A,56*%
X186690000Y-96520000D03*
%TO.P,REF\u002A\u002A,57*%
X184150000Y-93980000D03*
%TO.P,REF\u002A\u002A,58*%
X184150000Y-96520000D03*
%TO.P,REF\u002A\u002A,59*%
X181610000Y-93980000D03*
%TO.P,REF\u002A\u002A,60*%
X181610000Y-96520000D03*
%TO.P,REF\u002A\u002A,61*%
X179070000Y-93980000D03*
%TO.P,REF\u002A\u002A,62*%
X179070000Y-96520000D03*
%TO.P,REF\u002A\u002A,63*%
X176530000Y-93980000D03*
%TO.P,REF\u002A\u002A,64*%
X176530000Y-96520000D03*
%TO.P,REF\u002A\u002A,65*%
X173990000Y-93980000D03*
%TO.P,REF\u002A\u002A,66*%
X173990000Y-96520000D03*
%TO.P,REF\u002A\u002A,67*%
X171450000Y-93980000D03*
%TO.P,REF\u002A\u002A,68*%
X171450000Y-96520000D03*
%TO.P,REF\u002A\u002A,69*%
X168910000Y-93980000D03*
%TO.P,REF\u002A\u002A,70*%
X168910000Y-96520000D03*
%TO.P,REF\u002A\u002A,71*%
X166370000Y-93980000D03*
%TO.P,REF\u002A\u002A,72*%
X166370000Y-96520000D03*
%TO.P,REF\u002A\u002A,73*%
X163830000Y-93980000D03*
%TO.P,REF\u002A\u002A,74*%
X163830000Y-96520000D03*
%TO.P,REF\u002A\u002A,75*%
X161290000Y-93980000D03*
%TO.P,REF\u002A\u002A,76*%
X161290000Y-96520000D03*
%TO.P,REF\u002A\u002A,77*%
X158750000Y-93980000D03*
%TO.P,REF\u002A\u002A,78*%
X158750000Y-96520000D03*
%TO.P,REF\u002A\u002A,79*%
X156210000Y-93980000D03*
%TO.P,REF\u002A\u002A,80*%
X156210000Y-96520000D03*
%TD*%
D14*
%TO.P,REF\u002A\u002A,1*%
%TO.N,N/C*%
X255270000Y-99060000D03*
D12*
%TO.P,REF\u002A\u002A,2*%
X255270000Y-101600000D03*
%TO.P,REF\u002A\u002A,3*%
X252730000Y-99060000D03*
%TO.P,REF\u002A\u002A,4*%
X252730000Y-101600000D03*
%TO.P,REF\u002A\u002A,5*%
X250190000Y-99060000D03*
%TO.P,REF\u002A\u002A,6*%
X250190000Y-101600000D03*
%TO.P,REF\u002A\u002A,7*%
X247650000Y-99060000D03*
%TO.P,REF\u002A\u002A,8*%
X247650000Y-101600000D03*
%TO.P,REF\u002A\u002A,9*%
X245110000Y-99060000D03*
%TO.P,REF\u002A\u002A,10*%
X245110000Y-101600000D03*
%TO.P,REF\u002A\u002A,11*%
X242570000Y-99060000D03*
%TO.P,REF\u002A\u002A,12*%
X242570000Y-101600000D03*
%TO.P,REF\u002A\u002A,13*%
X240030000Y-99060000D03*
%TO.P,REF\u002A\u002A,14*%
X240030000Y-101600000D03*
%TO.P,REF\u002A\u002A,15*%
X237490000Y-99060000D03*
%TO.P,REF\u002A\u002A,16*%
X237490000Y-101600000D03*
%TO.P,REF\u002A\u002A,17*%
X234950000Y-99060000D03*
%TO.P,REF\u002A\u002A,18*%
X234950000Y-101600000D03*
%TO.P,REF\u002A\u002A,19*%
X232410000Y-99060000D03*
%TO.P,REF\u002A\u002A,20*%
X232410000Y-101600000D03*
%TO.P,REF\u002A\u002A,21*%
X229870000Y-99060000D03*
%TO.P,REF\u002A\u002A,22*%
X229870000Y-101600000D03*
%TO.P,REF\u002A\u002A,23*%
X227330000Y-99060000D03*
%TO.P,REF\u002A\u002A,24*%
X227330000Y-101600000D03*
%TO.P,REF\u002A\u002A,25*%
X224790000Y-99060000D03*
%TO.P,REF\u002A\u002A,26*%
X224790000Y-101600000D03*
%TO.P,REF\u002A\u002A,27*%
X222250000Y-99060000D03*
%TO.P,REF\u002A\u002A,28*%
X222250000Y-101600000D03*
%TO.P,REF\u002A\u002A,29*%
X219710000Y-99060000D03*
%TO.P,REF\u002A\u002A,30*%
X219710000Y-101600000D03*
%TO.P,REF\u002A\u002A,31*%
X217170000Y-99060000D03*
%TO.P,REF\u002A\u002A,32*%
X217170000Y-101600000D03*
%TO.P,REF\u002A\u002A,33*%
X214630000Y-99060000D03*
%TO.P,REF\u002A\u002A,34*%
X214630000Y-101600000D03*
%TO.P,REF\u002A\u002A,35*%
X212090000Y-99060000D03*
%TO.P,REF\u002A\u002A,36*%
X212090000Y-101600000D03*
%TO.P,REF\u002A\u002A,37*%
X209550000Y-99060000D03*
%TO.P,REF\u002A\u002A,38*%
X209550000Y-101600000D03*
%TO.P,REF\u002A\u002A,39*%
X207010000Y-99060000D03*
%TO.P,REF\u002A\u002A,40*%
X207010000Y-101600000D03*
%TO.P,REF\u002A\u002A,41*%
X204470000Y-99060000D03*
%TO.P,REF\u002A\u002A,42*%
X204470000Y-101600000D03*
%TO.P,REF\u002A\u002A,43*%
X201930000Y-99060000D03*
%TO.P,REF\u002A\u002A,44*%
X201930000Y-101600000D03*
%TO.P,REF\u002A\u002A,45*%
X199390000Y-99060000D03*
%TO.P,REF\u002A\u002A,46*%
X199390000Y-101600000D03*
%TO.P,REF\u002A\u002A,47*%
X196850000Y-99060000D03*
%TO.P,REF\u002A\u002A,48*%
X196850000Y-101600000D03*
%TO.P,REF\u002A\u002A,49*%
X194310000Y-99060000D03*
%TO.P,REF\u002A\u002A,50*%
X194310000Y-101600000D03*
%TO.P,REF\u002A\u002A,51*%
X191770000Y-99060000D03*
%TO.P,REF\u002A\u002A,52*%
X191770000Y-101600000D03*
%TO.P,REF\u002A\u002A,53*%
X189230000Y-99060000D03*
%TO.P,REF\u002A\u002A,54*%
X189230000Y-101600000D03*
%TO.P,REF\u002A\u002A,55*%
X186690000Y-99060000D03*
%TO.P,REF\u002A\u002A,56*%
X186690000Y-101600000D03*
%TO.P,REF\u002A\u002A,57*%
X184150000Y-99060000D03*
%TO.P,REF\u002A\u002A,58*%
X184150000Y-101600000D03*
%TO.P,REF\u002A\u002A,59*%
X181610000Y-99060000D03*
%TO.P,REF\u002A\u002A,60*%
X181610000Y-101600000D03*
%TO.P,REF\u002A\u002A,61*%
X179070000Y-99060000D03*
%TO.P,REF\u002A\u002A,62*%
X179070000Y-101600000D03*
%TO.P,REF\u002A\u002A,63*%
X176530000Y-99060000D03*
%TO.P,REF\u002A\u002A,64*%
X176530000Y-101600000D03*
%TO.P,REF\u002A\u002A,65*%
X173990000Y-99060000D03*
%TO.P,REF\u002A\u002A,66*%
X173990000Y-101600000D03*
%TO.P,REF\u002A\u002A,67*%
X171450000Y-99060000D03*
%TO.P,REF\u002A\u002A,68*%
X171450000Y-101600000D03*
%TO.P,REF\u002A\u002A,69*%
X168910000Y-99060000D03*
%TO.P,REF\u002A\u002A,70*%
X168910000Y-101600000D03*
%TO.P,REF\u002A\u002A,71*%
X166370000Y-99060000D03*
%TO.P,REF\u002A\u002A,72*%
X166370000Y-101600000D03*
%TO.P,REF\u002A\u002A,73*%
X163830000Y-99060000D03*
%TO.P,REF\u002A\u002A,74*%
X163830000Y-101600000D03*
%TO.P,REF\u002A\u002A,75*%
X161290000Y-99060000D03*
%TO.P,REF\u002A\u002A,76*%
X161290000Y-101600000D03*
%TO.P,REF\u002A\u002A,77*%
X158750000Y-99060000D03*
%TO.P,REF\u002A\u002A,78*%
X158750000Y-101600000D03*
%TO.P,REF\u002A\u002A,79*%
X156210000Y-99060000D03*
%TO.P,REF\u002A\u002A,80*%
X156210000Y-101600000D03*
%TD*%
D14*
%TO.P,REF\u002A\u002A,1*%
%TO.N,N/C*%
X255270000Y-104140000D03*
D12*
%TO.P,REF\u002A\u002A,2*%
X255270000Y-106680000D03*
%TO.P,REF\u002A\u002A,3*%
X252730000Y-104140000D03*
%TO.P,REF\u002A\u002A,4*%
X252730000Y-106680000D03*
%TO.P,REF\u002A\u002A,5*%
X250190000Y-104140000D03*
%TO.P,REF\u002A\u002A,6*%
X250190000Y-106680000D03*
%TO.P,REF\u002A\u002A,7*%
X247650000Y-104140000D03*
%TO.P,REF\u002A\u002A,8*%
X247650000Y-106680000D03*
%TO.P,REF\u002A\u002A,9*%
X245110000Y-104140000D03*
%TO.P,REF\u002A\u002A,10*%
X245110000Y-106680000D03*
%TO.P,REF\u002A\u002A,11*%
X242570000Y-104140000D03*
%TO.P,REF\u002A\u002A,12*%
X242570000Y-106680000D03*
%TO.P,REF\u002A\u002A,13*%
X240030000Y-104140000D03*
%TO.P,REF\u002A\u002A,14*%
X240030000Y-106680000D03*
%TO.P,REF\u002A\u002A,15*%
X237490000Y-104140000D03*
%TO.P,REF\u002A\u002A,16*%
X237490000Y-106680000D03*
%TO.P,REF\u002A\u002A,17*%
X234950000Y-104140000D03*
%TO.P,REF\u002A\u002A,18*%
X234950000Y-106680000D03*
%TO.P,REF\u002A\u002A,19*%
X232410000Y-104140000D03*
%TO.P,REF\u002A\u002A,20*%
X232410000Y-106680000D03*
%TO.P,REF\u002A\u002A,21*%
X229870000Y-104140000D03*
%TO.P,REF\u002A\u002A,22*%
X229870000Y-106680000D03*
%TO.P,REF\u002A\u002A,23*%
X227330000Y-104140000D03*
%TO.P,REF\u002A\u002A,24*%
X227330000Y-106680000D03*
%TO.P,REF\u002A\u002A,25*%
X224790000Y-104140000D03*
%TO.P,REF\u002A\u002A,26*%
X224790000Y-106680000D03*
%TO.P,REF\u002A\u002A,27*%
X222250000Y-104140000D03*
%TO.P,REF\u002A\u002A,28*%
X222250000Y-106680000D03*
%TO.P,REF\u002A\u002A,29*%
X219710000Y-104140000D03*
%TO.P,REF\u002A\u002A,30*%
X219710000Y-106680000D03*
%TO.P,REF\u002A\u002A,31*%
X217170000Y-104140000D03*
%TO.P,REF\u002A\u002A,32*%
X217170000Y-106680000D03*
%TO.P,REF\u002A\u002A,33*%
X214630000Y-104140000D03*
%TO.P,REF\u002A\u002A,34*%
X214630000Y-106680000D03*
%TO.P,REF\u002A\u002A,35*%
X212090000Y-104140000D03*
%TO.P,REF\u002A\u002A,36*%
X212090000Y-106680000D03*
%TO.P,REF\u002A\u002A,37*%
X209550000Y-104140000D03*
%TO.P,REF\u002A\u002A,38*%
X209550000Y-106680000D03*
%TO.P,REF\u002A\u002A,39*%
X207010000Y-104140000D03*
%TO.P,REF\u002A\u002A,40*%
X207010000Y-106680000D03*
%TO.P,REF\u002A\u002A,41*%
X204470000Y-104140000D03*
%TO.P,REF\u002A\u002A,42*%
X204470000Y-106680000D03*
%TO.P,REF\u002A\u002A,43*%
X201930000Y-104140000D03*
%TO.P,REF\u002A\u002A,44*%
X201930000Y-106680000D03*
%TO.P,REF\u002A\u002A,45*%
X199390000Y-104140000D03*
%TO.P,REF\u002A\u002A,46*%
X199390000Y-106680000D03*
%TO.P,REF\u002A\u002A,47*%
X196850000Y-104140000D03*
%TO.P,REF\u002A\u002A,48*%
X196850000Y-106680000D03*
%TO.P,REF\u002A\u002A,49*%
X194310000Y-104140000D03*
%TO.P,REF\u002A\u002A,50*%
X194310000Y-106680000D03*
%TO.P,REF\u002A\u002A,51*%
X191770000Y-104140000D03*
%TO.P,REF\u002A\u002A,52*%
X191770000Y-106680000D03*
%TO.P,REF\u002A\u002A,53*%
X189230000Y-104140000D03*
%TO.P,REF\u002A\u002A,54*%
X189230000Y-106680000D03*
%TO.P,REF\u002A\u002A,55*%
X186690000Y-104140000D03*
%TO.P,REF\u002A\u002A,56*%
X186690000Y-106680000D03*
%TO.P,REF\u002A\u002A,57*%
X184150000Y-104140000D03*
%TO.P,REF\u002A\u002A,58*%
X184150000Y-106680000D03*
%TO.P,REF\u002A\u002A,59*%
X181610000Y-104140000D03*
%TO.P,REF\u002A\u002A,60*%
X181610000Y-106680000D03*
%TO.P,REF\u002A\u002A,61*%
X179070000Y-104140000D03*
%TO.P,REF\u002A\u002A,62*%
X179070000Y-106680000D03*
%TO.P,REF\u002A\u002A,63*%
X176530000Y-104140000D03*
%TO.P,REF\u002A\u002A,64*%
X176530000Y-106680000D03*
%TO.P,REF\u002A\u002A,65*%
X173990000Y-104140000D03*
%TO.P,REF\u002A\u002A,66*%
X173990000Y-106680000D03*
%TO.P,REF\u002A\u002A,67*%
X171450000Y-104140000D03*
%TO.P,REF\u002A\u002A,68*%
X171450000Y-106680000D03*
%TO.P,REF\u002A\u002A,69*%
X168910000Y-104140000D03*
%TO.P,REF\u002A\u002A,70*%
X168910000Y-106680000D03*
%TO.P,REF\u002A\u002A,71*%
X166370000Y-104140000D03*
%TO.P,REF\u002A\u002A,72*%
X166370000Y-106680000D03*
%TO.P,REF\u002A\u002A,73*%
X163830000Y-104140000D03*
%TO.P,REF\u002A\u002A,74*%
X163830000Y-106680000D03*
%TO.P,REF\u002A\u002A,75*%
X161290000Y-104140000D03*
%TO.P,REF\u002A\u002A,76*%
X161290000Y-106680000D03*
%TO.P,REF\u002A\u002A,77*%
X158750000Y-104140000D03*
%TO.P,REF\u002A\u002A,78*%
X158750000Y-106680000D03*
%TO.P,REF\u002A\u002A,79*%
X156210000Y-104140000D03*
%TO.P,REF\u002A\u002A,80*%
X156210000Y-106680000D03*
%TD*%
D14*
%TO.P,REF\u002A\u002A,1*%
%TO.N,N/C*%
X255270000Y-109220000D03*
D12*
%TO.P,REF\u002A\u002A,2*%
X255270000Y-111760000D03*
%TO.P,REF\u002A\u002A,3*%
X252730000Y-109220000D03*
%TO.P,REF\u002A\u002A,4*%
X252730000Y-111760000D03*
%TO.P,REF\u002A\u002A,5*%
X250190000Y-109220000D03*
%TO.P,REF\u002A\u002A,6*%
X250190000Y-111760000D03*
%TO.P,REF\u002A\u002A,7*%
X247650000Y-109220000D03*
%TO.P,REF\u002A\u002A,8*%
X247650000Y-111760000D03*
%TO.P,REF\u002A\u002A,9*%
X245110000Y-109220000D03*
%TO.P,REF\u002A\u002A,10*%
X245110000Y-111760000D03*
%TO.P,REF\u002A\u002A,11*%
X242570000Y-109220000D03*
%TO.P,REF\u002A\u002A,12*%
X242570000Y-111760000D03*
%TO.P,REF\u002A\u002A,13*%
X240030000Y-109220000D03*
%TO.P,REF\u002A\u002A,14*%
X240030000Y-111760000D03*
%TO.P,REF\u002A\u002A,15*%
X237490000Y-109220000D03*
%TO.P,REF\u002A\u002A,16*%
X237490000Y-111760000D03*
%TO.P,REF\u002A\u002A,17*%
X234950000Y-109220000D03*
%TO.P,REF\u002A\u002A,18*%
X234950000Y-111760000D03*
%TO.P,REF\u002A\u002A,19*%
X232410000Y-109220000D03*
%TO.P,REF\u002A\u002A,20*%
X232410000Y-111760000D03*
%TO.P,REF\u002A\u002A,21*%
X229870000Y-109220000D03*
%TO.P,REF\u002A\u002A,22*%
X229870000Y-111760000D03*
%TO.P,REF\u002A\u002A,23*%
X227330000Y-109220000D03*
%TO.P,REF\u002A\u002A,24*%
X227330000Y-111760000D03*
%TO.P,REF\u002A\u002A,25*%
X224790000Y-109220000D03*
%TO.P,REF\u002A\u002A,26*%
X224790000Y-111760000D03*
%TO.P,REF\u002A\u002A,27*%
X222250000Y-109220000D03*
%TO.P,REF\u002A\u002A,28*%
X222250000Y-111760000D03*
%TO.P,REF\u002A\u002A,29*%
X219710000Y-109220000D03*
%TO.P,REF\u002A\u002A,30*%
X219710000Y-111760000D03*
%TO.P,REF\u002A\u002A,31*%
X217170000Y-109220000D03*
%TO.P,REF\u002A\u002A,32*%
X217170000Y-111760000D03*
%TO.P,REF\u002A\u002A,33*%
X214630000Y-109220000D03*
%TO.P,REF\u002A\u002A,34*%
X214630000Y-111760000D03*
%TO.P,REF\u002A\u002A,35*%
X212090000Y-109220000D03*
%TO.P,REF\u002A\u002A,36*%
X212090000Y-111760000D03*
%TO.P,REF\u002A\u002A,37*%
X209550000Y-109220000D03*
%TO.P,REF\u002A\u002A,38*%
X209550000Y-111760000D03*
%TO.P,REF\u002A\u002A,39*%
X207010000Y-109220000D03*
%TO.P,REF\u002A\u002A,40*%
X207010000Y-111760000D03*
%TO.P,REF\u002A\u002A,41*%
X204470000Y-109220000D03*
%TO.P,REF\u002A\u002A,42*%
X204470000Y-111760000D03*
%TO.P,REF\u002A\u002A,43*%
X201930000Y-109220000D03*
%TO.P,REF\u002A\u002A,44*%
X201930000Y-111760000D03*
%TO.P,REF\u002A\u002A,45*%
X199390000Y-109220000D03*
%TO.P,REF\u002A\u002A,46*%
X199390000Y-111760000D03*
%TO.P,REF\u002A\u002A,47*%
X196850000Y-109220000D03*
%TO.P,REF\u002A\u002A,48*%
X196850000Y-111760000D03*
%TO.P,REF\u002A\u002A,49*%
X194310000Y-109220000D03*
%TO.P,REF\u002A\u002A,50*%
X194310000Y-111760000D03*
%TO.P,REF\u002A\u002A,51*%
X191770000Y-109220000D03*
%TO.P,REF\u002A\u002A,52*%
X191770000Y-111760000D03*
%TO.P,REF\u002A\u002A,53*%
X189230000Y-109220000D03*
%TO.P,REF\u002A\u002A,54*%
X189230000Y-111760000D03*
%TO.P,REF\u002A\u002A,55*%
X186690000Y-109220000D03*
%TO.P,REF\u002A\u002A,56*%
X186690000Y-111760000D03*
%TO.P,REF\u002A\u002A,57*%
X184150000Y-109220000D03*
%TO.P,REF\u002A\u002A,58*%
X184150000Y-111760000D03*
%TO.P,REF\u002A\u002A,59*%
X181610000Y-109220000D03*
%TO.P,REF\u002A\u002A,60*%
X181610000Y-111760000D03*
%TO.P,REF\u002A\u002A,61*%
X179070000Y-109220000D03*
%TO.P,REF\u002A\u002A,62*%
X179070000Y-111760000D03*
%TO.P,REF\u002A\u002A,63*%
X176530000Y-109220000D03*
%TO.P,REF\u002A\u002A,64*%
X176530000Y-111760000D03*
%TO.P,REF\u002A\u002A,65*%
X173990000Y-109220000D03*
%TO.P,REF\u002A\u002A,66*%
X173990000Y-111760000D03*
%TO.P,REF\u002A\u002A,67*%
X171450000Y-109220000D03*
%TO.P,REF\u002A\u002A,68*%
X171450000Y-111760000D03*
%TO.P,REF\u002A\u002A,69*%
X168910000Y-109220000D03*
%TO.P,REF\u002A\u002A,70*%
X168910000Y-111760000D03*
%TO.P,REF\u002A\u002A,71*%
X166370000Y-109220000D03*
%TO.P,REF\u002A\u002A,72*%
X166370000Y-111760000D03*
%TO.P,REF\u002A\u002A,73*%
X163830000Y-109220000D03*
%TO.P,REF\u002A\u002A,74*%
X163830000Y-111760000D03*
%TO.P,REF\u002A\u002A,75*%
X161290000Y-109220000D03*
%TO.P,REF\u002A\u002A,76*%
X161290000Y-111760000D03*
%TO.P,REF\u002A\u002A,77*%
X158750000Y-109220000D03*
%TO.P,REF\u002A\u002A,78*%
X158750000Y-111760000D03*
%TO.P,REF\u002A\u002A,79*%
X156210000Y-109220000D03*
%TO.P,REF\u002A\u002A,80*%
X156210000Y-111760000D03*
%TD*%
D14*
%TO.P,REF\u002A\u002A,1*%
%TO.N,N/C*%
X255270000Y-114300000D03*
D12*
%TO.P,REF\u002A\u002A,2*%
X255270000Y-116840000D03*
%TO.P,REF\u002A\u002A,3*%
X252730000Y-114300000D03*
%TO.P,REF\u002A\u002A,4*%
X252730000Y-116840000D03*
%TO.P,REF\u002A\u002A,5*%
X250190000Y-114300000D03*
%TO.P,REF\u002A\u002A,6*%
X250190000Y-116840000D03*
%TO.P,REF\u002A\u002A,7*%
X247650000Y-114300000D03*
%TO.P,REF\u002A\u002A,8*%
X247650000Y-116840000D03*
%TO.P,REF\u002A\u002A,9*%
X245110000Y-114300000D03*
%TO.P,REF\u002A\u002A,10*%
X245110000Y-116840000D03*
%TO.P,REF\u002A\u002A,11*%
X242570000Y-114300000D03*
%TO.P,REF\u002A\u002A,12*%
X242570000Y-116840000D03*
%TO.P,REF\u002A\u002A,13*%
X240030000Y-114300000D03*
%TO.P,REF\u002A\u002A,14*%
X240030000Y-116840000D03*
%TO.P,REF\u002A\u002A,15*%
X237490000Y-114300000D03*
%TO.P,REF\u002A\u002A,16*%
X237490000Y-116840000D03*
%TO.P,REF\u002A\u002A,17*%
X234950000Y-114300000D03*
%TO.P,REF\u002A\u002A,18*%
X234950000Y-116840000D03*
%TO.P,REF\u002A\u002A,19*%
X232410000Y-114300000D03*
%TO.P,REF\u002A\u002A,20*%
X232410000Y-116840000D03*
%TO.P,REF\u002A\u002A,21*%
X229870000Y-114300000D03*
%TO.P,REF\u002A\u002A,22*%
X229870000Y-116840000D03*
%TO.P,REF\u002A\u002A,23*%
X227330000Y-114300000D03*
%TO.P,REF\u002A\u002A,24*%
X227330000Y-116840000D03*
%TO.P,REF\u002A\u002A,25*%
X224790000Y-114300000D03*
%TO.P,REF\u002A\u002A,26*%
X224790000Y-116840000D03*
%TO.P,REF\u002A\u002A,27*%
X222250000Y-114300000D03*
%TO.P,REF\u002A\u002A,28*%
X222250000Y-116840000D03*
%TO.P,REF\u002A\u002A,29*%
X219710000Y-114300000D03*
%TO.P,REF\u002A\u002A,30*%
X219710000Y-116840000D03*
%TO.P,REF\u002A\u002A,31*%
X217170000Y-114300000D03*
%TO.P,REF\u002A\u002A,32*%
X217170000Y-116840000D03*
%TO.P,REF\u002A\u002A,33*%
X214630000Y-114300000D03*
%TO.P,REF\u002A\u002A,34*%
X214630000Y-116840000D03*
%TO.P,REF\u002A\u002A,35*%
X212090000Y-114300000D03*
%TO.P,REF\u002A\u002A,36*%
X212090000Y-116840000D03*
%TO.P,REF\u002A\u002A,37*%
X209550000Y-114300000D03*
%TO.P,REF\u002A\u002A,38*%
X209550000Y-116840000D03*
%TO.P,REF\u002A\u002A,39*%
X207010000Y-114300000D03*
%TO.P,REF\u002A\u002A,40*%
X207010000Y-116840000D03*
%TO.P,REF\u002A\u002A,41*%
X204470000Y-114300000D03*
%TO.P,REF\u002A\u002A,42*%
X204470000Y-116840000D03*
%TO.P,REF\u002A\u002A,43*%
X201930000Y-114300000D03*
%TO.P,REF\u002A\u002A,44*%
X201930000Y-116840000D03*
%TO.P,REF\u002A\u002A,45*%
X199390000Y-114300000D03*
%TO.P,REF\u002A\u002A,46*%
X199390000Y-116840000D03*
%TO.P,REF\u002A\u002A,47*%
X196850000Y-114300000D03*
%TO.P,REF\u002A\u002A,48*%
X196850000Y-116840000D03*
%TO.P,REF\u002A\u002A,49*%
X194310000Y-114300000D03*
%TO.P,REF\u002A\u002A,50*%
X194310000Y-116840000D03*
%TO.P,REF\u002A\u002A,51*%
X191770000Y-114300000D03*
%TO.P,REF\u002A\u002A,52*%
X191770000Y-116840000D03*
%TO.P,REF\u002A\u002A,53*%
X189230000Y-114300000D03*
%TO.P,REF\u002A\u002A,54*%
X189230000Y-116840000D03*
%TO.P,REF\u002A\u002A,55*%
X186690000Y-114300000D03*
%TO.P,REF\u002A\u002A,56*%
X186690000Y-116840000D03*
%TO.P,REF\u002A\u002A,57*%
X184150000Y-114300000D03*
%TO.P,REF\u002A\u002A,58*%
X184150000Y-116840000D03*
%TO.P,REF\u002A\u002A,59*%
X181610000Y-114300000D03*
%TO.P,REF\u002A\u002A,60*%
X181610000Y-116840000D03*
%TO.P,REF\u002A\u002A,61*%
X179070000Y-114300000D03*
%TO.P,REF\u002A\u002A,62*%
X179070000Y-116840000D03*
%TO.P,REF\u002A\u002A,63*%
X176530000Y-114300000D03*
%TO.P,REF\u002A\u002A,64*%
X176530000Y-116840000D03*
%TO.P,REF\u002A\u002A,65*%
X173990000Y-114300000D03*
%TO.P,REF\u002A\u002A,66*%
X173990000Y-116840000D03*
%TO.P,REF\u002A\u002A,67*%
X171450000Y-114300000D03*
%TO.P,REF\u002A\u002A,68*%
X171450000Y-116840000D03*
%TO.P,REF\u002A\u002A,69*%
X168910000Y-114300000D03*
%TO.P,REF\u002A\u002A,70*%
X168910000Y-116840000D03*
%TO.P,REF\u002A\u002A,71*%
X166370000Y-114300000D03*
%TO.P,REF\u002A\u002A,72*%
X166370000Y-116840000D03*
%TO.P,REF\u002A\u002A,73*%
X163830000Y-114300000D03*
%TO.P,REF\u002A\u002A,74*%
X163830000Y-116840000D03*
%TO.P,REF\u002A\u002A,75*%
X161290000Y-114300000D03*
%TO.P,REF\u002A\u002A,76*%
X161290000Y-116840000D03*
%TO.P,REF\u002A\u002A,77*%
X158750000Y-114300000D03*
%TO.P,REF\u002A\u002A,78*%
X158750000Y-116840000D03*
%TO.P,REF\u002A\u002A,79*%
X156210000Y-114300000D03*
%TO.P,REF\u002A\u002A,80*%
X156210000Y-116840000D03*
%TD*%
D14*
%TO.P,REF\u002A\u002A,1*%
%TO.N,N/C*%
X255270000Y-119380000D03*
D12*
%TO.P,REF\u002A\u002A,2*%
X255270000Y-121920000D03*
%TO.P,REF\u002A\u002A,3*%
X252730000Y-119380000D03*
%TO.P,REF\u002A\u002A,4*%
X252730000Y-121920000D03*
%TO.P,REF\u002A\u002A,5*%
X250190000Y-119380000D03*
%TO.P,REF\u002A\u002A,6*%
X250190000Y-121920000D03*
%TO.P,REF\u002A\u002A,7*%
X247650000Y-119380000D03*
%TO.P,REF\u002A\u002A,8*%
X247650000Y-121920000D03*
%TO.P,REF\u002A\u002A,9*%
X245110000Y-119380000D03*
%TO.P,REF\u002A\u002A,10*%
X245110000Y-121920000D03*
%TO.P,REF\u002A\u002A,11*%
X242570000Y-119380000D03*
%TO.P,REF\u002A\u002A,12*%
X242570000Y-121920000D03*
%TO.P,REF\u002A\u002A,13*%
X240030000Y-119380000D03*
%TO.P,REF\u002A\u002A,14*%
X240030000Y-121920000D03*
%TO.P,REF\u002A\u002A,15*%
X237490000Y-119380000D03*
%TO.P,REF\u002A\u002A,16*%
X237490000Y-121920000D03*
%TO.P,REF\u002A\u002A,17*%
X234950000Y-119380000D03*
%TO.P,REF\u002A\u002A,18*%
X234950000Y-121920000D03*
%TO.P,REF\u002A\u002A,19*%
X232410000Y-119380000D03*
%TO.P,REF\u002A\u002A,20*%
X232410000Y-121920000D03*
%TO.P,REF\u002A\u002A,21*%
X229870000Y-119380000D03*
%TO.P,REF\u002A\u002A,22*%
X229870000Y-121920000D03*
%TO.P,REF\u002A\u002A,23*%
X227330000Y-119380000D03*
%TO.P,REF\u002A\u002A,24*%
X227330000Y-121920000D03*
%TO.P,REF\u002A\u002A,25*%
X224790000Y-119380000D03*
%TO.P,REF\u002A\u002A,26*%
X224790000Y-121920000D03*
%TO.P,REF\u002A\u002A,27*%
X222250000Y-119380000D03*
%TO.P,REF\u002A\u002A,28*%
X222250000Y-121920000D03*
%TO.P,REF\u002A\u002A,29*%
X219710000Y-119380000D03*
%TO.P,REF\u002A\u002A,30*%
X219710000Y-121920000D03*
%TO.P,REF\u002A\u002A,31*%
X217170000Y-119380000D03*
%TO.P,REF\u002A\u002A,32*%
X217170000Y-121920000D03*
%TO.P,REF\u002A\u002A,33*%
X214630000Y-119380000D03*
%TO.P,REF\u002A\u002A,34*%
X214630000Y-121920000D03*
%TO.P,REF\u002A\u002A,35*%
X212090000Y-119380000D03*
%TO.P,REF\u002A\u002A,36*%
X212090000Y-121920000D03*
%TO.P,REF\u002A\u002A,37*%
X209550000Y-119380000D03*
%TO.P,REF\u002A\u002A,38*%
X209550000Y-121920000D03*
%TO.P,REF\u002A\u002A,39*%
X207010000Y-119380000D03*
%TO.P,REF\u002A\u002A,40*%
X207010000Y-121920000D03*
%TO.P,REF\u002A\u002A,41*%
X204470000Y-119380000D03*
%TO.P,REF\u002A\u002A,42*%
X204470000Y-121920000D03*
%TO.P,REF\u002A\u002A,43*%
X201930000Y-119380000D03*
%TO.P,REF\u002A\u002A,44*%
X201930000Y-121920000D03*
%TO.P,REF\u002A\u002A,45*%
X199390000Y-119380000D03*
%TO.P,REF\u002A\u002A,46*%
X199390000Y-121920000D03*
%TO.P,REF\u002A\u002A,47*%
X196850000Y-119380000D03*
%TO.P,REF\u002A\u002A,48*%
X196850000Y-121920000D03*
%TO.P,REF\u002A\u002A,49*%
X194310000Y-119380000D03*
%TO.P,REF\u002A\u002A,50*%
X194310000Y-121920000D03*
%TO.P,REF\u002A\u002A,51*%
X191770000Y-119380000D03*
%TO.P,REF\u002A\u002A,52*%
X191770000Y-121920000D03*
%TO.P,REF\u002A\u002A,53*%
X189230000Y-119380000D03*
%TO.P,REF\u002A\u002A,54*%
X189230000Y-121920000D03*
%TO.P,REF\u002A\u002A,55*%
X186690000Y-119380000D03*
%TO.P,REF\u002A\u002A,56*%
X186690000Y-121920000D03*
%TO.P,REF\u002A\u002A,57*%
X184150000Y-119380000D03*
%TO.P,REF\u002A\u002A,58*%
X184150000Y-121920000D03*
%TO.P,REF\u002A\u002A,59*%
X181610000Y-119380000D03*
%TO.P,REF\u002A\u002A,60*%
X181610000Y-121920000D03*
%TO.P,REF\u002A\u002A,61*%
X179070000Y-119380000D03*
%TO.P,REF\u002A\u002A,62*%
X179070000Y-121920000D03*
%TO.P,REF\u002A\u002A,63*%
X176530000Y-119380000D03*
%TO.P,REF\u002A\u002A,64*%
X176530000Y-121920000D03*
%TO.P,REF\u002A\u002A,65*%
X173990000Y-119380000D03*
%TO.P,REF\u002A\u002A,66*%
X173990000Y-121920000D03*
%TO.P,REF\u002A\u002A,67*%
X171450000Y-119380000D03*
%TO.P,REF\u002A\u002A,68*%
X171450000Y-121920000D03*
%TO.P,REF\u002A\u002A,69*%
X168910000Y-119380000D03*
%TO.P,REF\u002A\u002A,70*%
X168910000Y-121920000D03*
%TO.P,REF\u002A\u002A,71*%
X166370000Y-119380000D03*
%TO.P,REF\u002A\u002A,72*%
X166370000Y-121920000D03*
%TO.P,REF\u002A\u002A,73*%
X163830000Y-119380000D03*
%TO.P,REF\u002A\u002A,74*%
X163830000Y-121920000D03*
%TO.P,REF\u002A\u002A,75*%
X161290000Y-119380000D03*
%TO.P,REF\u002A\u002A,76*%
X161290000Y-121920000D03*
%TO.P,REF\u002A\u002A,77*%
X158750000Y-119380000D03*
%TO.P,REF\u002A\u002A,78*%
X158750000Y-121920000D03*
%TO.P,REF\u002A\u002A,79*%
X156210000Y-119380000D03*
%TO.P,REF\u002A\u002A,80*%
X156210000Y-121920000D03*
%TD*%
%TO.P,J5,31*%
%TO.N,/A00*%
X173990000Y-127000000D03*
%TO.P,J5,30*%
%TO.N,/A01*%
X176530000Y-127000000D03*
%TO.P,J5,29*%
%TO.N,/A02*%
X179070000Y-127000000D03*
%TO.P,J5,28*%
%TO.N,/A03*%
X181610000Y-127000000D03*
%TO.P,J5,27*%
%TO.N,/A04*%
X184150000Y-127000000D03*
%TO.P,J5,26*%
%TO.N,/A05*%
X186690000Y-127000000D03*
%TO.P,J5,25*%
%TO.N,/A06*%
X189230000Y-127000000D03*
%TO.P,J5,24*%
%TO.N,/A07*%
X191770000Y-127000000D03*
%TO.P,J5,23*%
%TO.N,/A08*%
X194310000Y-127000000D03*
%TO.P,J5,22*%
%TO.N,/A09*%
X196850000Y-127000000D03*
%TO.P,J5,21*%
%TO.N,/A10*%
X199390000Y-127000000D03*
%TO.P,J5,20*%
%TO.N,/A11*%
X201930000Y-127000000D03*
%TO.P,J5,19*%
%TO.N,/A12*%
X204470000Y-127000000D03*
%TO.P,J5,18*%
%TO.N,/A13*%
X207010000Y-127000000D03*
%TO.P,J5,17*%
%TO.N,/A14*%
X209550000Y-127000000D03*
%TO.P,J5,16*%
%TO.N,/A15*%
X212090000Y-127000000D03*
%TO.P,J5,15*%
%TO.N,/A16*%
X214630000Y-127000000D03*
%TO.P,J5,14*%
%TO.N,/A17*%
X217170000Y-127000000D03*
%TO.P,J5,13*%
%TO.N,/A18*%
X219710000Y-127000000D03*
%TO.P,J5,12*%
%TO.N,/A19*%
X222250000Y-127000000D03*
%TO.P,J5,11*%
%TO.N,/AEN*%
X224790000Y-127000000D03*
%TO.P,J5,10*%
%TO.N,/IO-RDY*%
X227330000Y-127000000D03*
%TO.P,J5,9*%
%TO.N,/D0*%
X229870000Y-127000000D03*
%TO.P,J5,8*%
%TO.N,/D1*%
X232410000Y-127000000D03*
%TO.P,J5,7*%
%TO.N,/D2*%
X234950000Y-127000000D03*
%TO.P,J5,6*%
%TO.N,/D3*%
X237490000Y-127000000D03*
%TO.P,J5,5*%
%TO.N,/D4*%
X240030000Y-127000000D03*
%TO.P,J5,4*%
%TO.N,/D5*%
X242570000Y-127000000D03*
%TO.P,J5,3*%
%TO.N,/D6*%
X245110000Y-127000000D03*
%TO.P,J5,2*%
%TO.N,/D7*%
X247650000Y-127000000D03*
D13*
%TO.P,J5,1*%
%TO.N,/IOCHCK*%
X250190000Y-127000000D03*
%TD*%
D12*
%TO.P,J4,31*%
%TO.N,/A00*%
X173990000Y-129540000D03*
%TO.P,J4,30*%
%TO.N,/A01*%
X176530000Y-129540000D03*
%TO.P,J4,29*%
%TO.N,/A02*%
X179070000Y-129540000D03*
%TO.P,J4,28*%
%TO.N,/A03*%
X181610000Y-129540000D03*
%TO.P,J4,27*%
%TO.N,/A04*%
X184150000Y-129540000D03*
%TO.P,J4,26*%
%TO.N,/A05*%
X186690000Y-129540000D03*
%TO.P,J4,25*%
%TO.N,/A06*%
X189230000Y-129540000D03*
%TO.P,J4,24*%
%TO.N,/A07*%
X191770000Y-129540000D03*
%TO.P,J4,23*%
%TO.N,/A08*%
X194310000Y-129540000D03*
%TO.P,J4,22*%
%TO.N,/A09*%
X196850000Y-129540000D03*
%TO.P,J4,21*%
%TO.N,/A10*%
X199390000Y-129540000D03*
%TO.P,J4,20*%
%TO.N,/A11*%
X201930000Y-129540000D03*
%TO.P,J4,19*%
%TO.N,/A12*%
X204470000Y-129540000D03*
%TO.P,J4,18*%
%TO.N,/A13*%
X207010000Y-129540000D03*
%TO.P,J4,17*%
%TO.N,/A14*%
X209550000Y-129540000D03*
%TO.P,J4,16*%
%TO.N,/A15*%
X212090000Y-129540000D03*
%TO.P,J4,15*%
%TO.N,/A16*%
X214630000Y-129540000D03*
%TO.P,J4,14*%
%TO.N,/A17*%
X217170000Y-129540000D03*
%TO.P,J4,13*%
%TO.N,/A18*%
X219710000Y-129540000D03*
%TO.P,J4,12*%
%TO.N,/A19*%
X222250000Y-129540000D03*
%TO.P,J4,11*%
%TO.N,/AEN*%
X224790000Y-129540000D03*
%TO.P,J4,10*%
%TO.N,/IO-RDY*%
X227330000Y-129540000D03*
%TO.P,J4,9*%
%TO.N,/D0*%
X229870000Y-129540000D03*
%TO.P,J4,8*%
%TO.N,/D1*%
X232410000Y-129540000D03*
%TO.P,J4,7*%
%TO.N,/D2*%
X234950000Y-129540000D03*
%TO.P,J4,6*%
%TO.N,/D3*%
X237490000Y-129540000D03*
%TO.P,J4,5*%
%TO.N,/D4*%
X240030000Y-129540000D03*
%TO.P,J4,4*%
%TO.N,/D5*%
X242570000Y-129540000D03*
%TO.P,J4,3*%
%TO.N,/D6*%
X245110000Y-129540000D03*
%TO.P,J4,2*%
%TO.N,/D7*%
X247650000Y-129540000D03*
D13*
%TO.P,J4,1*%
%TO.N,/IOCHCK*%
X250190000Y-129540000D03*
%TD*%
D18*
%TO.P,J3,62*%
%TO.N,/A00*%
X173990000Y-144780000D03*
%TO.P,J3,61*%
%TO.N,/A01*%
X176530000Y-144780000D03*
%TO.P,J3,60*%
%TO.N,/A02*%
X179070000Y-144780000D03*
%TO.P,J3,59*%
%TO.N,/A03*%
X181610000Y-144780000D03*
%TO.P,J3,58*%
%TO.N,/A04*%
X184150000Y-144780000D03*
%TO.P,J3,57*%
%TO.N,/A05*%
X186690000Y-144780000D03*
%TO.P,J3,56*%
%TO.N,/A06*%
X189230000Y-144780000D03*
%TO.P,J3,55*%
%TO.N,/A07*%
X191770000Y-144780000D03*
%TO.P,J3,54*%
%TO.N,/A08*%
X194310000Y-144780000D03*
%TO.P,J3,53*%
%TO.N,/A09*%
X196850000Y-144780000D03*
%TO.P,J3,52*%
%TO.N,/A10*%
X199390000Y-144780000D03*
%TO.P,J3,51*%
%TO.N,/A11*%
X201930000Y-144780000D03*
%TO.P,J3,50*%
%TO.N,/A12*%
X204470000Y-144780000D03*
%TO.P,J3,49*%
%TO.N,/A13*%
X207010000Y-144780000D03*
%TO.P,J3,48*%
%TO.N,/A14*%
X209550000Y-144780000D03*
%TO.P,J3,47*%
%TO.N,/A15*%
X212090000Y-144780000D03*
%TO.P,J3,46*%
%TO.N,/A16*%
X214630000Y-144780000D03*
%TO.P,J3,45*%
%TO.N,/A17*%
X217170000Y-144780000D03*
%TO.P,J3,44*%
%TO.N,/A18*%
X219710000Y-144780000D03*
%TO.P,J3,43*%
%TO.N,/A19*%
X222250000Y-144780000D03*
%TO.P,J3,42*%
%TO.N,/AEN*%
X224790000Y-144780000D03*
%TO.P,J3,41*%
%TO.N,/IO-RDY*%
X227330000Y-144780000D03*
%TO.P,J3,40*%
%TO.N,/D0*%
X229870000Y-144780000D03*
%TO.P,J3,39*%
%TO.N,/D1*%
X232410000Y-144780000D03*
%TO.P,J3,38*%
%TO.N,/D2*%
X234950000Y-144780000D03*
%TO.P,J3,37*%
%TO.N,/D3*%
X237490000Y-144780000D03*
%TO.P,J3,36*%
%TO.N,/D4*%
X240030000Y-144780000D03*
%TO.P,J3,35*%
%TO.N,/D5*%
X242570000Y-144780000D03*
%TO.P,J3,34*%
%TO.N,/D6*%
X245110000Y-144780000D03*
%TO.P,J3,33*%
%TO.N,/D7*%
X247650000Y-144780000D03*
%TO.P,J3,32*%
%TO.N,/IOCHCK*%
X250190000Y-144780000D03*
%TD*%
D12*
%TO.P,J2,31*%
%TO.N,/GND@31*%
X173990000Y-134620000D03*
%TO.P,J2,30*%
%TO.N,/OSC*%
X176530000Y-134620000D03*
%TO.P,J2,29*%
%TO.N,/VCC@29*%
X179070000Y-134620000D03*
%TO.P,J2,28*%
%TO.N,/ALE*%
X181610000Y-134620000D03*
%TO.P,J2,27*%
%TO.N,/TC*%
X184150000Y-134620000D03*
%TO.P,J2,26*%
%TO.N,/~DACK2*%
X186690000Y-134620000D03*
%TO.P,J2,25*%
%TO.N,/IRQ3*%
X189230000Y-134620000D03*
%TO.P,J2,24*%
%TO.N,/IRQ4*%
X191770000Y-134620000D03*
%TO.P,J2,23*%
%TO.N,/IRQ5*%
X194310000Y-134620000D03*
%TO.P,J2,22*%
%TO.N,/IRQ6*%
X196850000Y-134620000D03*
%TO.P,J2,21*%
%TO.N,/IRQ7*%
X199390000Y-134620000D03*
%TO.P,J2,20*%
%TO.N,/CLK*%
X201930000Y-134620000D03*
%TO.P,J2,19*%
%TO.N,/~DACK0*%
X204470000Y-134620000D03*
%TO.P,J2,18*%
%TO.N,/DRQ1*%
X207010000Y-134620000D03*
%TO.P,J2,17*%
%TO.N,/~DACK1*%
X209550000Y-134620000D03*
%TO.P,J2,16*%
%TO.N,/DRQ3*%
X212090000Y-134620000D03*
%TO.P,J2,15*%
%TO.N,/~DACK3*%
X214630000Y-134620000D03*
%TO.P,J2,14*%
%TO.N,/~IOR*%
X217170000Y-134620000D03*
%TO.P,J2,13*%
%TO.N,/~IOW*%
X219710000Y-134620000D03*
%TO.P,J2,12*%
%TO.N,/~MEMR*%
X222250000Y-134620000D03*
%TO.P,J2,11*%
%TO.N,/~MEMW*%
X224790000Y-134620000D03*
%TO.P,J2,10*%
%TO.N,/GND@10*%
X227330000Y-134620000D03*
%TO.P,J2,9*%
%TO.N,/+12V@9*%
X229870000Y-134620000D03*
%TO.P,J2,8*%
%TO.N,/~CARD*%
X232410000Y-134620000D03*
%TO.P,J2,7*%
%TO.N,/-12V@7*%
X234950000Y-134620000D03*
%TO.P,J2,6*%
%TO.N,/DRQ2*%
X237490000Y-134620000D03*
%TO.P,J2,5*%
%TO.N,/-5V@5*%
X240030000Y-134620000D03*
%TO.P,J2,4*%
%TO.N,/IRQ2*%
X242570000Y-134620000D03*
%TO.P,J2,3*%
%TO.N,/VCC@3*%
X245110000Y-134620000D03*
%TO.P,J2,2*%
%TO.N,/RESET*%
X247650000Y-134620000D03*
D13*
%TO.P,J2,1*%
%TO.N,/GND@1*%
X250190000Y-134620000D03*
%TD*%
D12*
%TO.P,J1,31*%
%TO.N,/GND@31*%
X173990000Y-137160000D03*
%TO.P,J1,30*%
%TO.N,/OSC*%
X176530000Y-137160000D03*
%TO.P,J1,29*%
%TO.N,/VCC@29*%
X179070000Y-137160000D03*
%TO.P,J1,28*%
%TO.N,/ALE*%
X181610000Y-137160000D03*
%TO.P,J1,27*%
%TO.N,/TC*%
X184150000Y-137160000D03*
%TO.P,J1,26*%
%TO.N,/~DACK2*%
X186690000Y-137160000D03*
%TO.P,J1,25*%
%TO.N,/IRQ3*%
X189230000Y-137160000D03*
%TO.P,J1,24*%
%TO.N,/IRQ4*%
X191770000Y-137160000D03*
%TO.P,J1,23*%
%TO.N,/IRQ5*%
X194310000Y-137160000D03*
%TO.P,J1,22*%
%TO.N,/IRQ6*%
X196850000Y-137160000D03*
%TO.P,J1,21*%
%TO.N,/IRQ7*%
X199390000Y-137160000D03*
%TO.P,J1,20*%
%TO.N,/CLK*%
X201930000Y-137160000D03*
%TO.P,J1,19*%
%TO.N,/~DACK0*%
X204470000Y-137160000D03*
%TO.P,J1,18*%
%TO.N,/DRQ1*%
X207010000Y-137160000D03*
%TO.P,J1,17*%
%TO.N,/~DACK1*%
X209550000Y-137160000D03*
%TO.P,J1,16*%
%TO.N,/DRQ3*%
X212090000Y-137160000D03*
%TO.P,J1,15*%
%TO.N,/~DACK3*%
X214630000Y-137160000D03*
%TO.P,J1,14*%
%TO.N,/~IOR*%
X217170000Y-137160000D03*
%TO.P,J1,13*%
%TO.N,/~IOW*%
X219710000Y-137160000D03*
%TO.P,J1,12*%
%TO.N,/~MEMR*%
X222250000Y-137160000D03*
%TO.P,J1,11*%
%TO.N,/~MEMW*%
X224790000Y-137160000D03*
%TO.P,J1,10*%
%TO.N,/GND@10*%
X227330000Y-137160000D03*
%TO.P,J1,9*%
%TO.N,/+12V@9*%
X229870000Y-137160000D03*
%TO.P,J1,8*%
%TO.N,/~CARD*%
X232410000Y-137160000D03*
%TO.P,J1,7*%
%TO.N,/-12V@7*%
X234950000Y-137160000D03*
%TO.P,J1,6*%
%TO.N,/DRQ2*%
X237490000Y-137160000D03*
%TO.P,J1,5*%
%TO.N,/-5V@5*%
X240030000Y-137160000D03*
%TO.P,J1,4*%
%TO.N,/IRQ2*%
X242570000Y-137160000D03*
%TO.P,J1,3*%
%TO.N,/VCC@3*%
X245110000Y-137160000D03*
%TO.P,J1,2*%
%TO.N,/RESET*%
X247650000Y-137160000D03*
D13*
%TO.P,J1,1*%
%TO.N,/GND@1*%
X250190000Y-137160000D03*
%TD*%
D19*
%TO.N,*%
X266161000Y-69850000D02*
X266827000Y-69184000D01*
X259080000Y-68580000D02*
X260350000Y-69850000D01*
X260350000Y-69850000D02*
X266161000Y-69850000D01*
X266391000Y-72390000D02*
X266827000Y-71954000D01*
X259080000Y-71120000D02*
X260350000Y-72390000D01*
X260350000Y-72390000D02*
X266391000Y-72390000D01*
X266621000Y-74930000D02*
X266827000Y-74724000D01*
X259080000Y-73660000D02*
X260350000Y-74930000D01*
X260350000Y-74930000D02*
X266621000Y-74930000D01*
X266803000Y-77470000D02*
X266827000Y-77494000D01*
X259080000Y-76200000D02*
X260350000Y-77470000D01*
X260350000Y-77470000D02*
X266803000Y-77470000D01*
X266573000Y-80010000D02*
X266827000Y-80264000D01*
X259080000Y-78740000D02*
X260350000Y-80010000D01*
X260350000Y-80010000D02*
X266573000Y-80010000D01*
X264795000Y-71120000D02*
X261620000Y-71120000D01*
X265430000Y-70485000D02*
X264795000Y-71120000D01*
X267335000Y-70485000D02*
X265430000Y-70485000D01*
X269667000Y-73339000D02*
X269667000Y-72817000D01*
X269667000Y-72817000D02*
X267335000Y-70485000D01*
X267716000Y-73406000D02*
X265049000Y-73406000D01*
X269667000Y-76109000D02*
X269667000Y-75357000D01*
X264795000Y-73660000D02*
X261620000Y-73660000D01*
X265049000Y-73406000D02*
X264795000Y-73660000D01*
X269667000Y-75357000D02*
X267716000Y-73406000D01*
X269667000Y-78879000D02*
X269667000Y-78532000D01*
X269667000Y-78532000D02*
X267335000Y-76200000D01*
X267335000Y-76200000D02*
X261620000Y-76200000D01*
X266844500Y-135890000D02*
X265430000Y-135890000D01*
X264160000Y-134620000D02*
X261620000Y-134620000D01*
X265430000Y-135890000D02*
X264160000Y-134620000D01*
X269684500Y-134505000D02*
X265315000Y-134505000D01*
X265315000Y-134505000D02*
X264160000Y-133350000D01*
X264160000Y-133350000D02*
X260350000Y-133350000D01*
X260350000Y-133350000D02*
X259080000Y-134620000D01*
X266844500Y-133120000D02*
X265200000Y-133120000D01*
X264160000Y-132080000D02*
X261620000Y-132080000D01*
X265200000Y-133120000D02*
X264160000Y-132080000D01*
X269684500Y-131735000D02*
X265085000Y-131735000D01*
X265085000Y-131735000D02*
X264160000Y-130810000D01*
X260350000Y-130810000D02*
X259080000Y-132080000D01*
X264160000Y-130810000D02*
X260350000Y-130810000D01*
X266844500Y-130350000D02*
X264970000Y-130350000D01*
X264160000Y-129540000D02*
X261620000Y-129540000D01*
X264970000Y-130350000D02*
X264160000Y-129540000D01*
X269684500Y-128965000D02*
X264855000Y-128965000D01*
X264855000Y-128965000D02*
X264160000Y-128270000D01*
X260350000Y-128270000D02*
X259080000Y-129540000D01*
X264160000Y-128270000D02*
X260350000Y-128270000D01*
X266844500Y-127580000D02*
X264740000Y-127580000D01*
X264160000Y-127000000D02*
X261620000Y-127000000D01*
X264740000Y-127580000D02*
X264160000Y-127000000D01*
X269684500Y-126195000D02*
X264625000Y-126195000D01*
X264625000Y-126195000D02*
X264160000Y-125730000D01*
X260350000Y-125730000D02*
X259080000Y-127000000D01*
X264160000Y-125730000D02*
X260350000Y-125730000D01*
X266844500Y-124810000D02*
X264510000Y-124810000D01*
X264160000Y-124460000D02*
X261620000Y-124460000D01*
X264510000Y-124810000D02*
X264160000Y-124460000D01*
X269684500Y-123425000D02*
X264395000Y-123425000D01*
X264395000Y-123425000D02*
X264160000Y-123190000D01*
X260350000Y-123190000D02*
X259080000Y-124460000D01*
X264160000Y-123190000D02*
X260350000Y-123190000D01*
X266844500Y-122040000D02*
X264280000Y-122040000D01*
X264160000Y-121920000D02*
X261620000Y-121920000D01*
X264280000Y-122040000D02*
X264160000Y-121920000D01*
X269684500Y-120655000D02*
X264165000Y-120655000D01*
X264165000Y-120655000D02*
X264160000Y-120650000D01*
X260350000Y-120650000D02*
X259080000Y-121920000D01*
X264160000Y-120650000D02*
X260350000Y-120650000D01*
X266844500Y-119270000D02*
X264270000Y-119270000D01*
X264160000Y-119380000D02*
X261620000Y-119380000D01*
X264270000Y-119270000D02*
X264160000Y-119380000D01*
X269684500Y-117885000D02*
X264385000Y-117885000D01*
X264385000Y-117885000D02*
X264160000Y-118110000D01*
X260350000Y-118110000D02*
X259080000Y-119380000D01*
X264160000Y-118110000D02*
X260350000Y-118110000D01*
X266844500Y-116500000D02*
X264500000Y-116500000D01*
X264160000Y-116840000D02*
X261620000Y-116840000D01*
X264500000Y-116500000D02*
X264160000Y-116840000D01*
X269684500Y-115115000D02*
X264615000Y-115115000D01*
X264615000Y-115115000D02*
X264160000Y-115570000D01*
X260350000Y-115570000D02*
X259080000Y-116840000D01*
X264160000Y-115570000D02*
X260350000Y-115570000D01*
X266844500Y-113730000D02*
X264730000Y-113730000D01*
X264160000Y-114300000D02*
X261620000Y-114300000D01*
X264730000Y-113730000D02*
X264160000Y-114300000D01*
X269684500Y-112345000D02*
X264845000Y-112345000D01*
X264845000Y-112345000D02*
X264160000Y-113030000D01*
X260350000Y-113030000D02*
X259080000Y-114300000D01*
X264160000Y-113030000D02*
X260350000Y-113030000D01*
X266844500Y-110960000D02*
X264960000Y-110960000D01*
X264160000Y-111760000D02*
X261620000Y-111760000D01*
X264960000Y-110960000D02*
X264160000Y-111760000D01*
X269684500Y-109575000D02*
X265075000Y-109575000D01*
X265075000Y-109575000D02*
X264160000Y-110490000D01*
X260350000Y-110490000D02*
X259080000Y-111760000D01*
X264160000Y-110490000D02*
X260350000Y-110490000D01*
X266844500Y-108190000D02*
X265190000Y-108190000D01*
X264160000Y-109220000D02*
X261620000Y-109220000D01*
X265190000Y-108190000D02*
X264160000Y-109220000D01*
X269684500Y-106805000D02*
X265305000Y-106805000D01*
X265305000Y-106805000D02*
X264160000Y-107950000D01*
X260350000Y-107950000D02*
X259080000Y-109220000D01*
X264160000Y-107950000D02*
X260350000Y-107950000D01*
X266844500Y-105420000D02*
X265420000Y-105420000D01*
X264160000Y-106680000D02*
X261620000Y-106680000D01*
X265420000Y-105420000D02*
X264160000Y-106680000D01*
X269684500Y-104035000D02*
X265535000Y-104035000D01*
X265535000Y-104035000D02*
X264160000Y-105410000D01*
X260350000Y-105410000D02*
X259080000Y-106680000D01*
X264160000Y-105410000D02*
X260350000Y-105410000D01*
X266844500Y-102650000D02*
X265650000Y-102650000D01*
X264160000Y-104140000D02*
X261620000Y-104140000D01*
X265650000Y-102650000D02*
X264160000Y-104140000D01*
%TO.N,/A00*%
X173990000Y-127000000D02*
X173990000Y-129540000D01*
X173990000Y-129540000D02*
X172720000Y-130810000D01*
X172720000Y-130810000D02*
X172720000Y-138430000D01*
X172720000Y-138430000D02*
X173990000Y-139700000D01*
X173990000Y-139700000D02*
X173990000Y-144780000D01*
%TO.N,/A01*%
X176530000Y-127000000D02*
X176530000Y-129540000D01*
X176530000Y-129540000D02*
X175260000Y-130810000D01*
X175260000Y-130810000D02*
X175260000Y-138430000D01*
X175260000Y-138430000D02*
X176530000Y-139700000D01*
X176530000Y-139700000D02*
X176530000Y-144780000D01*
%TO.N,/A02*%
X179070000Y-127000000D02*
X179070000Y-129540000D01*
X179070000Y-139700000D02*
X179070000Y-144780000D01*
X177800000Y-138430000D02*
X179070000Y-139700000D01*
X179070000Y-129540000D02*
X177800000Y-130810000D01*
X177800000Y-130810000D02*
X177800000Y-138430000D01*
%TO.N,/A03*%
X181610000Y-127000000D02*
X181610000Y-129540000D01*
X180340000Y-138430000D02*
X180340000Y-130810000D01*
X180340000Y-130810000D02*
X181610000Y-129540000D01*
X181610000Y-144780000D02*
X181610000Y-139700000D01*
X181610000Y-139700000D02*
X180340000Y-138430000D01*
%TO.N,/A04*%
X184150000Y-127000000D02*
X184150000Y-129540000D01*
X184150000Y-129540000D02*
X182880000Y-130810000D01*
X182880000Y-130810000D02*
X182880000Y-138430000D01*
X182880000Y-138430000D02*
X184150000Y-139700000D01*
X184150000Y-139700000D02*
X184150000Y-144780000D01*
%TO.N,/A05*%
X186690000Y-127000000D02*
X186690000Y-129540000D01*
X185420000Y-130810000D02*
X186690000Y-129540000D01*
X185420000Y-138430000D02*
X185420000Y-130810000D01*
X186690000Y-144780000D02*
X186690000Y-139700000D01*
X186690000Y-139700000D02*
X185420000Y-138430000D01*
%TO.N,/A06*%
X189230000Y-127000000D02*
X189230000Y-129540000D01*
X187960000Y-130810000D02*
X189230000Y-129540000D01*
X187960000Y-138430000D02*
X187960000Y-130810000D01*
X189230000Y-144780000D02*
X189230000Y-139700000D01*
X189230000Y-139700000D02*
X187960000Y-138430000D01*
%TO.N,/A07*%
X191770000Y-127000000D02*
X191770000Y-129540000D01*
X190500000Y-130810000D02*
X191770000Y-129540000D01*
X190500000Y-138430000D02*
X190500000Y-130810000D01*
X191770000Y-144780000D02*
X191770000Y-139700000D01*
X191770000Y-139700000D02*
X190500000Y-138430000D01*
%TO.N,/A08*%
X194310000Y-127000000D02*
X194310000Y-129540000D01*
X193040000Y-138430000D02*
X193040000Y-130810000D01*
X194310000Y-144780000D02*
X194310000Y-139700000D01*
X193040000Y-130810000D02*
X194310000Y-129540000D01*
X194310000Y-139700000D02*
X193040000Y-138430000D01*
%TO.N,/A09*%
X196850000Y-127000000D02*
X196850000Y-129540000D01*
X195580000Y-130810000D02*
X196850000Y-129540000D01*
X195580000Y-138430000D02*
X195580000Y-130810000D01*
X196850000Y-144780000D02*
X196850000Y-139700000D01*
X196850000Y-139700000D02*
X195580000Y-138430000D01*
%TO.N,/A10*%
X199390000Y-127000000D02*
X199390000Y-129540000D01*
X198120000Y-138430000D02*
X198120000Y-130810000D01*
X198120000Y-130810000D02*
X199390000Y-129540000D01*
X199390000Y-144780000D02*
X199390000Y-139700000D01*
X199390000Y-139700000D02*
X198120000Y-138430000D01*
%TO.N,/A11*%
X201930000Y-127000000D02*
X201930000Y-129540000D01*
X200660000Y-130810000D02*
X201930000Y-129540000D01*
X200660000Y-138430000D02*
X200660000Y-130810000D01*
X201930000Y-144780000D02*
X201930000Y-139700000D01*
X201930000Y-139700000D02*
X200660000Y-138430000D01*
%TO.N,/A12*%
X204470000Y-127000000D02*
X204470000Y-129540000D01*
X203200000Y-130810000D02*
X204470000Y-129540000D01*
X204470000Y-144780000D02*
X204470000Y-139700000D01*
X203200000Y-138430000D02*
X203200000Y-130810000D01*
X204470000Y-139700000D02*
X203200000Y-138430000D01*
%TO.N,/A13*%
X207010000Y-127000000D02*
X207010000Y-129540000D01*
X205740000Y-130810000D02*
X207010000Y-129540000D01*
X205740000Y-138430000D02*
X205740000Y-130810000D01*
X207010000Y-144780000D02*
X207010000Y-139700000D01*
X207010000Y-139700000D02*
X205740000Y-138430000D01*
%TO.N,/A14*%
X209550000Y-127000000D02*
X209550000Y-129540000D01*
X208280000Y-130810000D02*
X209550000Y-129540000D01*
X208280000Y-138430000D02*
X208280000Y-130810000D01*
X209550000Y-144780000D02*
X209550000Y-139700000D01*
X209550000Y-139700000D02*
X208280000Y-138430000D01*
%TO.N,/A15*%
X212090000Y-127000000D02*
X212090000Y-129540000D01*
X210820000Y-130810000D02*
X212090000Y-129540000D01*
X212090000Y-144780000D02*
X212090000Y-139700000D01*
X210820000Y-138430000D02*
X210820000Y-130810000D01*
X212090000Y-139700000D02*
X210820000Y-138430000D01*
%TO.N,/A16*%
X214630000Y-127000000D02*
X214630000Y-129540000D01*
X213360000Y-130810000D02*
X214630000Y-129540000D01*
X213360000Y-138430000D02*
X213360000Y-130810000D01*
X214630000Y-144780000D02*
X214630000Y-139700000D01*
X214630000Y-139700000D02*
X213360000Y-138430000D01*
%TO.N,/A17*%
X217170000Y-127000000D02*
X217170000Y-129540000D01*
X215900000Y-130810000D02*
X217170000Y-129540000D01*
X215900000Y-138430000D02*
X215900000Y-130810000D01*
X217170000Y-144780000D02*
X217170000Y-139700000D01*
X217170000Y-139700000D02*
X215900000Y-138430000D01*
%TO.N,/A18*%
X219710000Y-127000000D02*
X219710000Y-129540000D01*
X218440000Y-138430000D02*
X218440000Y-130810000D01*
X219710000Y-144780000D02*
X219710000Y-139700000D01*
X218440000Y-130810000D02*
X219710000Y-129540000D01*
X219710000Y-139700000D02*
X218440000Y-138430000D01*
%TO.N,/A19*%
X222250000Y-127000000D02*
X222250000Y-129540000D01*
X220980000Y-130810000D02*
X222250000Y-129540000D01*
X220980000Y-138430000D02*
X220980000Y-130810000D01*
X222250000Y-144780000D02*
X222250000Y-139700000D01*
X222250000Y-139700000D02*
X220980000Y-138430000D01*
%TO.N,/AEN*%
X224790000Y-127000000D02*
X224790000Y-129540000D01*
X223520000Y-130810000D02*
X224790000Y-129540000D01*
X223520000Y-138430000D02*
X223520000Y-130810000D01*
X224790000Y-144780000D02*
X224790000Y-139700000D01*
X224790000Y-139700000D02*
X223520000Y-138430000D01*
%TO.N,/IO-RDY*%
X227330000Y-127000000D02*
X227330000Y-129540000D01*
X226060000Y-130810000D02*
X227330000Y-129540000D01*
X226060000Y-138430000D02*
X226060000Y-130810000D01*
X227330000Y-144780000D02*
X227330000Y-139700000D01*
X227330000Y-139700000D02*
X226060000Y-138430000D01*
%TO.N,/D0*%
X229870000Y-127000000D02*
X229870000Y-129540000D01*
X228600000Y-138430000D02*
X228600000Y-130810000D01*
X228600000Y-130810000D02*
X229870000Y-129540000D01*
X229870000Y-144780000D02*
X229870000Y-139700000D01*
X229870000Y-139700000D02*
X228600000Y-138430000D01*
%TO.N,/D1*%
X232410000Y-127000000D02*
X232410000Y-129540000D01*
X232410000Y-129540000D02*
X231140000Y-130810000D01*
X231140000Y-133350000D02*
X231140000Y-138430000D01*
X231140000Y-138430000D02*
X232410000Y-139700000D01*
X232410000Y-139700000D02*
X232410000Y-144780000D01*
X231140000Y-133350000D02*
X231140000Y-130810000D01*
%TO.N,/D2*%
X234950000Y-127000000D02*
X234950000Y-129540000D01*
X233680000Y-130810000D02*
X234950000Y-129540000D01*
X233680000Y-138430000D02*
X233680000Y-130810000D01*
X234950000Y-144780000D02*
X234950000Y-139700000D01*
X234950000Y-139700000D02*
X233680000Y-138430000D01*
%TO.N,/D3*%
X237490000Y-127000000D02*
X237490000Y-129540000D01*
X236220000Y-130810000D02*
X237490000Y-129540000D01*
X237490000Y-144780000D02*
X237490000Y-139700000D01*
X236220000Y-138430000D02*
X236220000Y-130810000D01*
X237490000Y-139700000D02*
X236220000Y-138430000D01*
%TO.N,/D4*%
X240030000Y-127000000D02*
X240030000Y-129540000D01*
X238760000Y-138430000D02*
X238760000Y-130810000D01*
X240030000Y-144780000D02*
X240030000Y-139700000D01*
X238760000Y-130810000D02*
X240030000Y-129540000D01*
X240030000Y-139700000D02*
X238760000Y-138430000D01*
%TO.N,/D5*%
X242570000Y-127000000D02*
X242570000Y-129540000D01*
X241300000Y-138430000D02*
X241300000Y-130810000D01*
X241300000Y-130810000D02*
X242570000Y-129540000D01*
X242570000Y-144780000D02*
X242570000Y-139700000D01*
X242570000Y-139700000D02*
X241300000Y-138430000D01*
%TO.N,/D6*%
X245110000Y-127000000D02*
X245110000Y-129540000D01*
X243840000Y-130810000D02*
X245110000Y-129540000D01*
X243840000Y-138430000D02*
X243840000Y-130810000D01*
X245110000Y-144780000D02*
X245110000Y-139700000D01*
X245110000Y-139700000D02*
X243840000Y-138430000D01*
%TO.N,/D7*%
X247650000Y-127000000D02*
X247650000Y-129540000D01*
X246380000Y-130810000D02*
X247650000Y-129540000D01*
X246380000Y-138430000D02*
X246380000Y-130810000D01*
X247650000Y-144780000D02*
X247650000Y-139700000D01*
X247650000Y-139700000D02*
X246380000Y-138430000D01*
%TO.N,/IOCHCK*%
X250190000Y-127000000D02*
X250190000Y-129540000D01*
X250190000Y-129540000D02*
X248920000Y-130810000D01*
X248920000Y-133350000D02*
X248920000Y-138430000D01*
X248920000Y-138430000D02*
X250190000Y-139700000D01*
X250190000Y-139700000D02*
X250190000Y-144780000D01*
X248920000Y-133350000D02*
X248920000Y-130810000D01*
%TD*%
M02*
